<svg fill="none" height="34" viewBox="0 0 132 34" width="132" xmlns="http://www.w3.org/2000/svg"><g fill="#f6f6f6"><path d="m132 0h34v10.4215h-34z" transform="matrix(0 1 -1 0 132 -132)"/><path d="m119.494 0h34v4.16858h-34z" transform="matrix(0 1 -1 0 119.494 -119.494)"/><path d="m106.988 0h34v4.16858h-34z" transform="matrix(0 1 -1 0 106.988 -106.988)"/><path d="m94.4829 0h34v4.16858h-34z" transform="matrix(0 1 -1 0 94.4829 -94.4829)"/><path d="m25.7013 0h34v8.33717h-34z" transform="matrix(0 1 -1 0 25.7013 -25.7013)"/><path d="m13.1956 0h34v12.5057h-34z" transform="matrix(0 1 -1 0 13.1956 -13.1956)"/><path d="m44.4595 0h34v4.16858h-34z" transform="matrix(0 1 -1 0 44.4595 -44.4595)"/><path d="m100.735 0h34v4.16858h-34z" transform="matrix(0 1 -1 0 100.735 -100.735)"/><path d="m77.8085 0h34v2.08429h-34z" transform="matrix(0 1 -1 0 77.8085 -77.8085)"/><path d="m34.038 0h34v2.08429h-34z" transform="matrix(0 1 -1 0 34.038 -34.038)"/><path d="m29.87 0h34v2.08429h-34z" transform="matrix(0 1 -1 0 29.87 -29.87)"/><path d="m73.64 0h34v10.4215h-34z" transform="matrix(0 1 -1 0 73.64 -73.64)"/><path d="m56.9655 0h34v10.4215h-34z" transform="matrix(0 1 -1 0 56.9655 -56.9655)"/><path d="m111.157 0h34v2.08429h-34z" transform="matrix(0 1 -1 0 111.157 -111.157)"/></g></svg>