<svg fill="none" height="26" viewBox="0 0 26 26" width="26" xmlns="http://www.w3.org/2000/svg"><g fill="#0f0f0f"><path d="m12.6578 2.27939c3.382 0 3.7825.01483 5.1125.07417 1.2362.05438 1.9037.26205 2.3487.43511.5883.22744 1.0136.50433 1.4536.94439.445.445.717.86527.9444 1.45366.1731.445.3807 1.11745.4351 2.34861.0594 1.335.0742 1.73551.0742 5.11257 0 3.382-.0148 3.7825-.0742 5.1126-.0544 1.2361-.262 1.9036-.4351 2.3486-.2274.5884-.5043 1.0136-.9444 1.4536-.445.445-.8653.717-1.4536.9444-.445.1731-1.1175.3807-2.3487.4351-1.335.0594-1.7355.0742-5.1125.0742-3.38202 0-3.78252-.0148-5.11257-.0742-1.23612-.0544-1.90362-.262-2.34862-.4351-.58839-.2274-1.01361-.5043-1.45366-.9444-.445-.445-.71695-.8652-.94439-1.4536-.17306-.445-.38073-1.1175-.43511-2.3486-.05934-1.3351-.07417-1.7356-.07417-5.1126 0-3.38201.01483-3.78251.07417-5.11257.05438-1.23611.26205-1.90361.43511-2.34861.22744-.58839.50433-1.01361.94439-1.45366.445-.445.86527-.71695 1.45366-.94439.445-.17306 1.11745-.38073 2.34862-.43511 1.33005-.05934 1.73055-.07417 5.11257-.07417zm0-2.27939c-3.43641 0-3.86657.0148333-5.21641.0741667-1.34489.0593333-2.2695.2768893-3.0705.5883893-.83561.326333-1.54267.756504-2.24478 1.463554-.70705.70211-1.137221 1.40917-1.463554 2.23984-.3115.80594-.529056 1.72561-.5883893 3.0705-.0593334 1.35477-.0741667 1.78494-.0741667 5.22135 0 3.4364.0148333 3.8665.0741667 5.2164.0593333 1.3449.2768893 2.2695.5883893 3.0705.326333.8356.756504 1.5426 1.463554 2.2447.70211.7022 1.40917 1.1373 2.23984 1.4587.80594.3115 1.72561.529 3.0705.5884 1.34983.0593 1.78.0741 5.21635.0741 3.4364 0 3.8666-.0148 5.2164-.0741 1.3449-.0594 2.2695-.2769 3.0705-.5884.8307-.3214 1.5378-.7565 2.2399-1.4587.7021-.7021 1.1372-1.4091 1.4586-2.2398.3115-.8059.529-1.7256.5884-3.0705.0593-1.3498.0741-1.78.0741-5.2164 0-3.43636-.0148-3.86653-.0741-5.21636-.0594-1.34489-.2769-2.26951-.5884-3.07051-.3115-.84055-.7417-1.54761-1.4487-2.24972-.7022-.70211-1.4092-1.137221-2.2399-1.45861-.8059-.3115-1.7256-.529056-3.0705-.5883889-1.3548-.0642778-1.7849-.0791111-5.2213-.0791111z"/><path d="m12.6578 6.15625c-3.5897 0-6.50198 2.91228-6.50198 6.50195 0 3.5897 2.91228 6.5019 6.50198 6.5019 3.5896 0 6.5019-2.9122 6.5019-6.5019 0-3.58967-2.9123-6.50195-6.5019-6.50195zm0 10.71955c-2.3289 0-4.21764-1.8888-4.21764-4.2176s1.88874-4.21762 4.21764-4.21762c2.3288 0 4.2176 1.88882 4.2176 4.21762s-1.8888 4.2176-4.2176 4.2176z"/><path d="m20.9348 5.89868c0 .84056-.6823 1.51795-1.518 1.51795-.8405 0-1.5179-.68233-1.5179-1.51795 0-.84055.6823-1.51794 1.5179-1.51794.8357 0 1.518.68233 1.518 1.51794z"/></g></svg>