<svg fill="none" height="22" viewBox="0 0 96 22" width="96" xmlns="http://www.w3.org/2000/svg"><g fill="#f6f6f6"><path d="m95.1659 18.7992c-.5125 0-.8023.35-.8492.752-.0352.5611.397.7822.397.7822s-.2513.2429-.7203.2647c-.3199 0-.5745.005-.8207-.2848-1.0117-1.149-1.2495-5.462-2.2394-7.1151-1.1038-1.8425-4.1538-2.0887-4.1538-2.0887s-.0168-.0536.1725-.0636c1.7218-.1441 3.179-.6399 4.1823-1.45556 1.005-.81569 1.5058-1.85081 1.5058-3.10534s-.4874-2.28127-1.4656-3.02494c-.9765-.74368-1.9212-1.17246-3.9495-1.17246h-8.5238c-.4874 0-.479.5142.0988.50583 1.7956.01005 1.7353.56111 1.7604 1.59455v14.83832c0 .6097-.4606 1.3399-1.8106 1.345-.6599-.0051-.6415.484-.0134.4773h6.5842c.6314.0067.5996-.4824-.0017-.4824-.6633-.0184-1.0753-.0033-1.2361-.0217-.5728-.0905-.8592-.3132-.8592-.6734v-8.4685c1.6179-.0067 3.8289.1273 4.7467.6633 1.1105.7052.9866 1.3902 1.0938 2.5359.0385 1.2947.2177 3.5358.9765 4.6965.7587 1.1607 1.4488 1.5209 2.4471 1.757.3366.0787.6951.1189 1.0719.1189 1.3467 0 2.4404-.7235 2.4404-1.5309 0-.4807-.3735-.8441-.8341-.8441zm-11.9423-7.961v-8.03807s2.7402-.01005 3.3331-.01005c2.3952 0 3.2075 1.39858 3.2075 3.96291 0 1.4505-.3819 2.49902-1.1423 3.14387-.7621.64654-3.6782.95974-5.3983.94134z"/><path d="m19.9156 2.80019c-3.5224-.00168-3.2109-.19765-3.9076 1.15738 0 0-5.5441 12.45323-7.28269 16.60703-.1608.4372-.60633 1.0469-.93295 0-1.07531-2.6514-7.133574-15.02253-7.133574-15.02253-1.834066-3.81217.541004-5.4536157 2.493984-5.5239632 1.67495-.0854221 4.66472-.02177431 7.68633 3.7853732.9145 1.06023 2.5308 3.74014 2.7653 4.56086-.0586.21272-.129.44721-.3132 1.01837-.0318-.82742-2.4555-5.10355-4.57259-6.73327-2.96298-2.540886-6.83377-2.014955-5.65461 1.61465 2.07526 5.35981 4.99971 10.50351 6.06497 12.62401.80062-2.2729 5.72663-12.2036 6.15043-13.49498.1256-.40032.1289-.59461-.4573-.59126-.3601-.00837-.7437-.01005-1.1591-.0067-.4505.00503-.6331-.50918.0486-.50918.938 0 6.2241.00335 6.2241.00335.5125-.00335.4941.51086-.0201.51086z"/><path d="m30.838 2.61418c-.0586.18592-.8442 2.93785-1.0318 3.6899-.2563.97481-.6884.66327-.6884.66327.2127-.85254.3199-1.40192.3802-2.20255.0486-1.10546-.2646-1.3902-.8291-1.61464-.8559-.41204-4.2292-.35341-4.7049-.35006s-.536.25961-.68.61637l-2.9312 7.53053c2.4907.1407 2.9747-.1256 3.6564-.5912.6817-.46567 1.1557-1.10215 1.4254-1.90947.0988-.46396.6717-.40534.4573.10719-1.0619 2.34998-1.7202 4.31298-2.6615 6.69478-.1491.4338-.4991.2613-.4037-.1106.268-.9564.9179-2.7234-.0368-3.3532-.4556-.2797-1.2445-.2998-2.2478-.2998-.2864 0-.5025.1792-.6448.5393 0 0-3.0937 7.7449-3.1891 8.0096-.134.3685.0368.5343.4572.5326h2.9814c2.5979 0 4.241-.6398 5.2074-1.7704.5008-.5728.9681-1.5142 1.3986-2.8223.1926-.6733.7386-.5041.5594-.0352-.6817 1.7839-1.3651 3.6782-1.6883 4.6865-.072.1859-.1524.3049-.2412.3551-.0905.0503-.2965.0754-.6181.0754 0 0-12.6709 0-13.2069 0-.5544 0-.5561-.4891-.0971-.4891.3417-.0033.7269 0 1.6046 0 .5209 0 .7436-.1641 1.2143-1.2562 0 0 6.6244-15.93372 6.6244-16.11294.0921-.27134-.0955-.37017-.2663-.39696-.201-.00838-.9698 0-1.7604 0-.5644 0-.5762-.51421-.0033-.51421h11.3611c.67 0 .665.10887.6063.32829z"/><path d="m63.0539 2.79839h-1.2294c-.2881 0-.5075.06699-.5226.34504-.0452.08207-.0837 12.30407-.0971 16.50987v.0419l-.0268 1.3333c-.4321-.0637-.6951-.2915-1.1959-1.0754 0 0-7.1855-10.64756-10.0463-15.05266v15.09456c0 .2328.0419.5661.469.5678.3802.0034 1.0669.0034 1.7654 0 .4639.0034.4656.4992-.0134.4925-.1608 0-6.6445-.0067-6.6445-.0067-.4137 0-.4405-.4858-.0821-.4858 1.0066.005 3.1991.0034 3.3784.0017.2428-.0017.3969-.2261.4003-.6063v-14.05447c-.0101-3.09864-.6281-3.10032-2.69-3.10702-.5159.00335-.5008-.51086-.0603-.51086h4.7451l9.2993 13.88195s-.0218-12.63411-.0268-12.94733c-.0033-.18592-.0888-.42208-.4053-.42208-.3149 0-.7186 0-1.4556 0-.6013 0-.6046-.51421.0285-.51421h4.4085c.5125 0 .5594.51421 0 .51253z"/><path d="m72.442 3.4148-2.9295 7.5322c2.4907.1407 2.9747-.1256 3.6564-.5929.68-.46565 1.1557-1.10213 1.4254-1.90777.1658-.47401.67-.40534.4556.10719-1.0217 2.18748-1.9078 4.41848-2.6615 6.69478-.1491.4321-.4975.2596-.402-.1106.268-.9564.9162-2.7251-.0368-3.3532-.4556-.2814-1.2462-.2998-2.2495-.2998-.2864 0-.5008.1792-.6448.5393 0 0-3.0937 7.7449-3.1891 8.0096-.134.3685.0351.5343.4572.5326h2.9814c2.5979 0 4.241-.6398 5.2074-1.7687.5025-.5745.9681-1.5159 1.3986-2.824.1926-.6733.7386-.5041.5594-.0352-.6817 1.7839-1.3667 3.6782-1.6883 4.6865-.072.1859-.1524.3049-.2429.3551-.0888.0503-.2948.0754-.618.0754h-11.2674l.4958-1.1406c.0871-.1608.1809-.3602.2864-.6047 0 0 .196-.4707.5193-1.2512l.0301-.072c1.5895-3.8272 6.075-14.64235 6.075-14.78974.0938-.27134-.0955-.37017-.2663-.39696-.1993-.00838-.9698 0-1.7604 0-.5644 0-.5761-.51421-.0033-.51421h11.3611c.6683 0 .665.11054.6064.32996l.0234.27302c-.9748-.1876-6.4234-.09212-6.8991-.08877-.4757.00167-.536.25961-.68.6147z"/><path d="m43.591 20.3434c-.4489-.8023-1.015-2.36-1.1139-5.7417-.1072-1.1473.0168-1.8307-1.0937-2.5358-.9195-.536-3.1288-.6717-4.7485-.6633v8.4685c0 .3584.2864.5829.861.6717.1607.0184.5711.0033 1.2344.0217.603 0 .6331.4891.0017.4858l-6.5842-.0034c-.6281.0067-.6466-.4824.0134-.4757 1.35-.005 1.8122-.7353 1.8122-1.3449v-14.84003c-.0251-1.03344.0335-1.5845-1.762-1.59455-.5778.00838-.5862-.50583-.0971-.50583h8.5221c2.0283 0 2.973.42878 3.9512 1.17246.9765.74367 1.4655 1.75199 1.4655 3.02494 0 1.27296-.5025 2.28965-1.5057 3.10535-1.0033.81566-2.4622 1.31146-4.1824 1.45556-.1892.01-.1725.0636-.1725.0636s3.0501.2462 4.1539 2.0887c1.1038 1.8424 1.0887 5.5926 2.6799 7.8571-.4305 0-1.6214 0-2.3801 0-.5477 0-.7621-.2077-1.0536-.7102zm-.4154-13.59212c0-2.56266-.8107-3.96291-3.2075-3.96291-.5913 0-3.3332.01005-3.3332.01005v8.03808c1.7202.0184 4.6363-.2965 5.3984-.94135s1.1423-1.69337 1.1423-3.14554z"/></g></svg>