<svg fill="none" height="18" viewBox="0 0 23 18" width="23" xmlns="http://www.w3.org/2000/svg"><path d="m4.4356 17.5522v-1.1686c.00685-.0983-.00733-.1969-.0416-.2893-.03426-.0924-.08783-.1764-.15713-.2464-.0693-.0701-.15273-.1245-.24474-.1598-.092-.0352-.19046-.0504-.28881-.0446-.12872-.0084-.25734.0179-.37243.0761-.1151.0583-.21247.1463-.28197.255-.06333-.1054-.15392-.1918-.26223-.2501-.10832-.0583-.23033-.0863-.35321-.081-.10711-.0054-.21377.0173-.30942.0658s-.17697.1212-.23591.2108v-.2298h-.40512v1.8619h.409v-1.0323c-.00885-.0637-.00347-.1286.01573-.1899.0192-.0614.05176-.1178.09533-.1651.04357-.0472.09708-.0843.15667-.1085.0596-.0241.12381-.0348.18801-.0312.26877 0 .40512.1753.40512.4908v1.0362h.409v-1.0323c-.00818-.0636-.00234-.1282.0171-.1893.01945-.061.05204-.1171.09547-.1643.04343-.0471.09666-.0842.15595-.1085.05928-.0244.12318-.0355.18722-.0326.27654 0 .40897.1753.40897.4908v1.0362zm6.0532-1.8619h-.66222v-.5649h-.409v.5649h-.37785v.37h.37785v.8491c0 .4324.1675.6895.64662.6895.179.0005.3545-.0494.5063-.1441l-.1168-.3467c-.1086.0648-.2319.101-.3584.1052-.20252 0-.26872-.1247-.26872-.3116v-.8414h.66222zm3.455-.0468c-.0988-.0029-.1965.0209-.2829.0689-.0863.048-.1582.1184-.2079.2038v-.2259h-.4012v1.8619h.4051v-1.044c0-.3077.1324-.4791.3973-.4791.0867-.0012.1727.0147.2532.0468l.1246-.3818c-.0925-.0331-.1899-.0502-.2882-.0506zm-5.22346.1947c-.2293-.1363-.49295-.2039-.75957-.1947-.47132 0-.77513.2259-.77513.5959 0 .3039.22591.4909.64267.5493l.19088.0272c.22202.0312.3272.0896.3272.1948 0 .1441-.14804.2259-.42458.2259-.22245.0064-.4406-.0622-.61934-.1947l-.19085.3155c.23595.1648.5186.2494.8063.2415.53753 0 .84913-.2532.84913-.6077 0-.3272-.24537-.4986-.65047-.557l-.19085-.0273c-.17531-.0233-.31552-.0584-.31552-.183 0-.1363.1324-.2182.35445-.2182.20389.0031.40364.0581.58039.1597zm10.85206-.1947c-.0988-.0029-.1965.0209-.2829.0689s-.1582.1184-.2079.2038v-.2259h-.4012v1.8619h.4051v-1.044c0-.3077.1324-.4791.3973-.4791.0866-.0012.1727.0147.2532.0468l.1246-.3818c-.0925-.0331-.19-.0502-.2882-.0506zm-5.2196.9777c-.0054.1311.0167.262.065.3841.0482.1221.1214.2327.215.3248.0935.0921.2053.1636.3282.2099.1228.0463.254.0664.3851.0589.2432.0122.4822-.067.6699-.2221l-.1947-.3272c-.1401.1068-.3108.1655-.4869.1675-.1518-.0092-.2944-.076-.3986-.1867-.1043-.1108-.1623-.2571-.1623-.4092s.058-.2985.1623-.4092c.1042-.1108.2468-.1776.3986-.1868.1761.002.3468.0608.4869.1675l.1947-.3272c-.1877-.155-.4267-.2342-.6699-.222-.1311-.0075-.2622.0126-.3851.0589-.1228.0463-.2346.1178-.3282.2098-.0935.0921-.1668.2028-.215.3249-.0483.1221-.0704.2529-.065.3841zm3.7939 0v-.9309h-.4051v.2259c-.0691-.0891-.1586-.1604-.2609-.2078-.1024-.0475-.2146-.0697-.3273-.0649-.251.0123-.4876.1207-.6609.3027s-.27.4237-.27.675.0967.493.27.675.4099.2904.6609.3027c.1127.0048.2249-.0174.3273-.0649.1023-.0474.1918-.1187.2609-.2078v.226h.4051zm-1.5074 0c.0063-.1099.0446-.2155.1102-.3039s.1556-.1556.2589-.1934c.1034-.0378.2155-.0446.3227-.0194.1071.0252.2045.0812.2802.161.0757.0799.1264.1802.1458.2885.0194.1084.0066.22-.0367.3212-.0432.1011-.1152.1874-.207.2482-.0917.0608-.1992.0934-.3093.0937-.0771.0011-.1536-.0139-.2247-.0439-.0711-.0299-.1352-.0743-.1883-.1303-.053-.056-.0939-.1224-.12-.195-.0262-.0726-.037-.1498-.0318-.2267zm-4.8885-.9777c-.2526.0133-.4903.1239-.6631.3086-.1728.1848-.2674.4293-.2639.6822.0036.253.1049.4947.2828.6746.1779.1798.4186.2838.6715.29.2779.0098.5497-.0832.7634-.261l-.1986-.2999c-.1539.1233-.3444.1918-.5415.1947-.1338.0113-.2668-.03-.3708-.1151-.1039-.085-.1707-.2072-.1862-.3406h1.3828c.0039-.0506.0078-.1013.0078-.1558-.0039-.5804-.3622-.9777-.8842-.9777zm-.0078.3622c.1224-.0023.2407.0439.329.1286.0884.0847.1396.2009.1423.3233h-.966c.0071-.125.0629-.2423.1553-.3267.0925-.0844.2143-.1294.3394-.1252zm10.1626.6155v-1.6788h-.4051v.9738c-.0692-.0891-.1586-.1604-.261-.2078-.1023-.0475-.2145-.0697-.3272-.0649-.251.0123-.4877.1207-.661.3027s-.27.4237-.27.675.0967.493.27.675.41.2904.661.3027c.1127.0048.2249-.0174.3272-.0649.1024-.0474.1918-.1187.261-.2078v.226h.4051zm.6753.6611c.0251-.0002.0501.0048.0733.0145.0223.0094.0426.0228.0598.0397s.0309.0369.0404.059c.0097.0227.0147.0471.0147.0718s-.005.0491-.0147.0718c-.0096.0219-.0233.0419-.0404.0587-.0173.0169-.0376.0304-.0598.0399-.0232.0099-.0481.0149-.0733.0148-.0371.0003-.0734-.0102-.1045-.0304s-.0556-.049-.0704-.083c-.0097-.0227-.0147-.0471-.0147-.0718s.005-.0491.0147-.0718c.0095-.0221.0232-.0421.0402-.059.0172-.017.0377-.0305.0601-.0397.0236-.0097.049-.0147.0746-.0145zm0 .3293c.0192.0002.0382-.0037.0558-.0113.0169-.0074.0323-.0178.0453-.0309.0269-.0271.042-.0638.042-.102 0-.0383-.0151-.0749-.042-.1021-.013-.013-.0284-.0234-.0453-.0306-.0176-.0075-.0366-.0113-.0558-.0111-.0195-.0002-.0389.0036-.0569.0111-.0172.0071-.0329.0175-.0461.0306-.0269.0272-.042.0638-.042.1021 0 .0382.0151.0749.042.102.0133.0132.0289.0237.0461.0309.018.0076.0373.0115.0569.0113zm.0109-.2309c.0182-.0012.0363.0041.051.0148.0059.0048.0106.011.0137.018.0031.0069.0046.0145.0042.0221.0002.0066-.0009.0131-.0034.0191-.0024.0061-.0061.0115-.0108.0161-.0113.01-.0256.016-.0407.017l.0563.0648h-.044l-.0522-.0644h-.0167v.0644h-.0368v-.1719zm-.0426.0323v.0458h.0421c.0082.0004.0162-.0016.0232-.0057.0028-.0019.0051-.0045.0066-.0076s.0022-.0065.002-.0099c.0002-.0033-.0005-.0066-.002-.0096s-.0038-.0056-.0066-.0074c-.007-.0041-.0151-.006-.0232-.0056zm-2.151-.7918c.0063-.1099.0446-.2155.1102-.3039.0656-.0883.1556-.1556.2589-.1934.1034-.0378.2155-.0445.3227-.0193.1071.0252.2045.0811.2802.161s.1264.1802.1457.2885c.0194.1083.0067.2199-.0366.3211s-.1153.1875-.207.2482c-.0918.0608-.1993.0934-.3094.0937-.0771.0011-.1536-.0139-.2247-.0439-.071-.03-.1351-.0744-.1882-.1303-.053-.056-.0939-.1224-.1201-.195-.0261-.0726-.0369-.1498-.0317-.2267zm-13.68 0v-.9309h-.40512v.2259c-.06914-.0891-.15862-.1604-.26095-.2078-.10233-.0475-.21454-.0697-.32722-.0649-.25102.0123-.48768.1207-.66098.3027s-.26996.4237-.26996.675.09666.493.26996.675.40996.2904.66098.3027c.11269.0048.22489-.0174.32722-.0649.10233-.0474.19181-.1187.26095-.2078v.226h.40512zm-1.50743 0c.00629-.1099.0446-.2155.1102-.3039.0656-.0883.15563-.1556.25898-.1934.10334-.0378.2155-.0445.32262-.0193.10713.0252.20455.0811.28024.161.0757.0799.12636.1802.14574.2885s.00664.2199-.03666.3211-.11527.1875-.20702.2482c-.09175.0608-.19927.0934-.30932.0937-.07713.0011-.15364-.0139-.22471-.0439s-.13515-.0744-.18822-.1303c-.05306-.056-.09394-.1224-.12008-.195-.02613-.0726-.03695-.1498-.03177-.2267z" fill="#0f0f0f"/><path d="m14.7236 1.5h-6.13577v11.0262h6.13577z" fill="#ff5f00"/><path d="m8.97604 7.01331c-.00096-1.06191.23967-2.11011.70369-3.06526.46407-.95515 1.13927-1.79222 1.97457-2.44784-1.0344-.813107-2.27678-1.318768-3.58504-1.4591847-1.30826-.1404165-2.62963.0900787-3.81308.6651397-1.18346.575065-2.18125 1.471485-2.87932 2.586815-.698073 1.11532-1.068266 2.40455-1.068266 3.72033 0 1.31577.370193 2.605 1.068266 3.72029.69807 1.1154 1.69586 2.0118 2.87932 2.5869 1.18345.575 2.50482.8055 3.81308.6651s2.55064-.6461 3.58504-1.4592c-.8353-.6556-1.5105-1.4927-1.97456-2.4478-.46402-.95519-.70466-2.0034-.7037-3.06529z" fill="#eb001b"/><g fill="#f79e1b"><path d="m23.0011 7.01233c0 1.31575-.3701 2.60498-1.0682 3.72027-.698 1.1154-1.6958 2.0118-2.8792 2.5869-1.1834.575-2.5048.8055-3.813.6651-1.3083-.1404-2.5506-.6461-3.585-1.4592.8346-.6563 1.5093-1.4935 1.9732-2.4485.464-.95496.705-2.00284.705-3.06457 0-1.06174-.241-2.10961-.705-3.06461-.4639-.955-1.1386-1.79221-1.9732-2.44848 1.0344-.813116 2.2767-1.318778 3.585-1.4591924 1.3082-.1404146 2.6296.0900844 3.813.6651514 1.1834.575071 2.1812 1.471491 2.8792 2.586821.6981 1.11533 1.0682 2.40455 1.0682 3.72031z"/><path d="m22.3321 11.3591v-.2257h.091v-.046h-.2318v.046h.091v.2257zm.45 0v-.2722h-.071l-.0818.1872-.0817-.1872h-.0711v.2722h.0502v-.2053l.0766.177h.052l.0767-.1775v.2058z"/></g></svg>