<svg fill="none" height="27" viewBox="0 0 33 27" width="33" xmlns="http://www.w3.org/2000/svg" xmlns:xlink="http://www.w3.org/1999/xlink"><filter id="a" color-interpolation-filters="sRGB" filterUnits="userSpaceOnUse" height="27" width="33" x="0" y="0"><feFlood flood-opacity="0" result="BackgroundImageFix"/><feColorMatrix in="SourceAlpha" result="hardAlpha" type="matrix" values="0 0 0 0 0 0 0 0 0 0 0 0 0 0 0 0 0 0 127 0"/><feOffset/><feGaussianBlur stdDeviation="1.5"/><feComposite in2="hardAlpha" operator="out"/><feColorMatrix type="matrix" values="0 0 0 0 0.404128 0 0 0 0 0.629538 0 0 0 0 0.795406 0 0 0 1 0"/><feBlend in2="BackgroundImageFix" mode="normal" result="effect1_dropShadow_1007_3602"/><feBlend in="SourceGraphic" in2="effect1_dropShadow_1007_3602" mode="normal" result="shape"/></filter><g filter="url(#a)"><path d="m13.8 3.6738c-.3673 0-1.102.6738-2.2041 2.02139-1.102 1.27273-2.13059 2.73262-3.0857 4.37971-.88163 1.647-1.32244 3.1069-1.32244 4.3796 0 .3744.07346.7861.2204 1.2353.14694-.524.47755-.9732.99184-1.3476.58775-.4492 1.39592-.6738 2.4245-.6738 1.5428 0 2.6816.4492 3.4163 1.3476.8082.8236 1.2123 1.8717 1.2123 3.1444 0 1.4974-.5878 2.8449-1.7633 4.0428-1.102 1.1979-2.6082 1.7968-4.51837 1.7968-1.6898 0-3.08572-.4866-4.18776-1.4599-1.02857-.9733-1.65306-2.1337-1.87347-3.4813-.07347-.3743-.1102-.9732-.1102-1.7968 0-2.8449.91837-5.5401 2.7551-8.08553 1.83674-2.62032 4.298-4.67914 7.3837-6.17647zm14.5469 0c-.3673 0-1.102.6738-2.204 2.02139-1.1021 1.27273-2.1307 2.73262-3.0858 4.37971-.8816 1.647-1.3224 3.1069-1.3224 4.3796 0 .3744.0735.7861.2204 1.2353.1469-.524.4776-.9732.9918-1.3476.5878-.4492 1.396-.6738 2.4245-.6738 1.5429 0 2.6817.4492 3.4164 1.3476.8081.8236 1.2122 1.8717 1.2122 3.1444 0 1.4974-.5878 2.8449-1.7633 4.0428-1.102 1.1979-2.6081 1.7968-4.5183 1.7968-1.6898 0-3.0857-.4866-4.1878-1.4599-1.0286-.9733-1.653-2.1337-1.8735-3.4813-.0734-.3743-.1102-.9732-.1102-1.7968 0-2.8449.9184-5.5401 2.7551-8.08553 1.8368-2.62032 4.298-4.67914 7.3837-6.17647z" fill="#f6f6f6"/></g></svg>