<svg fill="none" height="272" viewBox="0 0 1004 272" width="1004" xmlns="http://www.w3.org/2000/svg" xmlns:xlink="http://www.w3.org/1999/xlink"><linearGradient id="a"><stop offset="0" stop-color="#969696"/><stop offset=".04" stop-color="#b5b5b5"/><stop offset=".08" stop-color="#ccc"/><stop offset=".12" stop-color="#d9d9d9"/><stop offset=".15" stop-color="#dedede"/><stop offset=".26" stop-color="#cbcbcb"/><stop offset=".38" stop-color="#bebebe"/><stop offset=".49" stop-color="#bababa"/><stop offset=".61" stop-color="#bebebe"/><stop offset=".74" stop-color="#cacaca"/><stop offset=".86" stop-color="#dedede"/><stop offset=".89" stop-color="#d9d9d9"/><stop offset=".93" stop-color="#cdcdcd"/><stop offset=".96" stop-color="#b8b8b8"/><stop offset=".99" stop-color="#9b9b9b"/><stop offset="1" stop-color="#949494"/></linearGradient><linearGradient id="b" gradientUnits="userSpaceOnUse" x1="700.008" x2="792.841" xlink:href="#a" y1="150.977" y2="150.977"/><linearGradient id="c" gradientUnits="userSpaceOnUse" x1="705.838" x2="712.234" xlink:href="#a" y1="134.768" y2="134.768"/><linearGradient id="d" gradientUnits="userSpaceOnUse" x1="726.214" x2="734.332" xlink:href="#a" y1="188.193" y2="188.193"/><linearGradient id="e" gradientUnits="userSpaceOnUse" x1="780.511" x2="786.926" xlink:href="#a" y1="167.004" y2="167.004"/><linearGradient id="f" gradientUnits="userSpaceOnUse" x1="758.447" x2="766.558" xlink:href="#a" y1="113.539" y2="113.539"/><linearGradient id="g" gradientUnits="userSpaceOnUse" x1="725.962" x2="734.076" xlink:href="#a" y1="113.631" y2="113.631"/><linearGradient id="h" gradientUnits="userSpaceOnUse" x1="705.925" x2="712.336" xlink:href="#a" y1="167.233" y2="167.233"/><linearGradient id="i" gradientUnits="userSpaceOnUse" x1="758.668" x2="766.769" xlink:href="#a" y1="188.127" y2="188.127"/><linearGradient id="j" gradientUnits="userSpaceOnUse" x1="780.424" x2="786.833" xlink:href="#a" y1="134.54" y2="134.54"/><linearGradient id="k" gradientUnits="userSpaceOnUse" x1="858.248" x2="879.677" xlink:href="#a" y1="87.3502" y2="62.037"/><linearGradient id="l" gradientUnits="userSpaceOnUse" x1="873.098" x2="880.19" xlink:href="#a" y1="65.9594" y2="65.9594"/><linearGradient id="m" gradientUnits="userSpaceOnUse" x1="867.83" x2="878.891" xlink:href="#a" y1="70.112" y2="70.112"/><linearGradient id="n" gradientUnits="userSpaceOnUse" x1="862.525" x2="877.004" xlink:href="#a" y1="74.7773" y2="74.7773"/><linearGradient id="o" gradientUnits="userSpaceOnUse" x1="836.789" x2="858.219" xlink:href="#a" y1="112.603" y2="87.2898"/><linearGradient id="p" gradientUnits="userSpaceOnUse" x1="836.211" x2="843.303" xlink:href="#a" y1="108.627" y2="108.627"/><linearGradient id="q" gradientUnits="userSpaceOnUse" x1="837.513" x2="848.574" xlink:href="#a" y1="104.485" y2="104.485"/><linearGradient id="r" gradientUnits="userSpaceOnUse" x1="839.402" x2="853.881" xlink:href="#a" y1="99.8365" y2="99.8365"/><linearGradient id="s" gradientUnits="userSpaceOnUse" x1="870.324" x2="871.476" xlink:href="#a" y1="98.7114" y2="97.3511"/><linearGradient id="t" gradientUnits="userSpaceOnUse" x1="875.814" x2="883.255" xlink:href="#a" y1="105.736" y2="105.736"/><linearGradient id="u" gradientUnits="userSpaceOnUse" x1="869.591" x2="881.185" xlink:href="#a" y1="102.456" y2="102.456"/><linearGradient id="v" gradientUnits="userSpaceOnUse" x1="863.332" x2="878.142" xlink:href="#a" y1="98.8633" y2="98.8633"/><linearGradient id="w" gradientUnits="userSpaceOnUse" x1="845.035" x2="846.186" xlink:href="#a" y1="77.308" y2="75.9477"/><linearGradient id="x" gradientUnits="userSpaceOnUse" x1="833.146" x2="840.588" xlink:href="#a" y1="68.8496" y2="68.8496"/><linearGradient id="y" gradientUnits="userSpaceOnUse" x1="835.219" x2="846.813" xlink:href="#a" y1="72.1392" y2="72.1392"/><linearGradient id="z" gradientUnits="userSpaceOnUse" x1="838.264" x2="853.074" xlink:href="#a" y1="75.7404" y2="75.7404"/><linearGradient id="A" gradientUnits="userSpaceOnUse" x1="858.179" x2="891.231" xlink:href="#a" y1="87.3656" y2="84.6192"/><linearGradient id="B" gradientUnits="userSpaceOnUse" x1="881.191" x2="888.541" xlink:href="#a" y1="84.8717" y2="84.8717"/><linearGradient id="C" gradientUnits="userSpaceOnUse" x1="873.078" x2="884.048" xlink:href="#a" y1="85.2626" y2="85.2626"/><linearGradient id="D" gradientUnits="userSpaceOnUse" x1="864.892" x2="878.544" xlink:href="#a" y1="85.8005" y2="85.8005"/><linearGradient id="E" gradientUnits="userSpaceOnUse" x1="825.173" x2="858.225" xlink:href="#a" y1="89.9982" y2="87.2518"/><linearGradient id="F" gradientUnits="userSpaceOnUse" x1="827.861" x2="835.211" xlink:href="#a" y1="89.7256" y2="89.7256"/><linearGradient id="G" gradientUnits="userSpaceOnUse" x1="832.356" x2="843.325" xlink:href="#a" y1="89.3365" y2="89.3365"/><linearGradient id="H" gradientUnits="userSpaceOnUse" x1="837.86" x2="851.512" xlink:href="#a" y1="88.8102" y2="88.8102"/><linearGradient id="I" gradientUnits="userSpaceOnUse" x1="858.679" x2="860.456" xlink:href="#a" y1="103.924" y2="103.776"/><linearGradient id="J" gradientUnits="userSpaceOnUse" x1="856.581" x2="864.684" xlink:href="#a" y1="113.967" y2="113.967"/><linearGradient id="K" gradientUnits="userSpaceOnUse" x1="853.937" x2="866.542" xlink:href="#a" y1="107.659" y2="107.659"/><linearGradient id="L" gradientUnits="userSpaceOnUse" x1="851.017" x2="868.4" xlink:href="#a" y1="100.817" y2="100.817"/><linearGradient id="M" gradientUnits="userSpaceOnUse" x1="855.936" x2="857.712" xlink:href="#a" y1="70.9185" y2="70.771"/><linearGradient id="N" gradientUnits="userSpaceOnUse" x1="851.718" x2="859.821" xlink:href="#a" y1="60.6282" y2="60.6282"/><linearGradient id="O" gradientUnits="userSpaceOnUse" x1="849.863" x2="862.468" xlink:href="#a" y1="66.9364" y2="66.9364"/><linearGradient id="P" gradientUnits="userSpaceOnUse" x1="848.008" x2="865.39" xlink:href="#a" y1="73.7849" y2="73.7849"/><linearGradient id="Q" gradientUnits="userSpaceOnUse" x1="893.917" x2="894.35" xlink:href="#a" y1="218.512" y2="217.301"/><linearGradient id="R" gradientUnits="userSpaceOnUse" x1="898.565" x2="904.151" xlink:href="#a" y1="221.02" y2="221.02"/><linearGradient id="S" gradientUnits="userSpaceOnUse" x1="892.986" x2="901.548" xlink:href="#a" y1="219.895" y2="219.895"/><linearGradient id="T" gradientUnits="userSpaceOnUse" x1="887.369" x2="898.118" xlink:href="#a" y1="218.477" y2="218.477"/><linearGradient id="U" gradientUnits="userSpaceOnUse" x1="871.345" x2="871.778" xlink:href="#a" y1="210.479" y2="209.268"/><linearGradient id="V" gradientUnits="userSpaceOnUse" x1="861.422" x2="867.007" xlink:href="#a" y1="206.688" y2="206.688"/><linearGradient id="W" gradientUnits="userSpaceOnUse" x1="864.026" x2="872.589" xlink:href="#a" y1="207.839" y2="207.839"/><linearGradient id="X" gradientUnits="userSpaceOnUse" x1="867.476" x2="878.206" xlink:href="#a" y1="209.246" y2="209.246"/><linearGradient id="Y" gradientUnits="userSpaceOnUse" x1="874.685" x2="882.795" xlink:href="#a" y1="236.516" y2="213.853"/><linearGradient id="Z" gradientUnits="userSpaceOnUse" x1="872.873" x2="878.367" xlink:href="#a" y1="232.435" y2="232.435"/><linearGradient id="aa" gradientUnits="userSpaceOnUse" x1="872.468" x2="881.049" xlink:href="#a" y1="228.346" y2="228.346"/><linearGradient id="ab" gradientUnits="userSpaceOnUse" x1="872.21" x2="884.117" xlink:href="#a" y1="223.816" y2="223.816"/><linearGradient id="ac" gradientUnits="userSpaceOnUse" x1="882.797" x2="890.907" xlink:href="#a" y1="213.859" y2="191.196"/><linearGradient id="ad" gradientUnits="userSpaceOnUse" x1="887.206" x2="892.718" xlink:href="#a" y1="195.291" y2="195.291"/><linearGradient id="ae" gradientUnits="userSpaceOnUse" x1="884.525" x2="893.106" xlink:href="#a" y1="199.378" y2="199.378"/><linearGradient id="af" gradientUnits="userSpaceOnUse" x1="881.46" x2="893.366" xlink:href="#a" y1="203.905" y2="203.905"/><linearGradient id="ag" gradientUnits="userSpaceOnUse" x1="887.349" x2="888.512" xlink:href="#a" y1="224.998" y2="224.448"/><linearGradient id="ah" gradientUnits="userSpaceOnUse" x1="889.206" x2="894.571" xlink:href="#a" y1="231.747" y2="231.747"/><linearGradient id="ai" gradientUnits="userSpaceOnUse" x1="886.269" x2="894.611" xlink:href="#a" y1="227.888" y2="227.888"/><linearGradient id="aj" gradientUnits="userSpaceOnUse" x1="882.854" x2="894.32" xlink:href="#a" y1="223.697" y2="223.697"/><linearGradient id="ak" gradientUnits="userSpaceOnUse" x1="877.075" x2="878.238" xlink:href="#a" y1="203.309" y2="202.759"/><linearGradient id="al" gradientUnits="userSpaceOnUse" x1="871.001" x2="876.367" xlink:href="#a" y1="195.961" y2="195.961"/><linearGradient id="am" gradientUnits="userSpaceOnUse" x1="870.964" x2="879.306" xlink:href="#a" y1="199.837" y2="199.837"/><linearGradient id="an" gradientUnits="userSpaceOnUse" x1="871.275" x2="882.722" xlink:href="#a" y1="204.033" y2="204.033"/><linearGradient id="ao" gradientUnits="userSpaceOnUse" x1="861.048" x2="882.808" xlink:href="#a" y1="224.165" y2="213.875"/><linearGradient id="ap" gradientUnits="userSpaceOnUse" x1="862.156" x2="867.649" xlink:href="#a" y1="222.956" y2="222.956"/><linearGradient id="aq" gradientUnits="userSpaceOnUse" x1="864.54" x2="872.993" xlink:href="#a" y1="221.51" y2="221.51"/><linearGradient id="ar" gradientUnits="userSpaceOnUse" x1="867.531" x2="878.39" xlink:href="#a" y1="219.66" y2="219.66"/><linearGradient id="as" gradientUnits="userSpaceOnUse" x1="882.776" x2="904.535" xlink:href="#a" y1="213.88" y2="203.59"/><linearGradient id="at" gradientUnits="userSpaceOnUse" x1="897.923" x2="903.417" xlink:href="#a" y1="204.761" y2="204.761"/><linearGradient id="au" gradientUnits="userSpaceOnUse" x1="892.582" x2="901.034" xlink:href="#a" y1="206.205" y2="206.205"/><linearGradient id="av" gradientUnits="userSpaceOnUse" x1="887.186" x2="898.045" xlink:href="#a" y1="208.071" y2="208.071"/><linearGradient id="aw" gradientUnits="userSpaceOnUse" x1="1029.31" x2="1030.38" xlink:href="#a" y1="188.069" y2="184.02"/><linearGradient id="ax" gradientUnits="userSpaceOnUse" x1="953.83" x2="954.904" xlink:href="#a" y1="168.052" y2="164.003"/><linearGradient id="ay" gradientUnits="userSpaceOnUse" x1="921.345" x2="939.444" xlink:href="#a" y1="158.34" y2="158.34"/><linearGradient id="az" gradientUnits="userSpaceOnUse" x1="930.518" x2="958.024" xlink:href="#a" y1="161.16" y2="161.16"/><linearGradient id="aA" gradientUnits="userSpaceOnUse" x1="942.5" x2="976.749" xlink:href="#a" y1="164.633" y2="164.633"/><linearGradient id="aB" gradientUnits="userSpaceOnUse" x1="971.997" x2="992.034" xlink:href="#a" y1="251.497" y2="175.925"/><linearGradient id="aC" gradientUnits="userSpaceOnUse" x1="965.132" x2="983.525" xlink:href="#a" y1="237.674" y2="237.674"/><linearGradient id="aD" gradientUnits="userSpaceOnUse" x1="962.817" x2="991.481" xlink:href="#a" y1="223.83" y2="223.83"/><linearGradient id="aE" gradientUnits="userSpaceOnUse" x1="960.758" x2="1000.45" xlink:href="#a" y1="208.478" y2="208.478"/><linearGradient id="aF" gradientUnits="userSpaceOnUse" x1="991.995" x2="1012.03" xlink:href="#a" y1="176.04" y2="100.469"/><linearGradient id="aG" gradientUnits="userSpaceOnUse" x1="1000.55" x2="1018.94" xlink:href="#a" y1="114.406" y2="114.406"/><linearGradient id="aH" gradientUnits="userSpaceOnUse" x1="992.601" x2="1021.25" xlink:href="#a" y1="128.291" y2="128.291"/><linearGradient id="aI" gradientUnits="userSpaceOnUse" x1="983.642" x2="1023.33" xlink:href="#a" y1="143.65" y2="143.65"/><linearGradient id="aJ" gradientUnits="userSpaceOnUse" x1="1009.88" x2="1013.5" xlink:href="#a" y1="210.899" y2="208.795"/><linearGradient id="aK" gradientUnits="userSpaceOnUse" x1="996.38" x2="1031.97" xlink:href="#a" y1="207.406" y2="207.406"/><linearGradient id="aL" gradientUnits="userSpaceOnUse" x1="970.645" x2="974.268" xlink:href="#a" y1="143.366" y2="141.262"/><linearGradient id="aM" gradientUnits="userSpaceOnUse" x1="948.983" x2="965.649" xlink:href="#a" y1="120.195" y2="120.195"/><linearGradient id="aN" gradientUnits="userSpaceOnUse" x1="949.843" x2="975.842" xlink:href="#a" y1="131.97" y2="131.97"/><linearGradient id="aO" gradientUnits="userSpaceOnUse" x1="952.115" x2="987.706" xlink:href="#a" y1="144.725" y2="144.725"/><linearGradient id="aP" gradientUnits="userSpaceOnUse" x1="924.473" x2="992.079" xlink:href="#a" y1="215.236" y2="175.968"/><linearGradient id="aQ" gradientUnits="userSpaceOnUse" x1="927.383" x2="945.004" xlink:href="#a" y1="210.759" y2="210.759"/><linearGradient id="aR" gradientUnits="userSpaceOnUse" x1="934.299" x2="961.621" xlink:href="#a" y1="205.247" y2="205.247"/><linearGradient id="aS" gradientUnits="userSpaceOnUse" x1="943.032" x2="978.384" xlink:href="#a" y1="198.184" y2="198.184"/><linearGradient id="aT" gradientUnits="userSpaceOnUse" x1="992.004" x2="1059.61" xlink:href="#a" y1="176.015" y2="136.746"/><linearGradient id="aU" gradientUnits="userSpaceOnUse" x1="937.355" x2="1028.62" xlink:href="#a" y1="45.6985" y2="45.6985"/><linearGradient id="aV" gradientUnits="userSpaceOnUse" x1="942.896" x2="949.129" xlink:href="#a" y1="63.2777" y2="63.2777"/><linearGradient id="aW" gradientUnits="userSpaceOnUse" x1="996.391" x2="1004.83" xlink:href="#a" y1="82.5687" y2="82.5687"/><linearGradient id="aX" gradientUnits="userSpaceOnUse" x1="961.101" x2="969.52" xlink:href="#a" y1="8.69719" y2="8.69719"/><linearGradient id="aY" gradientUnits="userSpaceOnUse" x1="941.483" x2="947.449" xlink:href="#a" y1="32.4655" y2="32.4655"/><linearGradient id="aZ" gradientUnits="userSpaceOnUse" x1="965.461" x2="974.109" xlink:href="#a" y1="84.1222" y2="84.1222"/><linearGradient id="a0" gradientUnits="userSpaceOnUse" x1="991.802" x2="1000.45" xlink:href="#a" y1="7.14073" y2="7.14073"/><linearGradient id="a1" gradientUnits="userSpaceOnUse" x1="499.986" x2="542.534" xlink:href="#a" y1="122.304" y2="122.304"/><linearGradient id="a2" gradientUnits="userSpaceOnUse" x1="501.796" x2="504.555" xlink:href="#a" y1="127.923" y2="127.923"/><linearGradient id="a3" gradientUnits="userSpaceOnUse" x1="524.867" x2="528.915" xlink:href="#a" y1="140.335" y2="140.335"/><linearGradient id="a4" gradientUnits="userSpaceOnUse" x1="537.927" x2="540.686" xlink:href="#a" y1="116.608" y2="116.608"/><linearGradient id="a5" gradientUnits="userSpaceOnUse" x1="513.568" x2="517.602" xlink:href="#a" y1="104.214" y2="104.214"/><linearGradient id="a6" gradientUnits="userSpaceOnUse" x1="502.772" x2="505.69" xlink:href="#a" y1="113.616" y2="113.616"/><linearGradient id="a7" gradientUnits="userSpaceOnUse" x1="510.63" x2="514.522" xlink:href="#a" y1="139.293" y2="139.293"/><linearGradient id="a8" gradientUnits="userSpaceOnUse" x1="536.793" x2="539.71" xlink:href="#a" y1="130.934" y2="130.934"/><linearGradient id="a9" gradientUnits="userSpaceOnUse" x1="527.961" x2="531.853" xlink:href="#a" y1="105.257" y2="105.257"/><linearGradient id="ba" gradientUnits="userSpaceOnUse" x1="424.362" x2="453.807" xlink:href="#a" y1="195.393" y2="179.36"/><linearGradient id="bb" gradientUnits="userSpaceOnUse" x1="444.86" x2="452.454" xlink:href="#a" y1="181.229" y2="181.229"/><linearGradient id="bc" gradientUnits="userSpaceOnUse" x1="437.615" x2="449.37" xlink:href="#a" y1="183.489" y2="183.489"/><linearGradient id="bd" gradientUnits="userSpaceOnUse" x1="430.328" x2="445.488" xlink:href="#a" y1="186.383" y2="186.383"/><linearGradient id="be" gradientUnits="userSpaceOnUse" x1="394.955" x2="424.4" xlink:href="#a" y1="211.403" y2="195.37"/><linearGradient id="bf" gradientUnits="userSpaceOnUse" x1="396.29" x2="403.898" xlink:href="#a" y1="209.577" y2="209.577"/><linearGradient id="bg" gradientUnits="userSpaceOnUse" x1="399.377" x2="411.132" xlink:href="#a" y1="207.326" y2="207.326"/><linearGradient id="bh" gradientUnits="userSpaceOnUse" x1="403.26" x2="418.421" xlink:href="#a" y1="204.442" y2="204.442"/><linearGradient id="bi" gradientUnits="userSpaceOnUse" x1="431.615" x2="433.192" xlink:href="#a" y1="210.531" y2="209.672"/><linearGradient id="bj" gradientUnits="userSpaceOnUse" x1="434.912" x2="442.179" xlink:href="#a" y1="219.681" y2="219.681"/><linearGradient id="bk" gradientUnits="userSpaceOnUse" x1="430.642" x2="441.955" xlink:href="#a" y1="214.527" y2="214.527"/><linearGradient id="bl" gradientUnits="userSpaceOnUse" x1="425.66" x2="441.148" xlink:href="#a" y1="208.939" y2="208.939"/><linearGradient id="bm" gradientUnits="userSpaceOnUse" x1="415.605" x2="417.181" xlink:href="#a" y1="181.124" y2="180.266"/><linearGradient id="bn" gradientUnits="userSpaceOnUse" x1="406.579" x2="413.831" xlink:href="#a" y1="171.125" y2="171.125"/><linearGradient id="bo" gradientUnits="userSpaceOnUse" x1="406.805" x2="418.119" xlink:href="#a" y1="176.289" y2="176.289"/><linearGradient id="bp" gradientUnits="userSpaceOnUse" x1="407.601" x2="423.089" xlink:href="#a" y1="181.886" y2="181.886"/><linearGradient id="bq" gradientUnits="userSpaceOnUse" x1="440.187" x2="440.695" xlink:href="#a" y1="200.98" y2="199.258"/><linearGradient id="br" gradientUnits="userSpaceOnUse" x1="446.752" x2="454.518" xlink:href="#a" y1="203.785" y2="203.785"/><linearGradient id="bs" gradientUnits="userSpaceOnUse" x1="438.853" x2="450.693" xlink:href="#a" y1="202.453" y2="202.453"/><linearGradient id="bt" gradientUnits="userSpaceOnUse" x1="430.883" x2="445.658" xlink:href="#a" y1="200.822" y2="200.822"/><linearGradient id="bu" gradientUnits="userSpaceOnUse" x1="408.098" x2="408.605" xlink:href="#a" y1="191.514" y2="189.792"/><linearGradient id="bv" gradientUnits="userSpaceOnUse" x1="394.226" x2="401.992" xlink:href="#a" y1="187.022" y2="187.022"/><linearGradient id="bw" gradientUnits="userSpaceOnUse" x1="398.053" x2="409.908" xlink:href="#a" y1="188.365" y2="188.365"/><linearGradient id="bx" gradientUnits="userSpaceOnUse" x1="403.09" x2="417.865" xlink:href="#a" y1="190.007" y2="190.007"/><linearGradient id="by" gradientUnits="userSpaceOnUse" x1="414.873" x2="424.356" xlink:href="#a" y1="227.504" y2="195.346"/><linearGradient id="bz" gradientUnits="userSpaceOnUse" x1="412.086" x2="419.909" xlink:href="#a" y1="221.667" y2="221.667"/><linearGradient id="bA" gradientUnits="userSpaceOnUse" x1="411.231" x2="423.413" xlink:href="#a" y1="215.801" y2="215.801"/><linearGradient id="bB" gradientUnits="userSpaceOnUse" x1="410.518" x2="427.417" xlink:href="#a" y1="209.308" y2="209.308"/><linearGradient id="bC" gradientUnits="userSpaceOnUse" x1="424.345" x2="433.827" xlink:href="#a" y1="195.382" y2="163.225"/><linearGradient id="bD" gradientUnits="userSpaceOnUse" x1="428.85" x2="436.658" xlink:href="#a" y1="169.141" y2="169.141"/><linearGradient id="bE" gradientUnits="userSpaceOnUse" x1="425.334" x2="437.516" xlink:href="#a" y1="175.016" y2="175.016"/><linearGradient id="bF" gradientUnits="userSpaceOnUse" x1="421.333" x2="438.232" xlink:href="#a" y1="181.516" y2="181.516"/><linearGradient id="bG" gradientUnits="userSpaceOnUse" x1=".439459" x2="11.3434" xlink:href="#a" y1="219.494" y2="219.494"/><linearGradient id="bH" gradientUnits="userSpaceOnUse" x1="916.177" x2="925.31" xlink:href="#a" y1="74.2474" y2="74.2474"/><linearGradient id="bI" gradientUnits="userSpaceOnUse" x1="939.997" x2="947.972" xlink:href="#a" y1="267.994" y2="267.994"/><linearGradient id="bJ" gradientUnits="userSpaceOnUse" x1="502.274" x2="512.005" xlink:href="#a" y1="180.743" y2="180.743"/><linearGradient id="bK" gradientUnits="userSpaceOnUse" x1="473.261" x2="482.973" xlink:href="#a" y1="136.176" y2="136.176"/><linearGradient id="bL" gradientUnits="userSpaceOnUse" x1="594.996" x2="606.383" xlink:href="#a" y1="146.698" y2="146.698"/><linearGradient id="bM" gradientUnits="userSpaceOnUse" x1="909.994" x2="929.017" xlink:href="#a" y1="104.022" y2="104.022"/><linearGradient id="bN" gradientUnits="userSpaceOnUse" x1="680.996" x2="693.098" xlink:href="#a" y1="178.058" y2="178.058"/><g opacity=".4"><path d="m716.391 118.824 10.963 10.897c.106.106.239.173.372.239l10.086 4.784 3.814 8.359c-.545.345-1.129.797-1.608 1.275l-.199.2c-.478.478-.917 1.063-1.223 1.648l-8.411-3.801-4.851-10.06c-.066-.133-.133-.279-.239-.372l-10.963-10.897c-.412-.412-1.024-.478-1.502-.199-.478.346-.678.89-.505 1.395l4.997 15.934-16.439 8.451c-.478.213-.744.758-.611 1.303.066.545.545.957 1.103.957l16.505 1.076c.199.066.412 0 .611-.066l10.91-5.303 8.385 3.774c-.305.784-.438 1.675-.465 2.525.04.851.173 1.675.492 2.459l-8.359 3.814-10.95-5.223c-.212-.066-.412-.133-.611-.066l-16.491 1.182c-.545 0-1.024.412-1.09.957-.133.545.146 1.09.624 1.302l16.492 8.359-4.904 15.973c-.172.505.08 1.09.519 1.396.478.265 1.089.199 1.501-.213l10.897-10.963c.106-.107.173-.24.239-.372l4.784-10.087 8.359-3.814c.345.545.784 1.13 1.276 1.595l.199.199c.478.479 1.063.917 1.648 1.223l-3.801 8.412-10.059 4.85c-.133.067-.28.133-.373.239l-10.896 10.964c-.412.412-.479 1.023-.2 1.501.346.479.891.678 1.396.505l15.946-4.996 8.452 16.438c.239.518.757.758 1.302.611.545-.066.957-.544.957-1.103l1.076-16.504c.067-.2 0-.412-.066-.612l-5.289-10.91 3.761-8.385c.784.306 1.674.438 2.525.465.85-.04 1.674-.173 2.458-.492l3.814 8.359-5.223 10.95c-.066.199-.132.412-.066.611l1.183 16.492c.04.585.412 1.023.957 1.09.544.132 1.089-.147 1.302-.625l8.345-16.492 15.973 4.904c.505.173 1.05-.04 1.396-.518.266-.479.199-1.09-.213-1.502l-10.963-10.897c-.106-.106-.239-.172-.372-.239l-10.086-4.784-3.814-8.359c.544-.345 1.129-.797 1.608-1.275l.199-.2c.478-.478.917-1.063 1.223-1.647l8.411 3.8 4.851 10.06c.066.133.133.279.239.372l10.963 10.897c.412.412 1.024.478 1.502.199.478-.345.678-.89.505-1.395l-4.997-15.947 16.439-8.452c.478-.212.744-.757.611-1.302-.04-.239-.146-.478-.306-.651-.173-.173-.478-.266-.784-.306l-16.505-1.076c-.199-.067-.412 0-.611.066l-10.91 5.289-8.385-3.76c.305-.784.438-1.675.465-2.525-.04-.851-.173-1.675-.492-2.459l8.359-3.814 10.95 5.223c.199.066.412.133.611.066l16.492-1.182c.544 0 1.023-.412 1.089-.957.133-.545-.106-1.063-.624-1.289l-16.492-8.346 4.904-15.973c.133-.412 0-.89-.306-1.196l-.199-.199c-.479-.266-1.09-.199-1.502.212l-10.897 10.964c-.106.106-.172.239-.239.372l-4.784 10.086-8.358 3.814c-.386-.585-.824-1.156-1.369-1.701l-.107-.106c-.478-.479-1.063-.917-1.647-1.223l3.8-8.412 10.06-4.85c.133-.067.279-.133.372-.239l10.897-10.964c.412-.412.478-1.023.199-1.501l-.199-.2c-.306-.305-.784-.438-1.196-.305l-15.933 4.996-8.452-16.438c-.067-.146-.106-.173-.239-.306-.519-.438-1.263-.505-1.741-.026-.266.279-.372.717-.306 1.129l-1.05 16.2c-.066.199 0 .411.067.611l5.289 10.91-3.761 8.385c-.784-.305-1.674-.438-2.525-.465-.85.04-1.674.173-2.458.492l-3.814-8.359 5.222-10.95c.067-.213.133-.412.067-.611l-1.183-16.492c-.04-.305-.133-.611-.306-.784 0 0-.022-.022-.066-.066-.452-.439-1.263-.439-1.741.04-.173.172-.266.412-.306.651l-8.186 16.186-15.973-4.904c-.505-.173-1.063.04-1.395.518-.266.479-.199 1.09.213 1.502zm-.492 7.415 7.362 7.322 3.508 7.296-7.255-3.256h-.067zm1.635 21.382-11.854-.824 13.262-6.764 7.429 3.296zm.013 6.698 8.864 4.239-7.402 3.335-13.303-6.684 11.854-.89zm5.82 14.019-7.322 7.362 3.482-11.388h.066l7.229-3.309-3.455 7.322zm-1.634 13.023 7.322-7.362 7.296-3.508-3.256 7.256v.066zm21.382-1.634-.824 11.853-6.764-13.262 3.282-7.428 4.292 8.837zm7.588 11.827-.891-11.854 4.239-8.863 3.336 7.401-6.684 13.303zm13.129-17.661 7.362 7.322-11.389-3.481v-.067l-3.309-7.229 7.323 3.455zm13.023 1.635-7.362-7.323-3.508-7.295 7.255 3.256h.067zm-1.635-21.382 11.854.81-13.262 6.764-7.415-3.295 8.837-4.293zm-.026-6.698-8.864-4.239 7.402-3.335 13.302 6.684-11.853.89zm-5.821-14.02 7.323-7.362-3.482 11.389h-.067l-7.229 3.309 3.469-7.322zm1.635-13.023-7.322 7.362-7.296 3.509 3.256-7.256v-.067zm-21.382 1.635.824-11.854 6.777 13.263-3.295 7.415-4.293-8.837zm-4.81 22.259c.478-.133.956-.213 1.461-.239.545 0 1.063.106 1.608.239.784.239 1.542.571 2.153 1.05.346.199.651.451.917.717l.199.199c.279.28.519.585.718.917.478.612.824 1.369 1.063 2.153.133.479.213.957.239 1.462 0 .545-.106 1.063-.239 1.608-.239.784-.571 1.541-1.05 2.153-.199.345-.438.651-.717.93l-.2.199c-.279.279-.571.519-.917.718-.611.478-1.368.824-2.152 1.063-.479.133-.957.213-1.462.239-.545 0-1.063-.106-1.608-.239-.784-.239-1.542-.571-2.153-1.05-.345-.199-.651-.438-.93-.717l-.2-.2c-.279-.266-.518-.584-.717-.917-.478-.611-.824-1.368-1.063-2.152-.133-.479-.213-.957-.239-1.476 0-.544.106-1.049.239-1.607.239-.785.571-1.542 1.05-2.153.212-.346.438-.651.717-.931l.2-.199c.279-.279.584-.518.916-.717.612-.479 1.369-.824 2.153-1.064zm-2.765-34.086.891 11.853-4.239 8.864-3.336-7.402 6.684-13.302zm-9.116 13.82v.067l3.309 7.229-7.322-3.469-7.362-7.322 11.389 3.482z" fill="url(#b)"/><path d="m712.191 135.555-1.156-3.987c-.066-.199-.172-.385-.305-.518-.306-.293-.758-.425-1.183-.306-.638.186-1.01.851-.824 1.488l.851 2.964-3.004 1.302c-.611.266-.89.97-.638 1.582.266.611.971.903 1.582.637l3.986-1.714c.559-.239.851-.864.678-1.448z" fill="url(#c)"/><path d="m734.224 189.72-1.714-3.987c-.067-.146-.146-.265-.253-.385-.305-.306-.757-.425-1.182-.306l-3.987 1.143c-.638.186-1.01.851-.824 1.489.186.637.851 1.009 1.489.823l2.963-.863 1.302 3.003c.266.611.97.904 1.582.638.611-.266.89-.97.624-1.582z" fill="url(#d)"/><path d="m780.563 166.186 1.156 3.986c.186.638.85 1.023 1.488.824.638-.186 1.01-.85.824-1.488l-.851-2.964 3.004-1.289c.611-.265.903-.983.638-1.581-.067-.146-.16-.279-.266-.385-.346-.333-.864-.452-1.329-.253l-3.987 1.714c-.558.24-.85.864-.677 1.449z" fill="url(#e)"/><path d="m758.529 112.02 1.715 3.987c.239.571.864.85 1.448.678l3.987-1.143c.638-.186 1.01-.851.824-1.502-.053-.199-.16-.385-.306-.518-.292-.293-.757-.425-1.183-.306l-2.963.851-1.289-3.004c-.266-.611-.97-.903-1.581-.637-.612.265-.891.97-.638 1.581z" fill="url(#f)"/><path d="m726.862 115.648 3.987 1.13c.585.172 1.196-.133 1.435-.691l1.688-3.987c.199-.465.079-.984-.266-1.329-.106-.106-.239-.199-.385-.253-.612-.265-1.316.027-1.582.638l-1.276 3.004-2.963-.838c-.638-.186-1.316.186-1.488.838-.186.637.199 1.302.837 1.488z" fill="url(#g)"/><path d="m712.284 166.398c.12-.438 0-.877-.305-1.183-.107-.106-.226-.186-.386-.252l-3.986-1.688c-.612-.265-1.316.027-1.582.638-.265.611.027 1.329.638 1.582l3.003 1.275-.837 2.964c-.186.638.2 1.302.837 1.488.638.186 1.316-.199 1.489-.837z" fill="url(#h)"/><path d="m766.41 186.398c-.146-.146-.319-.253-.532-.306l-3.986-1.129c-.585-.16-1.196.132-1.435.691l-1.688 3.986c-.266.612.026 1.329.638 1.582.611.265 1.315-.027 1.581-.638l1.276-3.017 2.963.837c.638.186 1.303-.186 1.489-.837.119-.438 0-.89-.306-1.182z" fill="url(#i)"/><path d="m780.469 135.355c-.159.585.133 1.196.691 1.436l3.987 1.687c.611.266 1.329-.026 1.581-.638.266-.611-.026-1.315-.637-1.581l-3.017-1.276.837-2.963c.12-.439 0-.89-.305-1.183-.147-.146-.319-.252-.532-.305-.638-.187-1.316.199-1.488.837l-1.13 3.986z" fill="url(#j)"/><path d="m878.977 61.4836-21.403 25.2819 1.359 1.1502 21.402-25.282z" fill="url(#k)"/><path d="m873.1 69.6666.991-7.4324 1.762.2386-.624 4.7164 4.459-1.3214.496 1.7067z" fill="url(#l)"/><path d="m867.833 75.888 1.542-11.58 1.761.2386-1.174 8.8639 8.405-2.4958.514 1.7067z" fill="url(#m)"/><path d="m862.53 82.1642 1.192-14.8098 1.781.1285-1.01 12.369 12.076-2.9362.422 1.725z" fill="url(#n)"/><path d="m857.518 86.7364-21.403 25.2816 1.359 1.15 21.403-25.2814z" fill="url(#o)"/><path d="m840.544 112.096.624-4.717-4.459 1.322-.496-1.707 7.084-2.092-.991 7.432z" fill="url(#p)"/><path d="m845.261 110.022 1.174-8.864-8.405 2.496-.514-1.707 11.048-3.2664-1.542 11.5804z" fill="url(#q)"/><path d="m850.894 107.086 1.01-12.3692-12.076 2.9363-.422-1.7251 14.461-3.5051-1.192 14.7911z" fill="url(#r)"/><path d="m858.803 86.6251-1.15 1.3586 25.282 21.4023 1.15-1.358z" fill="url(#s)"/><path d="m877.908 109.27-2.092-7.084 7.433.991-.239 1.762-4.716-.624 1.321 4.459z" fill="url(#t)"/><path d="m872.862 107.967-3.267-11.0479 11.58 1.5415-.239 1.7614-8.864-1.1741 2.496 8.4051z" fill="url(#u)"/><path d="m866.842 106.076-3.505-14.4608 14.792 1.1929-.129 1.7801-12.369-1.0093 2.936 12.0751z" fill="url(#v)"/><path d="m833.514 65.2216-1.15 1.3587 25.281 21.4027 1.151-1.3587z" fill="url(#w)"/><path d="m833.148 71.3919.239-1.7618 4.716.624-1.321-4.4595 1.707-.4955 2.092 7.0838z" fill="url(#x)"/><path d="m835.222 76.1081.239-1.7618 8.864 1.1746-2.496-8.4051 1.707-.5139 3.266 11.0478z" fill="url(#y)"/><path d="m838.269 81.7606.128-1.7801 12.369 1.0093-2.936-12.0754 1.725-.4221 3.505 14.4611z" fill="url(#z)"/><path d="m891.126 83.7326-33.011 2.743.148 1.774 33.011-2.743z" fill="url(#A)"/><path d="m881.193 85.3574 5.946-4.5329 1.083 1.3948-3.78 2.8995 4.092 2.2206-.844 1.5599z" fill="url(#B)"/><path d="m873.082 86.0365 9.267-7.0837 1.083 1.3947-7.102 5.4321 7.708 4.2025-.844 1.5599z" fill="url(#C)"/><path d="m864.897 86.7154 11.304-9.6163 1.157 1.3397-9.452 8.038 10.626 6.4598-.936 1.5232z" fill="url(#D)"/><path d="m858.121 86.3652-33.011 2.743.148 1.7739 33.011-2.743z" fill="url(#E)"/><path d="m829.258 93.7623-1.083-1.413 3.762-2.8996-4.074-2.2206.844-1.5598 6.497 3.5418z" fill="url(#F)"/><path d="m834.048 95.6159-1.083-1.3948 7.102-5.4321-7.708-4.2025.844-1.5599 10.112 5.5055z" fill="url(#G)"/><path d="m840.195 97.4695-1.156-1.3397 9.451-8.038-10.625-6.4598.936-1.5232 12.699 7.7444z" fill="url(#H)"/><path d="m859.079 87.2306-1.774.1474 2.743 33.011 1.774-.147z" fill="url(#I)"/><path d="m856.584 116.775 3.542-6.478 4.551 5.928-1.413 1.083-2.9-3.762-2.22 4.074z" fill="url(#J)"/><path d="m853.941 112.279 5.505-10.111 7.084 9.267-1.395 1.083-5.432-7.102-4.202 7.708z" fill="url(#K)"/><path d="m851.023 106.682 7.744-12.6994 9.617 11.3044-1.34 1.156-8.038-9.4507-6.46 10.6257z" fill="url(#L)"/><path d="m856.336 54.2256-1.774.1474 2.743 33.011 1.774-.1474z" fill="url(#M)"/><path d="m856.272 64.2896-4.552-5.9459 1.414-1.0828 2.899 3.7805 2.221-4.0924 1.56.8442z" fill="url(#N)"/><path d="m856.951 72.4012-7.084-9.2677 1.395-1.0827 5.432 7.1021 4.202-7.7077 1.56.8442z" fill="url(#O)"/><path d="m857.63 80.586-9.617-11.3046 1.34-1.1562 8.038 9.4511 6.46-10.6256 1.523.9359z" fill="url(#P)"/><path d="m883.005 213.242-.433 1.21 22.635 8.1.433-1.209z" fill="url(#Q)"/><path d="m898.567 219.491 5.286-1.23.293 1.266-3.358.771 2.037 2.698-1.028.771z" fill="url(#R)"/><path d="m892.988 217.49 8.259-1.89.293 1.248-6.331 1.45 3.835 5.083-1.027.789z" fill="url(#S)"/><path d="m887.373 215.49 10.368-2.973.367 1.248-8.662 2.477 5.084 7.451-1.065.716z" fill="url(#T)"/><path d="m860.433 205.209-.433 1.21 22.635 8.1.433-1.21z" fill="url(#U)"/><path d="m861.423 208.186 3.359-.789-2.037-2.698 1.027-.771 3.23 4.276-5.285 1.23z" fill="url(#V)"/><path d="m864.029 210.847 6.332-1.45-3.836-5.083 1.028-.771 5.028 6.662-8.258 1.908z" fill="url(#W)"/><path d="m867.479 213.93 8.644-2.459-5.065-7.469 1.064-.716 6.075 8.919-10.369 2.973z" fill="url(#X)"/><path d="m882.181 213.657-8.1 22.635 1.21.433 8.1-22.635z" fill="url(#Y)"/><path d="m872.875 232.851 4.276-3.212 1.211 5.285-1.248.294-.771-3.358-2.698 2.018z" fill="url(#Z)"/><path d="m872.471 229.088 6.661-5.028 1.909 8.258-1.248.294-1.468-6.331-5.083 3.835z" fill="url(#aa)"/><path d="m872.214 224.519 8.937-6.075 2.955 10.369-1.23.349-2.477-8.644-7.451 5.065z" fill="url(#ab)"/><path d="m890.294 191-8.101 22.635 1.21.433 8.1-22.635z" fill="url(#ac)"/><path d="m887.208 192.771 1.247-.276.771 3.359 2.698-2.037.789 1.027-4.294 3.23z" fill="url(#ad)"/><path d="m884.528 195.376 1.248-.275 1.468 6.313 5.083-3.835.771 1.027-6.661 5.029z" fill="url(#ae)"/><path d="m881.463 198.882 1.23-.349 2.477 8.662 7.451-5.083.734 1.064-8.937 6.074z" fill="url(#af)"/><path d="m883.359 213.556-1.161.549 10.278 21.733 1.161-.549z" fill="url(#ag)"/><path d="m889.96 228.997 4.607 2.881-.679 1.083-2.937-1.817-.459 3.34-1.284-.184z" fill="url(#ah)"/><path d="m887.428 223.656 7.175 4.478-.679 1.101-5.506-3.45-.88 6.313-1.267-.183z" fill="url(#ai)"/><path d="m884.877 218.261 9.433 5.23-.643 1.12-7.854-4.368-1.689 8.864-1.266-.239z" fill="url(#aj)"/><path d="m873.086 191.867-1.162.549 10.278 21.733 1.161-.549z" fill="url(#ak)"/><path d="m871.003 195.817.697-1.083 2.918 1.835.459-3.358 1.285.183-.753 5.304z" fill="url(#al)"/><path d="m870.966 199.561.679-1.083 5.506 3.432.881-6.313 1.266.183-1.156 8.277z" fill="url(#am)"/><path d="m871.278 204.204.624-1.12 7.855 4.368 1.688-8.864 1.266.239-2.018 10.625z" fill="url(#an)"/><path d="m882.513 213.302-21.733 10.278.549 1.161 21.733-10.278z" fill="url(#ao)"/><path d="m862.323 220.28 5.321.734-2.881 4.606-1.101-.679 1.835-2.918-3.34-.477z" fill="url(#ap)"/><path d="m864.727 217.325 8.258 1.175-4.496 7.175-1.083-.679 3.432-5.505-6.295-.881z" fill="url(#aq)"/><path d="m867.773 213.93 10.607 2-5.23 9.433-1.138-.624 4.386-7.873-8.863-1.67z" fill="url(#ar)"/><path d="m904.24 203.017-21.733 10.278.55 1.161 21.733-10.278z" fill="url(#as)"/><path d="m897.925 206.681 2.881-4.606 1.101.679-1.835 2.936 3.34.459-.165 1.284z" fill="url(#at)"/><path d="m892.585 209.214 4.496-7.194 1.082.697-3.431 5.487 6.294.881-.165 1.285z" fill="url(#au)"/><path d="m887.189 211.764 5.231-9.432 1.137.624-4.367 7.872 8.845 1.689-.238 1.266z" fill="url(#av)"/><path d="m992.548 173.993-1.073 4.044 75.475 20.013 1.08-4.045z" fill="url(#aw)"/><path d="m917.072 153.976-1.072 4.044 75.478 20.013 1.073-4.044z" fill="url(#ax)"/><path d="m921.351 163.52 10.662-3.431-7.304-8.167 3.102-2.789 11.617 12.956-16.792 5.414z" fill="url(#ay)"/><path d="m930.527 171.467 20.058-6.46-13.8-15.397 3.12-2.79 18.094 20.206-26.188 8.405z" fill="url(#az)"/><path d="m942.511 180.496 27.325-10.369-18.461-22.738 3.229-2.624 22.114 27.216-32.721 12.424z" fill="url(#aA)"/><path d="m989.989 175.457-20.013 75.478 4.045 1.072 20.012-75.478z" fill="url(#aB)"/><path d="m965.138 240.23 12.975-11.616 5.395 16.81-3.982 1.266-3.432-10.662-8.166 7.322z" fill="url(#aC)"/><path d="m962.826 228.155 20.205-18.095 8.424 26.188-3.983 1.285-6.459-20.059-15.398 13.782z" fill="url(#aD)"/><path d="m960.771 213.437 27.215-22.114 12.424 32.74-3.909 1.486-10.368-27.325-22.738 18.461z" fill="url(#aE)"/><path d="m1009.99 100-20.015 75.479 4.044 1.072 20.011-75.478z" fill="url(#aF)"/><path d="m1000.56 106.63 3.98-1.284 3.43 10.662 8.17-7.322 2.79 3.119-12.98 11.617z" fill="url(#aG)"/><path d="m992.611 115.806 3.982-1.284 6.437 20.058 15.4-13.801 2.79 3.12-20.19 18.095z" fill="url(#aH)"/><path d="m983.655 127.992 3.909-1.487 10.369 27.326 22.717-18.462 2.64 3.23-27.211 22.114z" fill="url(#aI)"/><path d="m993.838 174.954-3.618 2.102 39.22 67.522 3.62-2.101z" fill="url(#aJ)"/><path d="m999.988 189.708 31.952 14.351-1.73 3.818-26.66-11.984-3.01 29.124-4.149-.422z" fill="url(#aK)"/><path d="m954.607 107.421-3.618 2.102 39.22 67.522 3.618-2.102z" fill="url(#aL)"/><path d="m948.989 120.926 1.908-3.725 9.965 5.12.606-10.956 4.166.239-.954 17.379z" fill="url(#aM)"/><path d="m949.851 133.02 1.909-3.707 18.755 9.616 1.12-20.645 4.184.238-1.487 27.069z" fill="url(#aN)"/><path d="m952.127 147.977 1.725-3.818 26.647 12.002 3.028-29.142 4.147.44-3.597 34.887z" fill="url(#aO)"/><path d="m990.964 174.19-67.522 39.22 2.101 3.618 67.523-39.22z" fill="url(#aP)"/><path d="m927.609 202.407 17.379.955-8.056 15.709-3.726-1.909 5.12-9.965-10.937-.605z" fill="url(#aQ)"/><path d="m934.528 192.241 27.068 1.486-12.571 24.463-3.707-1.909 9.617-18.737-20.628-1.138z" fill="url(#aR)"/><path d="m943.465 180.367 34.887 3.616-14.37 31.932-3.799-1.707 11.984-26.665-29.124-3.01z" fill="url(#aS)"/><path d="m1058.49 134.968-67.518 39.22 2.102 3.619 67.526-39.221z" fill="url(#aT)"/><path d="m938.67 46.5803 15.581-.8992c.147 0 .293-.0551.422-.1285l10.387-4.3677 8.846 2.7527c-.111.6424-.166 1.3764-.129 2.0554v.2937c.055.679.202 1.413.422 2.037l-8.515 3.7621-10.827-3.1381c-.147-.0367-.294-.0734-.441-.0734l-15.58.8992c-.588.0367-1.047.4588-1.157.991-.055.5872.22 1.1194.716 1.3213l15.342 6.9737-4.716 18.0397c-.165.4955.055 1.0644.569 1.3396.458.312 1.082.2386 1.449-.1835l11.929-11.6717c.183-.1101.275-.3119.367-.5138l3.377-11.7634 8.478-3.7621c.386.7524.954 1.4681 1.578 2.0553.661.5506 1.377.991 2.184 1.2847l-2.752 8.8455-11.305 4.698c-.184.1101-.386.2202-.459.4221l-10.222 13.1949c-.367.4221-.385 1.046 0 1.4681.312.4772.918.624 1.395.4037l17.379-6.7717 8.699 14.4428c.275.4771.862.679 1.394.5505.533-.1835.881-.679.863-1.2663l-.899-15.5806c0-.1468-.074-.2936-.129-.4404l-4.368-10.3871 2.753-8.8455c.643.1101 1.377.1652 2.056.1285h.293c.679-.0551 1.413-.2019 2.037-.4221l3.762 8.5152-3.138 10.8275c-.036.1468-.073.2936-.073.4404l.899 15.5806c.037.5873.459 1.0461.991 1.1562.587.055 1.101-.2019 1.321-.7157l6.974-15.3421 18.037 4.7164c.55.1652 1.07-.055 1.34-.5689.31-.4588.24-1.0827-.18-1.4498l-11.67-11.9286c-.11-.1835-.31-.2752-.52-.367l-11.76-3.3767-3.762-8.4785c.752-.3854 1.45-.9543 2.055-1.5782.551-.6607.991-1.3764 1.285-2.1839l8.842 2.7528 4.7 11.3046c.11.1835.22.3854.42.4588l13.2 10.2219c.46.367 1.04.3854 1.47 0 .47-.312.62-.9176.4-1.3947l-6.77-17.3791 14.44-8.6987c.48-.2753.68-.8258.55-1.3947-.18-.5322-.68-.8809-1.26-.8625l-15.58.8992c-.15 0-.3.0734-.43.1285l-10.38 4.3677-8.85-2.7528c.11-.6423.165-1.3764.129-2.0554v-.2936c-.055-.679-.202-1.4131-.422-2.037l8.513-3.7621 10.83 3.1381c.15.0367.29.0734.44.0734l15.58-.8992c.59-.0367 1.05-.4588 1.16-.991.05-.5873-.22-1.1195-.72-1.3213l-15.34-6.9737 4.72-18.0397c.16-.4955-.06-1.0644-.57-1.3397-.21-.1284-.46-.2202-.7-.2018-.24 0-.53.1835-.75.3854l-11.93 11.6716c-.19.1101-.28.312-.37.5139l-3.376 11.7634-8.478 3.7621c-.386-.7524-.955-1.4498-1.579-2.0554-.66-.5505-1.376-.991-2.165-1.2846l2.753-8.8455 11.305-4.698c.18-.1102.38-.2203.46-.4221l10.22-13.1949c.37-.40374.39-1.04605 0-1.46814-.31-.45879-.86-.62395-1.39-.40373l-17.384 6.77177-8.698-14.44278c-.221-.367034-.661-.6056084-1.102-.56890499h-.293c-.532.20186899-.881.69736599-.863 1.28461499l.9 15.58057c0 .1468.073.2936.128.4221l4.368 10.3871-2.753 8.8455c-.697-.1101-1.431-.1652-2.202-.1101h-.147c-.679.055-1.413.1835-2.037.4221l-3.762-8.5152 3.138-10.8275c.037-.1468.073-.2937.073-.4405l-.899-15.58055c-.037-.587255-.459-1.046043-.991-1.156153h-.294c-.44.036704-.862.311978-1.027.715713l-6.974 15.34199-18.04-4.7164c-.146-.0367-.201-.0367-.385-.0367-.679.0918-1.23.6056-1.193 1.2847.019.3853.294.7707.643.9909l11.469 11.6901c.11.1835.312.2752.514.367l11.764 3.3767 3.762 8.4785c-.753.3854-1.45.9543-2.056 1.5782-.55.6607-.991 1.3764-1.284 2.1839l-8.846-2.7528-4.698-11.3046c-.11-.1835-.22-.3854-.422-.4588l-13.195-10.2219c-.257-.1835-.55-.312-.807-.2936 0 0-.031 0-.092 0-.624.0367-1.175.6606-1.138 1.3397 0 .2385.129.4771.275.6606l6.644 17.0487-14.443 8.6987c-.477.2753-.679.8259-.551 1.3948.184.5322.679.8809 1.267.8625zm5.249 5.3587 10.46-.6056 7.855 2.2756-7.322 3.2482-.055.0551zm17.177 13.1581-8.607 8.3684 3.854-14.5345 7.469-3.3584zm5.047 4.4962 9.157-3.7988-2.477 7.7995-13.984 5.5055zm14.461 5.0651.606 10.4604-6.203-10.2769.036-.0551 2.386-7.6526zm8.68 10.0016-.605-10.4604 2.275-7.8545 3.249 7.3223.055.0551-4.992 10.9375zm13.156-17.1588 8.35 8.5886-14.532-3.8538-3.358-7.4692 9.52 2.7161zm14 2.2573-9.5-7.304-3.8-9.1575 7.82 2.4775 5.5 13.984zm-4.44-21.7651 10.46-.6056-10.27 6.2028-.06-.0367-7.65-2.3857zm10.01-8.6804-10.47.6056-7.85-2.2756 7.32-3.2666.06-.055zm-17.16-13.1581 8.59-8.35-3.86 14.5345-7.47 3.3583 2.72-9.5245zm-5.05-4.4962-9.158 3.7988 2.478-7.8178 13.98-5.4872zm-14.461-5.0651-.606-10.46042 6.203 10.27692-.037.0551-2.386 7.6526zm-8.681-10.00163.606 10.46043-2.276 7.8546-3.266-7.3407-.055-.0551 4.973-10.93758zm-13.158 17.17723-8.35-8.5886 14.535 3.8538 3.358 7.4691-9.525-2.716zm13.489 18.6086c.22-.4588.477-.8626.807-1.2663.367-.4037.789-.7341 1.248-1.0461.716-.4404 1.468-.7707 2.239-.9175.385-.1101.771-.1836 1.156-.2019h.294c.385-.0367.789 0 1.174.0551.789.055 1.578.2936 2.331.6423.459.2202.862.4954 1.266.8074.404.3671.734.7892 1.046 1.2479.441.7158.771 1.4682.918 2.2389.128.3854.183.7708.22 1.1562v.2936c.037.3854 0 .7892-.055 1.1745-.055.7892-.294 1.5783-.642 2.3307-.221.4588-.478.8625-.808 1.2663-.367.4037-.789.734-1.248 1.046-.715.4405-1.468.7708-2.239.9176-.385.1101-.77.1835-1.156.2202h-.293c-.386.0367-.79 0-1.175-.055-.789-.0551-1.578-.2937-2.331-.6423-.458-.2203-.862-.4772-1.266-.8075-.404-.367-.734-.7891-1.046-1.2479-.44-.7157-.771-1.4682-.918-2.2389-.11-.3854-.183-.7708-.22-1.1562v-.2936c-.036-.3854 0-.7891.055-1.1745.055-.7891.294-1.5783.643-2.3307zm-27.473-20.8659 9.506 7.304 3.799 9.1575-7.818-2.4775zm4.258 16.1678.055.0367 7.652 2.3858-7.524 3.1748-10.46.6056z" fill="url(#aU)"/><path d="m948.415 61.0047-3.762-1.8168c-.202-.0917-.404-.1285-.606-.1285-.422.0184-.826.2753-1.028.6791-.293.6056-.036 1.3396.569 1.6333l2.808 1.358-1.046 3.1381c-.22.6423.129 1.3397.771 1.5416.642.2202 1.34-.1285 1.541-.7708l1.395-4.1475c.202-.5872-.073-1.2112-.624-1.4865z" fill="url(#aV)"/><path d="m1003.97 80.9164-4.152-1.3947c-.147-.0551-.312-.0735-.459-.0551-.422.0184-.825.2753-1.027.679l-1.817 3.7621c-.294.6056-.037 1.3397.569 1.6333.605.2936 1.339.0367 1.633-.5689l1.363-2.8078 3.13 1.046c.65.2203 1.34-.1284 1.54-.7707.23-.6423-.12-1.3214-.77-1.5416z" fill="url(#aW)"/><path d="m961.94 10.3358 4.148 1.3947c.587.2019 1.229-.0734 1.486-.6239l1.817-3.76214c.294-.6056.037-1.33967-.569-1.6333-.202-.09175-.404-.12846-.606-.12846-.422.01835-.825.27528-1.027.67901l-1.358 2.80782-3.12-1.04606c-.642-.22022-1.321.12847-1.542.77078-.22.64231.129 1.33965.771 1.54155z" fill="url(#aX)"/><path d="m943.35 36.5786 3.523-2.2389c.514-.3303.716-.991.459-1.5415l-1.853-3.964c-.22-.4588-.698-.7157-1.175-.6974-.147 0-.312.0368-.44.1102-.606.2936-.863 1.0093-.587 1.6149l1.394 2.9913-2.624 1.67c-.569.3671-.734 1.1195-.367 1.6884s1.119.7341 1.688.367z" fill="url(#aY)"/><path d="m971.667 81.7055c-.239-.3854-.661-.5873-1.101-.5689-.147 0-.294.0367-.441.1101l-3.964 1.8535c-.606.2936-.862 1.0094-.587 1.615.293.6056 1.009.8808 1.615.5872l2.991-1.3947 1.67 2.6243c.349.5689 1.12.734 1.688.367.569-.367.735-1.1194.368-1.6883l-2.239-3.5236z" fill="url(#aZ)"/><path d="m994.239 9.54669c.331.51381.991.71571 1.542.45881l3.964-1.85353c.605-.29363.865-1.00935.585-1.61496-.29-.6056-1.007-.86252-1.613-.58725l-2.991 1.39473-1.67-2.6243c-.239-.38538-.679-.58725-1.101-.56889-.202 0-.404.0734-.588.18351-.569.36703-.734 1.11946-.367 1.68836z" fill="url(#a0)"/><path d="m500.754 119.783 7.242.614s.132 0 .205-.03l5.081-1.328 3.899 1.854c-.088.292-.161.628-.19.949v.132c-.044.321-.014.657.044.963l-4.176 1.183-4.79-2.161s-.131-.058-.204-.058l-7.243-.614c-.277-.029-.511.146-.598.38-.073.263.029.526.233.657l6.615 4.235-3.359 8.016c-.116.219-.043.497.176.657.189.175.482.175.686 0l6.264-4.599c.088-.044.146-.132.205-.205l2.321-5.213 4.162-1.183c.131.38.35.731.599 1.052.277.292.569.555.92.744l-1.855 3.899-5.519 1.431c-.088.044-.19.073-.249.161l-5.578 5.403c-.189.16-.248.452-.102.671.117.234.38.351.613.278l8.47-1.972 3.066 7.229c.088.233.35.365.613.35.249-.044.453-.263.482-.526l.613-7.242s0-.132-.029-.205l-1.329-5.081 1.855-3.899c.292.088.628.161.934.19h.132c.321.044.657.014.964-.044l1.168 4.176-2.161 4.79s-.059.131-.059.204l-.613 7.243c-.029.277.146.511.38.598.262.073.525-.029.657-.233l4.234-6.615 8.017 3.359c.248.116.496.043.657-.176.175-.19.175-.482 0-.686l-4.6-6.264c-.043-.088-.131-.146-.204-.205l-5.198-2.321-1.183-4.162c.379-.131.73-.351 1.051-.599.292-.277.555-.569.745-.92l3.899 1.855 1.431 5.519c.043.088.073.19.16.249l5.403 5.578c.19.204.453.248.672.102.233-.117.35-.38.277-.613l-1.971-8.455 7.228-3.067c.234-.087.365-.335.35-.613-.043-.248-.262-.452-.525-.482l-7.243-.613s-.131 0-.204.029l-5.082 1.329-3.899-1.854c.088-.292.161-.628.19-.95v-.131c.044-.321.015-.657-.044-.964l4.177-1.182 4.789 2.161s.131.058.204.058l7.243.613c.278.03.511-.146.599-.379.073-.263-.029-.526-.234-.657l-6.615-4.235 3.359-8.017c.102-.219.044-.496-.175-.657-.088-.073-.19-.131-.307-.131s-.248.044-.38.131l-6.264 4.6c-.088.044-.146.117-.204.204l-2.322 5.199-4.162 1.183c-.131-.38-.35-.731-.598-1.052-.278-.292-.57-.555-.92-.745l1.854-3.898 5.52-1.431c.087-.044.19-.073.248-.161l5.578-5.417c.19-.161.248-.453.102-.672-.117-.234-.365-.35-.613-.277l-8.455 1.971-3.066-7.228c-.073-.19-.263-.321-.467-.336h-.132c-.248.044-.453.248-.482.526l-.613 7.242s0 .132.029.205l1.329 5.081-1.854 3.899c-.307-.088-.643-.161-1.008-.204h-.073c-.321-.03-.657-.015-.964.043l-1.183-4.176 2.162-4.789s.058-.132.058-.205l.613-7.242c.029-.278-.146-.511-.379-.599h-.132c-.204-.029-.423.073-.525.248l-4.22 6.615-8.017-3.359s-.088-.029-.175-.043c-.321 0-.614.204-.643.511-.014.175.088.365.234.496l4.527 6.148c.043.087.116.146.204.204l5.198 2.322 1.183 4.161c-.38.132-.73.351-1.051.599-.292.278-.555.57-.745.92l-3.899-1.854-1.431-5.52c-.044-.102-.073-.19-.16-.248l-5.418-5.578c-.102-.102-.233-.175-.35-.19 0 0-.015 0-.044 0-.292-.029-.584.219-.613.54 0 .117.029.234.087.321l1.942 8.294-7.228 3.067c-.233.087-.365.336-.35.613.044.248.263.453.526.482zm2.059 2.818 4.862.409 3.475 1.563-3.592 1.022h-.029zm7.052 7.199-4.512 3.286 2.731-6.454 3.665-1.066-1.884 4.22zm2.03 2.41 4.468-1.154-1.65 3.432-6.819 1.62zm6.337 3.285-.409 4.863-2.19-5.155h.029l1.607-3.402.963 3.679zm3.344 5.184.409-4.863 1.562-3.475 1.023 3.592v.029zm7.199-7.053 3.285 4.512-6.454-2.731-1.066-3.665 4.22 1.884zm6.308 1.971-3.899-4.001-1.153-4.468 3.431 1.665 1.621 6.819zm-.613-10.323 4.862.408-5.154 2.191v-.029l-3.403-1.607 3.68-.963zm5.184-3.344-4.863-.409-3.475-1.563 3.592-1.022h.029zm-7.053-7.199 4.512-3.286-2.731 6.455-3.665 1.051zm-2.03-2.409-4.468 1.153 1.664-3.431 6.82-1.621-4.001 3.899zm-6.337-3.286.409-4.862 2.19 5.154h-.029l-1.607 3.402-.963-3.679zm-3.344-5.184-.409 4.863-1.562 3.475-1.023-3.592v-.029zm-7.199 7.053-3.285-4.512 6.454 2.731 1.066 3.665-4.22-1.884zm4.994 9.462c.131-.19.277-.365.453-.525.189-.161.408-.278.642-.395.351-.146.73-.262 1.095-.277.19-.029.365-.029.555-.015h.132c.175.03.365.059.54.117.365.073.715.248 1.037.453.189.131.365.277.525.452.161.19.278.409.395.643.146.35.262.73.277 1.095.029.19.044.365.029.555v.131c-.029.176-.058.365-.131.541-.073.365-.248.701-.453 1.036-.131.19-.277.366-.453.526-.189.161-.408.278-.642.394-.351.146-.73.263-1.095.278-.19.029-.365.044-.555.014h-.132c-.175-.029-.365-.058-.54-.131-.365-.073-.715-.248-1.037-.453-.189-.131-.365-.277-.525-.452-.161-.19-.278-.409-.394-.643-.146-.35-.263-.73-.278-1.095-.029-.19-.044-.365-.015-.555v-.131c.03-.175.059-.365.132-.541.073-.365.248-.715.453-1.036zm-11.302-11.433 3.899 4.001 1.153 4.468-3.431-1.65zm.905 7.739v.029l3.403 1.606-3.68.964-4.863-.409 5.155-2.19z" fill="url(#a1)"/><path d="m504.302 127.084-1.621-1.08c-.088-.059-.175-.088-.263-.103-.204-.014-.394.073-.526.249-.175.262-.102.613.161.788l1.197.803-.686 1.373c-.146.277-.029.628.248.759.278.146.628.029.76-.248l.92-1.825c.131-.263.043-.57-.19-.73z" fill="url(#a2)"/><path d="m528.6 139.934-1.826-.92s-.131-.058-.204-.058c-.205-.015-.394.073-.526.248l-1.08 1.621c-.176.263-.103.613.16.788.263.176.614.103.789-.16l.803-1.198 1.373.687c.277.146.627.029.759-.249.146-.277.029-.628-.248-.759z" fill="url(#a3)"/><path d="m538.179 117.447 1.621 1.08c.262.176.613.103.788-.16s.102-.613-.161-.789l-1.197-.803.686-1.372c.146-.278.03-.628-.248-.76-.073-.029-.131-.058-.204-.058-.219-.015-.453.102-.555.307l-.92 1.825c-.132.263-.044.569.19.73z" fill="url(#a4)"/><path d="m513.866 104.612 1.826.92c.263.131.569.043.73-.19l1.08-1.621c.176-.263.103-.613-.16-.789-.088-.058-.176-.087-.263-.102-.205-.014-.394.073-.511.248l-.803 1.198-1.373-.686c-.277-.146-.628-.03-.759.248-.146.277-.029.628.248.759z" fill="url(#a5)"/><path d="m503.572 115.49 1.781-.803c.263-.117.394-.409.307-.686l-.599-1.942c-.073-.234-.277-.38-.496-.395-.073 0-.146 0-.219.03-.292.087-.468.409-.38.715l.453 1.475-1.314.599c-.293.131-.409.467-.278.744.131.292.467.409.745.278z" fill="url(#a6)"/><path d="m513.662 138.167c-.088-.19-.263-.321-.467-.336-.073 0-.146 0-.219.03l-1.942.598c-.293.088-.468.409-.38.701.087.307.409.467.715.38l1.475-.453.599 1.329c.131.292.467.409.745.277.292-.131.408-.467.277-.744z" fill="url(#a7)"/><path d="m539.186 128.997c-.087 0-.189 0-.277.044l-1.782.803c-.262.117-.394.409-.306.686l.599 1.942c.087.307.408.468.715.38.292-.088.467-.409.38-.715l-.453-1.475 1.314-.599c.292-.131.409-.467.278-.745-.088-.189-.278-.321-.468-.335z" fill="url(#a8)"/><path d="m528.819 106.378c.117.263.409.395.686.307l1.942-.599c.292-.087.468-.408.38-.715s-.409-.467-.716-.38l-1.474.453-.599-1.314c-.088-.19-.278-.322-.467-.336-.088 0-.19 0-.278.044-.292.131-.409.467-.277.744l.803 1.782z" fill="url(#a9)"/><path d="m453.35 178.585-29.408 16.014.858 1.574 29.407-16.013z" fill="url(#ba)"/><path d="m444.862 184.23 3.629-6.631 1.58.868-2.32 4.212 4.696.384-.156 1.779z" fill="url(#bb)"/><path d="m437.619 188.172 5.678-10.346 1.58.868-4.355 7.913 8.837.74-.142 1.778z" fill="url(#bc)"/><path d="m430.333 192.142 6.532-13.519 1.608.783-5.451 11.285 12.452 1.636-.227 1.779z" fill="url(#bd)"/><path d="m423.943 194.595-29.408 16.014.858 1.575 29.407-16.014z" fill="url(#be)"/><path d="m398.669 212.336 2.319-4.212-4.696-.385.157-1.793 7.442.612-3.643 6.632z" fill="url(#bf)"/><path d="m403.877 212.094 4.341-7.912-8.838-.726.157-1.793 11.584.953-5.678 10.346z" fill="url(#bg)"/><path d="m410.267 211.382 5.45-11.285-12.452-1.636.242-1.779 14.9 1.964-6.532 13.519z" fill="url(#bh)"/><path d="m425.164 194.934-1.575.857 16.014 29.408 1.575-.858z" fill="url(#bi)"/><path d="m434.915 223.322.626-7.443 6.631 3.643-.868 1.566-4.212-2.306-.384 4.682z" fill="url(#bj)"/><path d="m430.646 220.234.953-11.584 10.346 5.678-.868 1.566-7.927-4.341-.726 8.823z" fill="url(#bk)"/><path d="m425.665 216.263 1.963-14.913 13.506 6.532-.769 1.622-11.285-5.451-1.636 12.438z" fill="url(#bl)"/><path d="m409.154 165.527-1.575.857 16.014 29.408 1.574-.857z" fill="url(#bm)"/><path d="m406.581 171.266.854-1.566 4.212 2.306.385-4.682 1.793.142-.612 7.443z" fill="url(#bn)"/><path d="m406.809 176.474.854-1.579 7.926 4.354.726-8.837 1.793.142-.967 11.584z" fill="url(#bo)"/><path d="m407.606 182.907.783-1.623 11.285 5.465 1.636-12.452 1.765.228-1.95 14.914z" fill="url(#bp)"/><path d="m424.597 194.513-.507 1.72 32.117 9.471.508-1.72z" fill="url(#bq)"/><path d="m446.755 201.99 7.258-2.12.498 1.722-4.611 1.337 3.045 3.586-1.366 1.167z" fill="url(#br)"/><path d="m438.857 199.656 11.327-3.301.498 1.722-8.68 2.533 5.735 6.759-1.366 1.153z" fill="url(#bs)"/><path d="m430.888 197.308 14.173-4.938.584 1.693-11.826 4.127 7.642 9.962-1.423 1.082z" fill="url(#bt)"/><path d="m392.507 185.046-.507 1.72 32.118 9.471.507-1.72z" fill="url(#bu)"/><path d="m394.727 190.919-.498-1.722 4.611-1.338-3.046-3.586 1.366-1.167 4.825 5.692z" fill="url(#bv)"/><path d="m398.569 194.434-.512-1.722 8.681-2.519-5.735-6.774 1.366-1.153 7.528 8.866z" fill="url(#bw)"/><path d="m403.678 198.418-.583-1.693 11.825-4.127-7.642-9.947 1.424-1.096 9.15 11.925z" fill="url(#bx)"/><path d="m423.485 195.122-9.471 32.117 1.72.508 9.471-32.118z" fill="url(#by)"/><path d="m412.089 222.596 5.692-4.824 2.12 7.272-1.721.498-1.352-4.611-3.587 3.032z" fill="url(#bz)"/><path d="m411.235 217.388 8.88-7.514 3.287 11.328-1.722.498-2.519-8.667-6.759 5.721z" fill="url(#bA)"/><path d="m410.523 211.069 11.94-9.164 4.938 14.188-1.693.583-4.127-11.84-9.962 7.656z" fill="url(#bB)"/><path d="m432.957 163-9.471 32.118 1.719.507 9.472-32.118z" fill="url(#bC)"/><path d="m430.959 173.016-2.106-7.258 1.722-.512 1.337 4.611 3.586-3.031 1.153 1.366z" fill="url(#bD)"/><path d="m428.639 180.914-3.301-11.328 1.721-.498 2.519 8.681 6.76-5.735 1.167 1.366z" fill="url(#bE)"/><path d="m426.291 188.883-4.952-14.173 1.693-.598 4.127 11.84 9.962-7.642 1.095 1.423z" fill="url(#bF)"/><path d="m11.2744 218.701c.4405 2.973-1.63326 5.744-4.60624 6.166-2.97297.44-5.744076-1.633-6.166165-4.606-.4404405-2.973 1.633305-5.744 4.606275-6.166 2.97298-.441 5.74413 1.633 6.16613 4.606z" fill="url(#bG)"/><path d="m923.64 77.7599c-1.945 1.5966-4.826 1.3213-6.423-.6239-1.596-1.9453-1.321-4.8265.624-6.4231 1.946-1.5966 4.827-1.3214 6.423.6239 1.597 1.9453 1.322 4.8265-.624 6.4231z" fill="url(#bH)"/><path d="m943.432 264.041c2.184-.312 4.202 1.211 4.496 3.395.294 2.183-1.211 4.202-3.395 4.496-2.184.293-4.203-1.211-4.496-3.395-.294-2.184 1.211-4.203 3.395-4.496z" fill="url(#bI)"/><path d="m502.989 178.199c1.395-2.294 4.386-3.01 6.68-1.615 2.294 1.394 3.01 4.386 1.615 6.68-1.394 2.294-4.386 3.009-6.68 1.615-2.294-1.395-3.009-4.386-1.615-6.68z" fill="url(#bJ)"/><path d="m478.82 140.963c-2.642.385-5.12-1.45-5.505-4.092-.385-2.643 1.45-5.121 4.092-5.506 2.643-.385 5.12 1.45 5.506 4.093.385 2.642-1.45 5.12-4.093 5.505z" fill="url(#bK)"/><path d="m598.007 151.696c-2.771-1.486-3.817-4.936-2.331-7.689 1.487-2.771 4.937-3.817 7.69-2.331 2.771 1.487 3.817 4.937 2.33 7.69-1.486 2.752-4.936 3.817-7.689 2.33z" fill="url(#bL)"/><path d="m921.517 112.791c-5.125 1.061-10.177-2.026-11.297-6.88-1.119-4.855 2.139-9.6416 7.263-10.7023 5.125-1.0607 10.177 2.0262 11.297 6.8803 1.119 4.855-2.139 9.642-7.263 10.702z" fill="url(#bM)"/><path d="m692.31 181.016c-1.651 2.9-5.34 3.928-8.24 2.294-2.899-1.633-3.927-5.34-2.294-8.24 1.652-2.899 5.341-3.927 8.24-2.294 2.9 1.652 3.928 5.341 2.294 8.24z" fill="url(#bN)"/></g></svg>