<svg fill="none" height="168" viewBox="0 0 360 168" width="360" xmlns="http://www.w3.org/2000/svg" xmlns:xlink="http://www.w3.org/1999/xlink"><linearGradient id="a"><stop offset="0" stop-color="#969696"/><stop offset=".04" stop-color="#b5b5b5"/><stop offset=".08" stop-color="#ccc"/><stop offset=".12" stop-color="#d9d9d9"/><stop offset=".15" stop-color="#dedede"/><stop offset=".26" stop-color="#cbcbcb"/><stop offset=".38" stop-color="#bebebe"/><stop offset=".49" stop-color="#bababa"/><stop offset=".61" stop-color="#bebebe"/><stop offset=".74" stop-color="#cacaca"/><stop offset=".86" stop-color="#dedede"/><stop offset=".89" stop-color="#d9d9d9"/><stop offset=".93" stop-color="#cdcdcd"/><stop offset=".96" stop-color="#b8b8b8"/><stop offset=".99" stop-color="#9b9b9b"/><stop offset="1" stop-color="#949494"/></linearGradient><linearGradient id="b" gradientUnits="userSpaceOnUse" x1="211.067" x2="262.606" xlink:href="#a" y1="83.8195" y2="83.8195"/><linearGradient id="c" gradientUnits="userSpaceOnUse" x1="214.304" x2="217.855" xlink:href="#a" y1="74.8203" y2="74.8203"/><linearGradient id="d" gradientUnits="userSpaceOnUse" x1="225.616" x2="230.123" xlink:href="#a" y1="104.481" y2="104.481"/><linearGradient id="e" gradientUnits="userSpaceOnUse" x1="255.761" x2="259.322" xlink:href="#a" y1="92.717" y2="92.717"/><linearGradient id="f" gradientUnits="userSpaceOnUse" x1="243.512" x2="248.015" xlink:href="#a" y1="63.0345" y2="63.0345"/><linearGradient id="g" gradientUnits="userSpaceOnUse" x1="225.477" x2="229.981" xlink:href="#a" y1="63.0853" y2="63.0853"/><linearGradient id="h" gradientUnits="userSpaceOnUse" x1="214.352" x2="217.912" xlink:href="#a" y1="92.844" y2="92.844"/><linearGradient id="i" gradientUnits="userSpaceOnUse" x1="243.634" x2="248.131" xlink:href="#a" y1="104.444" y2="104.444"/><linearGradient id="j" gradientUnits="userSpaceOnUse" x1="255.713" x2="259.271" xlink:href="#a" y1="74.694" y2="74.694"/><linearGradient id="k" gradientUnits="userSpaceOnUse" x1="298.919" x2="310.816" xlink:href="#a" y1="48.495" y2="34.4417"/><linearGradient id="l" gradientUnits="userSpaceOnUse" x1="307.163" x2="311.101" xlink:href="#a" y1="36.6193" y2="36.6193"/><linearGradient id="m" gradientUnits="userSpaceOnUse" x1="304.238" x2="310.379" xlink:href="#a" y1="38.9248" y2="38.9248"/><linearGradient id="n" gradientUnits="userSpaceOnUse" x1="301.293" x2="309.332" xlink:href="#a" y1="41.5148" y2="41.5148"/><linearGradient id="o" gradientUnits="userSpaceOnUse" x1="287.006" x2="298.903" xlink:href="#a" y1="62.5148" y2="48.4615"/><linearGradient id="p" gradientUnits="userSpaceOnUse" x1="286.684" x2="290.622" xlink:href="#a" y1="60.3075" y2="60.3075"/><linearGradient id="q" gradientUnits="userSpaceOnUse" x1="287.407" x2="293.548" xlink:href="#a" y1="58.0076" y2="58.0076"/><linearGradient id="r" gradientUnits="userSpaceOnUse" x1="288.456" x2="296.494" xlink:href="#a" y1="55.4272" y2="55.4272"/><linearGradient id="s" gradientUnits="userSpaceOnUse" x1="305.623" x2="306.263" xlink:href="#a" y1="54.8025" y2="54.0473"/><linearGradient id="t" gradientUnits="userSpaceOnUse" x1="308.671" x2="312.802" xlink:href="#a" y1="58.7026" y2="58.7026"/><linearGradient id="u" gradientUnits="userSpaceOnUse" x1="305.216" x2="311.653" xlink:href="#a" y1="56.8815" y2="56.8815"/><linearGradient id="v" gradientUnits="userSpaceOnUse" x1="301.742" x2="309.964" xlink:href="#a" y1="54.8869" y2="54.8869"/><linearGradient id="w" gradientUnits="userSpaceOnUse" x1="291.583" x2="292.222" xlink:href="#a" y1="42.9198" y2="42.1646"/><linearGradient id="x" gradientUnits="userSpaceOnUse" x1="284.983" x2="289.114" xlink:href="#a" y1="38.2238" y2="38.2238"/><linearGradient id="y" gradientUnits="userSpaceOnUse" x1="286.133" x2="292.57" xlink:href="#a" y1="40.0501" y2="40.0501"/><linearGradient id="z" gradientUnits="userSpaceOnUse" x1="287.824" x2="296.046" xlink:href="#a" y1="42.0494" y2="42.0494"/><linearGradient id="A" gradientUnits="userSpaceOnUse" x1="298.881" x2="317.23" xlink:href="#a" y1="48.5035" y2="46.9788"/><linearGradient id="B" gradientUnits="userSpaceOnUse" x1="311.656" x2="315.737" xlink:href="#a" y1="47.119" y2="47.119"/><linearGradient id="C" gradientUnits="userSpaceOnUse" x1="307.152" x2="313.242" xlink:href="#a" y1="47.336" y2="47.336"/><linearGradient id="D" gradientUnits="userSpaceOnUse" x1="302.608" x2="310.187" xlink:href="#a" y1="47.6347" y2="47.6347"/><linearGradient id="E" gradientUnits="userSpaceOnUse" x1="280.557" x2="298.906" xlink:href="#a" y1="49.9651" y2="48.4403"/><linearGradient id="F" gradientUnits="userSpaceOnUse" x1="282.048" x2="286.129" xlink:href="#a" y1="49.8138" y2="49.8138"/><linearGradient id="G" gradientUnits="userSpaceOnUse" x1="284.544" x2="290.634" xlink:href="#a" y1="49.5977" y2="49.5977"/><linearGradient id="H" gradientUnits="userSpaceOnUse" x1="287.6" x2="295.179" xlink:href="#a" y1="49.3056" y2="49.3056"/><linearGradient id="I" gradientUnits="userSpaceOnUse" x1="299.158" x2="300.145" xlink:href="#a" y1="57.6962" y2="57.6143"/><linearGradient id="J" gradientUnits="userSpaceOnUse" x1="297.993" x2="302.492" xlink:href="#a" y1="63.2723" y2="63.2723"/><linearGradient id="K" gradientUnits="userSpaceOnUse" x1="296.526" x2="303.524" xlink:href="#a" y1="59.7699" y2="59.7699"/><linearGradient id="L" gradientUnits="userSpaceOnUse" x1="294.905" x2="304.555" xlink:href="#a" y1="55.9714" y2="55.9714"/><linearGradient id="M" gradientUnits="userSpaceOnUse" x1="297.636" x2="298.622" xlink:href="#a" y1="39.3725" y2="39.2906"/><linearGradient id="N" gradientUnits="userSpaceOnUse" x1="295.293" x2="299.792" xlink:href="#a" y1="33.6596" y2="33.6596"/><linearGradient id="O" gradientUnits="userSpaceOnUse" x1="294.264" x2="301.262" xlink:href="#a" y1="37.1618" y2="37.1618"/><linearGradient id="P" gradientUnits="userSpaceOnUse" x1="293.234" x2="302.884" xlink:href="#a" y1="40.9637" y2="40.9637"/><linearGradient id="Q" gradientUnits="userSpaceOnUse" x1="329.667" x2="329.907" xlink:href="#a" y1="148.781" y2="148.109"/><linearGradient id="R" gradientUnits="userSpaceOnUse" x1="332.248" x2="335.349" xlink:href="#a" y1="150.174" y2="150.174"/><linearGradient id="S" gradientUnits="userSpaceOnUse" x1="329.15" x2="333.903" xlink:href="#a" y1="149.549" y2="149.549"/><linearGradient id="T" gradientUnits="userSpaceOnUse" x1="326.032" x2="331.999" xlink:href="#a" y1="148.762" y2="148.762"/><linearGradient id="U" gradientUnits="userSpaceOnUse" x1="317.135" x2="317.376" xlink:href="#a" y1="144.321" y2="143.649"/><linearGradient id="V" gradientUnits="userSpaceOnUse" x1="311.626" x2="314.727" xlink:href="#a" y1="142.216" y2="142.216"/><linearGradient id="W" gradientUnits="userSpaceOnUse" x1="313.072" x2="317.826" xlink:href="#a" y1="142.855" y2="142.855"/><linearGradient id="X" gradientUnits="userSpaceOnUse" x1="314.987" x2="320.944" xlink:href="#a" y1="143.637" y2="143.637"/><linearGradient id="Y" gradientUnits="userSpaceOnUse" x1="318.99" x2="323.492" xlink:href="#a" y1="158.776" y2="146.194"/><linearGradient id="Z" gradientUnits="userSpaceOnUse" x1="317.984" x2="321.034" xlink:href="#a" y1="156.511" y2="156.511"/><linearGradient id="aa" gradientUnits="userSpaceOnUse" x1="317.759" x2="322.523" xlink:href="#a" y1="154.241" y2="154.241"/><linearGradient id="ab" gradientUnits="userSpaceOnUse" x1="317.616" x2="324.226" xlink:href="#a" y1="151.726" y2="151.726"/><linearGradient id="ac" gradientUnits="userSpaceOnUse" x1="323.493" x2="327.996" xlink:href="#a" y1="146.198" y2="133.616"/><linearGradient id="ad" gradientUnits="userSpaceOnUse" x1="325.941" x2="329.001" xlink:href="#a" y1="135.889" y2="135.889"/><linearGradient id="ae" gradientUnits="userSpaceOnUse" x1="324.453" x2="329.216" xlink:href="#a" y1="138.158" y2="138.158"/><linearGradient id="af" gradientUnits="userSpaceOnUse" x1="322.751" x2="329.361" xlink:href="#a" y1="140.671" y2="140.671"/><linearGradient id="ag" gradientUnits="userSpaceOnUse" x1="326.02" x2="326.666" xlink:href="#a" y1="152.382" y2="152.077"/><linearGradient id="ah" gradientUnits="userSpaceOnUse" x1="327.051" x2="330.03" xlink:href="#a" y1="156.129" y2="156.129"/><linearGradient id="ai" gradientUnits="userSpaceOnUse" x1="325.421" x2="330.052" xlink:href="#a" y1="153.986" y2="153.986"/><linearGradient id="aj" gradientUnits="userSpaceOnUse" x1="323.525" x2="329.89" xlink:href="#a" y1="151.66" y2="151.66"/><linearGradient id="ak" gradientUnits="userSpaceOnUse" x1="320.316" x2="320.962" xlink:href="#a" y1="140.341" y2="140.035"/><linearGradient id="al" gradientUnits="userSpaceOnUse" x1="316.944" x2="319.923" xlink:href="#a" y1="136.261" y2="136.261"/><linearGradient id="am" gradientUnits="userSpaceOnUse" x1="316.924" x2="321.555" xlink:href="#a" y1="138.413" y2="138.413"/><linearGradient id="an" gradientUnits="userSpaceOnUse" x1="317.096" x2="323.451" xlink:href="#a" y1="140.743" y2="140.743"/><linearGradient id="ao" gradientUnits="userSpaceOnUse" x1="311.419" x2="323.499" xlink:href="#a" y1="151.92" y2="146.207"/><linearGradient id="ap" gradientUnits="userSpaceOnUse" x1="312.033" x2="315.084" xlink:href="#a" y1="151.248" y2="151.248"/><linearGradient id="aq" gradientUnits="userSpaceOnUse" x1="313.358" x2="318.05" xlink:href="#a" y1="150.446" y2="150.446"/><linearGradient id="ar" gradientUnits="userSpaceOnUse" x1="315.018" x2="321.047" xlink:href="#a" y1="149.419" y2="149.419"/><linearGradient id="as" gradientUnits="userSpaceOnUse" x1="323.481" x2="335.562" xlink:href="#a" y1="146.21" y2="140.497"/><linearGradient id="at" gradientUnits="userSpaceOnUse" x1="331.891" x2="334.941" xlink:href="#a" y1="141.147" y2="141.147"/><linearGradient id="au" gradientUnits="userSpaceOnUse" x1="328.925" x2="333.618" xlink:href="#a" y1="141.948" y2="141.948"/><linearGradient id="av" gradientUnits="userSpaceOnUse" x1="325.93" x2="331.958" xlink:href="#a" y1="142.984" y2="142.984"/><linearGradient id="aw" gradientUnits="userSpaceOnUse" x1="346.846" x2="347.442" xlink:href="#a" y1="90.7056" y2="88.4574"/><linearGradient id="ax" gradientUnits="userSpaceOnUse" x1="328.811" x2="338.859" xlink:href="#a" y1="85.3136" y2="85.3136"/><linearGradient id="ay" gradientUnits="userSpaceOnUse" x1="333.903" x2="349.174" xlink:href="#a" y1="86.8792" y2="86.8792"/><linearGradient id="az" gradientUnits="userSpaceOnUse" x1="340.555" x2="359.57" xlink:href="#a" y1="88.8072" y2="88.8072"/><linearGradient id="aA" gradientUnits="userSpaceOnUse" x1="356.932" x2="368.056" xlink:href="#a" y1="137.032" y2="95.0764"/><linearGradient id="aB" gradientUnits="userSpaceOnUse" x1="353.121" x2="363.332" xlink:href="#a" y1="129.358" y2="129.358"/><linearGradient id="aC" gradientUnits="userSpaceOnUse" x1="351.835" x2="367.749" xlink:href="#a" y1="121.672" y2="121.672"/><linearGradient id="aD" gradientUnits="userSpaceOnUse" x1="350.692" x2="372.726" xlink:href="#a" y1="113.149" y2="113.149"/><linearGradient id="aE" gradientUnits="userSpaceOnUse" x1="356.181" x2="358.192" xlink:href="#a" y1="77.0003" y2="75.8321"/><linearGradient id="aF" gradientUnits="userSpaceOnUse" x1="344.155" x2="353.407" xlink:href="#a" y1="64.1363" y2="64.1363"/><linearGradient id="aG" gradientUnits="userSpaceOnUse" x1="344.632" x2="359.067" xlink:href="#a" y1="70.6737" y2="70.6737"/><linearGradient id="aH" gradientUnits="userSpaceOnUse" x1="345.894" x2="365.653" xlink:href="#a" y1="77.755" y2="77.755"/><linearGradient id="aI" gradientUnits="userSpaceOnUse" x1="330.547" x2="368.081" xlink:href="#a" y1="116.901" y2="95.0999"/><linearGradient id="aJ" gradientUnits="userSpaceOnUse" x1="332.163" x2="341.946" xlink:href="#a" y1="114.416" y2="114.416"/><linearGradient id="aK" gradientUnits="userSpaceOnUse" x1="336.002" x2="351.171" xlink:href="#a" y1="111.355" y2="111.355"/><linearGradient id="aL" gradientUnits="userSpaceOnUse" x1="340.851" x2="360.477" xlink:href="#a" y1="107.434" y2="107.434"/><linearGradient id="aM" gradientUnits="userSpaceOnUse" x1="342.837" x2="393.507" xlink:href="#a" y1="25.3708" y2="25.3708"/><linearGradient id="aN" gradientUnits="userSpaceOnUse" x1="345.913" x2="349.374" xlink:href="#a" y1="35.1305" y2="35.1305"/><linearGradient id="aO" gradientUnits="userSpaceOnUse" x1="356.021" x2="360.695" xlink:href="#a" y1="4.82846" y2="4.82846"/><linearGradient id="aP" gradientUnits="userSpaceOnUse" x1="345.129" x2="348.441" xlink:href="#a" y1="18.0243" y2="18.0243"/><linearGradient id="aQ" gradientUnits="userSpaceOnUse" x1="358.441" x2="363.242" xlink:href="#a" y1="46.7029" y2="46.7029"/><linearGradient id="aR" gradientUnits="userSpaceOnUse" x1="130.02" x2="153.641" xlink:href="#a" y1="47.9009" y2="47.9009"/><linearGradient id="aS" gradientUnits="userSpaceOnUse" x1="131.024" x2="132.556" xlink:href="#a" y1="51.0201" y2="51.0201"/><linearGradient id="aT" gradientUnits="userSpaceOnUse" x1="143.833" x2="146.08" xlink:href="#a" y1="57.9109" y2="57.9109"/><linearGradient id="aU" gradientUnits="userSpaceOnUse" x1="151.083" x2="152.615" xlink:href="#a" y1="44.7384" y2="44.7384"/><linearGradient id="aV" gradientUnits="userSpaceOnUse" x1="137.56" x2="139.799" xlink:href="#a" y1="37.8576" y2="37.8576"/><linearGradient id="aW" gradientUnits="userSpaceOnUse" x1="131.566" x2="133.186" xlink:href="#a" y1="43.0773" y2="43.0773"/><linearGradient id="aX" gradientUnits="userSpaceOnUse" x1="135.929" x2="138.09" xlink:href="#a" y1="57.3324" y2="57.3324"/><linearGradient id="aY" gradientUnits="userSpaceOnUse" x1="150.454" x2="152.073" xlink:href="#a" y1="52.6918" y2="52.6918"/><linearGradient id="aZ" gradientUnits="userSpaceOnUse" x1="145.551" x2="147.711" xlink:href="#a" y1="38.4363" y2="38.4363"/><linearGradient id="a0" gradientUnits="userSpaceOnUse" x1="106.001" x2="114.191" xlink:href="#a" y1="34.0099" y2="29.5503"/><linearGradient id="a1" gradientUnits="userSpaceOnUse" x1="111.703" x2="113.815" xlink:href="#a" y1="30.0702" y2="30.0702"/><linearGradient id="a2" gradientUnits="userSpaceOnUse" x1="109.688" x2="112.957" xlink:href="#a" y1="30.699" y2="30.699"/><linearGradient id="a3" gradientUnits="userSpaceOnUse" x1="107.661" x2="111.877" xlink:href="#a" y1="31.5039" y2="31.5039"/><linearGradient id="a4" gradientUnits="userSpaceOnUse" x1="97.822" x2="106.012" xlink:href="#a" y1="38.463" y2="34.0034"/><linearGradient id="a5" gradientUnits="userSpaceOnUse" x1="98.1932" x2="100.309" xlink:href="#a" y1="37.955" y2="37.955"/><linearGradient id="a6" gradientUnits="userSpaceOnUse" x1="99.0517" x2="102.321" xlink:href="#a" y1="37.329" y2="37.329"/><linearGradient id="a7" gradientUnits="userSpaceOnUse" x1="100.132" x2="104.349" xlink:href="#a" y1="36.5269" y2="36.5269"/><linearGradient id="a8" gradientUnits="userSpaceOnUse" x1="108.019" x2="108.457" xlink:href="#a" y1="38.2204" y2="37.9816"/><linearGradient id="a9" gradientUnits="userSpaceOnUse" x1="108.936" x2="110.957" xlink:href="#a" y1="40.7654" y2="40.7654"/><linearGradient id="ba" gradientUnits="userSpaceOnUse" x1="107.748" x2="110.895" xlink:href="#a" y1="39.332" y2="39.332"/><linearGradient id="bb" gradientUnits="userSpaceOnUse" x1="106.362" x2="110.67" xlink:href="#a" y1="37.7776" y2="37.7776"/><linearGradient id="bc" gradientUnits="userSpaceOnUse" x1="103.566" x2="104.004" xlink:href="#a" y1="30.0411" y2="29.8023"/><linearGradient id="bd" gradientUnits="userSpaceOnUse" x1="101.055" x2="103.072" xlink:href="#a" y1="27.2601" y2="27.2601"/><linearGradient id="be" gradientUnits="userSpaceOnUse" x1="101.118" x2="104.265" xlink:href="#a" y1="28.6964" y2="28.6964"/><linearGradient id="bf" gradientUnits="userSpaceOnUse" x1="101.339" x2="105.647" xlink:href="#a" y1="30.2531" y2="30.2531"/><linearGradient id="bg" gradientUnits="userSpaceOnUse" x1="110.403" x2="110.544" xlink:href="#a" y1="35.564" y2="35.0851"/><linearGradient id="bh" gradientUnits="userSpaceOnUse" x1="112.229" x2="114.389" xlink:href="#a" y1="36.3443" y2="36.3443"/><linearGradient id="bi" gradientUnits="userSpaceOnUse" x1="110.032" x2="113.325" xlink:href="#a" y1="35.9737" y2="35.9737"/><linearGradient id="bj" gradientUnits="userSpaceOnUse" x1="107.815" x2="111.925" xlink:href="#a" y1="35.5201" y2="35.5201"/><linearGradient id="bk" gradientUnits="userSpaceOnUse" x1="101.477" x2="101.619" xlink:href="#a" y1="32.931" y2="32.452"/><linearGradient id="bl" gradientUnits="userSpaceOnUse" x1="97.6192" x2="99.7791" xlink:href="#a" y1="31.6814" y2="31.6814"/><linearGradient id="bm" gradientUnits="userSpaceOnUse" x1="98.6837" x2="101.981" xlink:href="#a" y1="32.055" y2="32.055"/><linearGradient id="bn" gradientUnits="userSpaceOnUse" x1="100.085" x2="104.194" xlink:href="#a" y1="32.5118" y2="32.5118"/><linearGradient id="bo" gradientUnits="userSpaceOnUse" x1="103.362" x2="106" xlink:href="#a" y1="42.9414" y2="33.997"/><linearGradient id="bp" gradientUnits="userSpaceOnUse" x1="102.587" x2="104.763" xlink:href="#a" y1="41.3177" y2="41.3177"/><linearGradient id="bq" gradientUnits="userSpaceOnUse" x1="102.349" x2="105.737" xlink:href="#a" y1="39.6863" y2="39.6863"/><linearGradient id="br" gradientUnits="userSpaceOnUse" x1="102.151" x2="106.851" xlink:href="#a" y1="37.8803" y2="37.8803"/><linearGradient id="bs" gradientUnits="userSpaceOnUse" x1="105.996" x2="108.634" xlink:href="#a" y1="34.0071" y2="25.0626"/><linearGradient id="bt" gradientUnits="userSpaceOnUse" x1="107.25" x2="109.421" xlink:href="#a" y1="26.708" y2="26.708"/><linearGradient id="bu" gradientUnits="userSpaceOnUse" x1="106.272" x2="109.66" xlink:href="#a" y1="28.3421" y2="28.3421"/><linearGradient id="bv" gradientUnits="userSpaceOnUse" x1="105.159" x2="109.859" xlink:href="#a" y1="30.15" y2="30.15"/><linearGradient id="bw" gradientUnits="userSpaceOnUse" x1="331.08" x2="336.15" xlink:href="#a" y1="41.2206" y2="41.2206"/><linearGradient id="bx" gradientUnits="userSpaceOnUse" x1="352.632" x2="357.059" xlink:href="#a" y1="148.784" y2="148.784"/><linearGradient id="by" gradientUnits="userSpaceOnUse" x1="85.1821" x2="90.5741" xlink:href="#a" y1="45.6019" y2="45.6019"/><linearGradient id="bz" gradientUnits="userSpaceOnUse" x1="158.998" x2="164.005" xlink:href="#a" y1="52.5061" y2="52.5061"/><linearGradient id="bA" gradientUnits="userSpaceOnUse" x1="302.887" x2="316.39" xlink:href="#a" y1="124.842" y2="124.842"/><linearGradient id="bB" gradientUnits="userSpaceOnUse" x1="200.512" x2="207.231" xlink:href="#a" y1="98.854" y2="98.854"/><g opacity=".4"><path d="m220.163 65.9686 6.086 6.0497c.059.059.133.0959.207.1328l5.6 2.656 2.117 4.6405c-.303.1918-.627.4427-.893.7083l-.11.1106c-.266.2656-.509.5903-.679.9149l-4.67-2.11-2.693-5.5849c-.037-.0738-.074-.155-.133-.2066l-6.086-6.0497c-.229-.2287-.569-.2656-.834-.1107-.266.1918-.376.4943-.28.7747l2.774 8.8458-9.127 4.6922c-.265.1181-.413.4206-.339.723.037.3025.302.5312.612.5312l9.163.5976c.111.0369.229 0 .34-.0369l6.057-2.9437 4.655 2.0953c-.17.4353-.243.9296-.258 1.4018.022.4721.096.9295.273 1.3648l-4.641 2.1174-6.079-2.8994c-.118-.0369-.229-.0738-.339-.0369l-9.156.6566c-.302 0-.568.2287-.605.5312-.074.3025.081.605.347.723l9.156 4.6406-2.723 8.868c-.096.2802.044.6052.288.7742.266.148.605.111.834-.118l6.049-6.0862c.059-.059.096-.1328.133-.2066l2.656-5.5996 4.641-2.1174c.191.3024.435.6271.708.8853l.111.1106c.265.2656.59.5091.914.6788l-2.11 4.6701-5.585 2.6928c-.073.0369-.154.0738-.206.1328l-6.05 6.0864c-.229.229-.265.568-.11.834.191.265.494.376.774.28l8.853-2.774 4.693 9.126c.132.288.42.421.723.34.302-.037.531-.303.531-.613l.597-9.1626c.037-.1107 0-.2287-.036-.3394l-2.937-6.0571 2.088-4.6553c.435.1697.93.2435 1.402.2582.472-.0221.929-.0959 1.365-.273l2.117 4.6406-2.899 6.0792c-.037.1107-.074.2287-.037.3394l.656 9.156c.023.324.229.568.532.605.302.073.605-.081.723-.347l4.633-9.1558 8.868 2.7228c.28.095.583-.023.774-.288.148-.266.111-.605-.118-.834l-6.086-6.0495c-.059-.059-.133-.0959-.207-.1328l-5.599-2.656-2.118-4.6406c.303-.1918.627-.4426.893-.7082l.111-.1107c.265-.2656.509-.5902.678-.9148l4.67 2.11 2.693 5.5849c.037.0738.074.1549.133.2066l6.087 6.0501c.228.228.568.265.833.11.266-.192.377-.494.281-.7744l-2.774-8.8532 9.126-4.6922c.265-.1181.413-.4206.339-.723-.022-.1328-.081-.2656-.17-.3616-.095-.0959-.265-.1475-.435-.1696l-9.163-.5976c-.111-.0369-.229 0-.339.0369l-6.057 2.9363-4.656-2.0879c.17-.4353.244-.9296.259-1.4018-.023-.4721-.096-.9296-.273-1.3648l4.64-2.1174 6.079 2.8994c.111.0369.229.0738.34.0369l9.155-.6566c.303 0 .569-.2287.605-.5312.074-.3025-.059-.5902-.346-.7157l-9.156-4.6332 2.722-8.8679c.074-.2287 0-.4943-.169-.664l-.111-.1107c-.266-.1475-.605-.1107-.834.118l-6.049 6.0866c-.059.0591-.096.1328-.133.2066l-2.656 5.5997-4.641 2.1174c-.214-.3246-.457-.6419-.76-.9444l-.059-.059c-.265-.2656-.59-.509-.914-.6787l2.11-4.6701 5.584-2.6929c.074-.0369.155-.0737.207-.1328l6.05-6.0866c.228-.2287.265-.568.11-.8336l-.11-.1107c-.17-.1697-.436-.2435-.664-.1697l-8.846 2.774-4.692-9.1262c-.037-.0811-.059-.0959-.133-.1697-.288-.2434-.701-.2803-.967-.0147-.147.1549-.206.3984-.169.6271l-.583 8.9934c-.037.1106 0 .2287.037.3394l2.936 6.057-2.088 4.6554c-.435-.1697-.929-.2435-1.402-.2583-.472.0222-.929.096-1.364.273l-2.118-4.6405 2.9-6.0793c.036-.118.073-.2287.036-.3393l-.656-9.1558c-.022-.1696-.074-.3393-.17-.4352 0 0-.012-.0123-.037-.0369-.251-.2435-.701-.2435-.966.0221-.096.0959-.148.2287-.17.3615l-4.545 8.986-8.868-2.7223c-.28-.0959-.59.0221-.774.2877-.148.2656-.111.605.118.8337zm-.273 4.1167 4.087 4.0651 1.948 4.0504-4.029-1.8075h-.036zm.907 11.8707-6.581-.4574 7.363-3.7552 4.124 1.8296zm.008 3.7184 4.921 2.3535-4.11 1.8518-7.385-3.711 6.581-.4943zm3.231 7.7835-4.065 4.0872 1.933-6.3227h.037l4.013-1.837-1.918 4.0651zm-.907 7.2301 4.065-4.0873 4.05-1.9477-1.808 4.0283v.0368zm11.87-.9075-.457 6.5805-3.755-7.3625 1.822-4.1241 2.383 4.9061zm4.213 6.5665-.494-6.5812 2.353-4.9209 1.852 4.1093-3.711 7.3848zm7.289-9.8053 4.087 4.0653-6.322-1.9331v-.0369l-1.837-4.0135 4.065 1.9182zm7.23.9075-4.087-4.0651-1.948-4.0504 4.028 1.8076h.037zm-.907-11.8707 6.581.45-7.363 3.7553-4.117-1.8297 4.906-2.383zm-.015-3.7184-4.921-2.3535 4.109-1.8518 7.386 3.711-6.581.4943zm-3.231-7.7834 4.065-4.0873-1.933 6.3227h-.037l-4.014 1.837 1.926-4.0651zm.907-7.2302-4.065 4.0873-4.05 1.9477 1.807-4.0282v-.0369zm-11.871.9075.458-6.5809 3.762 7.3629-1.829 4.1168-2.383-4.9062zm-2.67 12.3576c.265-.0738.531-.118.811-.1328.303 0 .59.059.893.1328.435.1328.856.3173 1.195.5828.192.1107.362.2509.509.3984l.111.1107c.155.1549.288.3246.398.5091.266.3393.458.7599.59 1.1952.074.2656.118.5312.133.8115 0 .3025-.059.5902-.133.8927-.132.4353-.317.8558-.582 1.1952-.111.1918-.244.3615-.399.5164l-.111.1107c-.154.1549-.317.2877-.509.3984-.339.2656-.759.4574-1.195.5902-.265.0738-.531.118-.811.1328-.303 0-.591-.059-.893-.1328-.435-.1328-.856-.3172-1.195-.5828-.192-.1107-.362-.2435-.517-.3984l-.11-.1107c-.155-.1476-.288-.3246-.399-.5091-.265-.3393-.457-.7599-.59-1.1951-.074-.2656-.118-.5312-.133-.819 0-.3025.059-.5828.133-.8927.133-.4352.317-.8558.583-1.1952.118-.1918.243-.3615.398-.5164l.111-.1107c.155-.1549.325-.2877.509-.3984.339-.2655.76-.4574 1.195-.5902zm-1.535-18.9238.494 6.5809-2.353 4.921-1.852-4.1094 3.711-7.3851zm-5.061 7.6728v.0369l1.837 4.0135-4.065-1.9256-4.087-4.0651 6.322 1.933z" fill="url(#b)"/><path d="m217.832 75.2571-.642-2.2134c-.037-.1106-.096-.2139-.17-.2877-.17-.1623-.42-.2361-.657-.1697-.354.1033-.56.4722-.457.8263l.472 1.6453-1.667.723c-.34.1475-.494.5385-.354.8779.147.3394.538.5017.878.3541l2.213-.9517c.31-.1328.472-.4795.376-.8041z" fill="url(#c)"/><path d="m230.064 105.328-.952-2.213c-.037-.081-.081-.147-.14-.214-.17-.169-.421-.236-.657-.169l-2.213.634c-.354.103-.561.472-.458.826.104.354.472.561.827.458l1.645-.48.723 1.668c.147.339.538.501.878.354.339-.148.494-.539.347-.878z" fill="url(#d)"/><path d="m255.79 92.2627.642 2.2133c.103.3541.472.5681.826.4574.354-.1033.561-.4722.457-.8263l-.472-1.6452 1.667-.7157c.34-.1475.502-.5459.355-.8779-.037-.0812-.089-.1549-.148-.214-.192-.1844-.48-.2508-.738-.1401l-2.213.9517c-.31.1328-.472.4795-.376.8042z" fill="url(#e)"/><path d="m243.557 62.1913.952 2.2133c.133.3173.48.4722.804.3763l2.214-.6345c.354-.1033.56-.4722.457-.8337-.03-.1106-.089-.2139-.17-.2877-.162-.1623-.42-.2361-.656-.1697l-1.646.4722-.715-1.6674c-.148-.3394-.539-.5017-.878-.3541-.34.1475-.494.5386-.354.8779z" fill="url(#f)"/><path d="m225.976 64.2053 2.214.6271c.324.0959.664-.0738.797-.3836l.937-2.2134c.11-.2582.044-.5459-.148-.7377-.059-.059-.133-.1107-.214-.1402-.339-.1476-.73.0148-.878.3541l-.708 1.6674-1.645-.4648c-.354-.1033-.731.1033-.827.4648-.103.3541.111.723.465.8263z" fill="url(#g)"/><path d="m217.883 92.3807c.066-.2435 0-.4869-.17-.6566-.059-.0591-.125-.1033-.214-.1402l-2.213-.937c-.339-.1475-.73.0148-.878.3542-.147.3393.015.7377.354.8779l1.668.7083-.465 1.6452c-.103.3541.111.723.465.8263s.73-.1107.826-.4648z" fill="url(#h)"/><path d="m247.932 103.484c-.081-.081-.177-.14-.295-.17l-2.213-.627c-.325-.088-.664.074-.797.384l-.937 2.213c-.147.34.015.738.354.878.34.148.731-.014.878-.354l.708-1.675 1.646.465c.354.103.723-.103.826-.465.066-.243 0-.494-.17-.656z" fill="url(#i)"/><path d="m255.738 75.1464c-.089.3246.074.664.384.7968l2.213.937c.339.1475.738-.0148.878-.3542.147-.3393-.015-.7304-.354-.8779l-1.675-.7083.465-1.6452c.066-.2435 0-.4943-.17-.6566-.081-.0812-.177-.1402-.295-.1697-.354-.1033-.73.1107-.826.4648l-.627 2.2133z" fill="url(#j)"/><path d="m310.427 34.1344-11.882 14.036.754.6386 11.882-14.036z" fill="url(#k)"/><path d="m307.165 38.6775.55-4.1264.978.1325-.347 2.6184 2.476-.7335.275.9475z" fill="url(#l)"/><path d="m304.24 42.1314.856-6.4289.978.1325-.652 4.921 4.666-1.3856.286.9475z" fill="url(#m)"/><path d="m301.296 45.6159.662-8.2221.988.0713-.56 6.867 6.704-1.6301.234.9577z" fill="url(#n)"/><path d="m298.514 48.1542-11.883 14.036.755.6385 11.882-14.0359z" fill="url(#o)"/><path d="m289.09 62.2333.346-2.6185-2.475.7336-.275-.9475 3.932-1.1615-.55 4.1263z" fill="url(#p)"/><path d="m291.708 61.0819.653-4.9211-4.667 1.3857-.285-.9476 6.133-1.8135-.855 6.4289z" fill="url(#q)"/><path d="m294.836 59.4519.561-6.8671-6.704 1.6302-.235-.9577 8.029-1.946-.662 8.2119z" fill="url(#r)"/><path d="m299.227 48.0924-.638.7543 14.036 11.8823.638-.7543z" fill="url(#s)"/><path d="m309.834 60.6642-1.162-3.9328 4.127.5502-.133.9781-2.618-.3464.733 2.4758z" fill="url(#t)"/><path d="m307.032 59.9408-1.813-6.1334 6.428.8558-.132.9781-4.921-.6521 1.386 4.6663z" fill="url(#u)"/><path d="m303.69 58.8914-1.946-8.0285 8.212.6623-.071.9882-6.867-.5603 1.63 6.704z" fill="url(#v)"/><path d="m285.187 36.2097-.639.7543 14.036 11.8823.639-.7543z" fill="url(#w)"/><path d="m284.984 39.6353.133-.9781 2.618.3464-.734-2.4758.948-.2751 1.161 3.9327z" fill="url(#x)"/><path d="m286.135 42.2536.133-.9781 4.921.652-1.386-4.6663.948-.2852 1.813 6.1334z" fill="url(#y)"/><path d="m287.827 45.3916.071-.9882 6.867.5603-1.63-6.704.958-.2343 1.946 8.0285z" fill="url(#z)"/><path d="m317.172 46.4865-18.327 1.5229.082.9849 18.327-1.5229z" fill="url(#A)"/><path d="m311.658 47.3886 3.301-2.5165.601.7743-2.099 1.6098 2.272 1.2328-.469.866z" fill="url(#B)"/><path d="m307.154 47.7656 5.145-3.9327.602.7743-3.943 3.0158 4.279 2.3332-.469.866z" fill="url(#C)"/><path d="m302.61 48.1426 6.276-5.3388.642.7438-5.247 4.4625 5.899 3.5864-.519.8456z" fill="url(#D)"/><path d="m298.848 47.9481-18.327 1.5228.082.9849 18.327-1.5228z" fill="url(#E)"/><path d="m282.824 52.0549-.601-.7845 2.089-1.6098-2.262-1.2328.468-.866 3.607 1.9663z" fill="url(#F)"/><path d="m285.483 53.0839-.601-.7743 3.943-3.0158-4.279-2.3332.469-.866 5.613 3.0565z" fill="url(#G)"/><path d="m288.896 54.113-.641-.7437 5.247-4.4626-5.899-3.5863.519-.8457 7.051 4.2996z" fill="url(#H)"/><path d="m299.38 48.4287-.984.0818 1.522 18.327.985-.0818z" fill="url(#I)"/><path d="m297.995 64.8313 1.966-3.5966 2.527 3.2909-.785.6011-1.609-2.0886-1.233 2.2618z" fill="url(#J)"/><path d="m296.528 62.3352 3.056-5.6139 3.933 5.1452-.774.6011-3.016-3.9429-2.333 4.2791z" fill="url(#K)"/><path d="m294.908 59.2277 4.299-7.0505 5.339 6.2761-.744.6419-4.462-5.247-3.587 5.8991z" fill="url(#L)"/><path d="m297.857 30.1049-.984.0819 1.522 18.327.985-.0819z" fill="url(#M)"/><path d="m297.822 35.6923-2.527-3.301.784-.6012 1.61 2.0989 1.233-2.2721.866.4687z" fill="url(#N)"/><path d="m298.199 40.1957-3.933-5.1452.774-.6011 3.016 3.9429 2.333-4.2791.866.4686z" fill="url(#O)"/><path d="m298.576 44.7396-5.339-6.2761.744-.6419 4.462 5.2471 3.586-5.8991.846.5196z" fill="url(#P)"/><path d="m323.609 145.855-.241.672 12.567 4.497.24-.672z" fill="url(#Q)"/><path d="m332.249 149.324 2.934-.682.163.703-1.865.428 1.131 1.497-.57.428z" fill="url(#R)"/><path d="m329.151 148.214 4.585-1.05.163.693-3.515.805 2.129 2.822-.57.438z" fill="url(#S)"/><path d="m326.033 147.103 5.757-1.65.204.692-4.809 1.376 2.822 4.136-.591.398z" fill="url(#T)"/><path d="m311.077 141.396-.24.671 12.566 4.497.24-.671z" fill="url(#U)"/><path d="m311.627 143.048 1.864-.438-1.131-1.498.571-.428 1.793 2.374-2.934.683z" fill="url(#V)"/><path d="m313.073 144.525 3.516-.804-2.13-2.823.571-.428 2.791 3.699-4.585 1.059z" fill="url(#W)"/><path d="m314.989 146.237 4.799-1.365-2.812-4.147.591-.397 3.372 4.951-5.756 1.651z" fill="url(#X)"/><path d="m323.152 146.086-4.497 12.566.671.24 4.497-12.566z" fill="url(#Y)"/><path d="m317.985 156.741 2.373-1.783.673 2.935-.693.163-.428-1.865-1.497 1.121z" fill="url(#Z)"/><path d="m317.76 154.653 3.699-2.792 1.059 4.585-.693.163-.815-3.515-2.822 2.129z" fill="url(#aa)"/><path d="m317.618 152.116 4.961-3.372 1.641 5.756-.683.194-1.375-4.799-4.137 2.812z" fill="url(#ab)"/><path d="m327.655 133.507-4.497 12.566.671.241 4.497-12.567z" fill="url(#ac)"/><path d="m325.942 134.49.692-.153.428 1.865 1.498-1.131.438.57-2.384 1.793z" fill="url(#ad)"/><path d="m324.454 135.937.693-.153.815 3.505 2.822-2.13.428.571-3.698 2.791z" fill="url(#ae)"/><path d="m322.753 137.883.682-.194 1.376 4.809 4.136-2.822.408.591-4.962 3.372z" fill="url(#af)"/><path d="m323.805 146.03-.644.304 5.706 12.066.644-.305z" fill="url(#ag)"/><path d="m327.47 154.602 2.557 1.6-.377.601-1.63-1.009-.255 1.854-.713-.102z" fill="url(#ah)"/><path d="m326.064 151.637 3.984 2.486-.377.611-3.057-1.915-.489 3.505-.703-.102z" fill="url(#ai)"/><path d="m324.648 148.642 5.237 2.903-.357.622-4.361-2.425-.937 4.921-.703-.132z" fill="url(#aj)"/><path d="m318.102 133.988-.645.305 5.706 12.066.645-.305z" fill="url(#ak)"/><path d="m316.945 136.181.387-.601 1.62 1.019.255-1.865.713.102-.417 2.945z" fill="url(#al)"/><path d="m316.925 138.26.377-.601 3.057 1.905.489-3.505.703.102-.642 4.595z" fill="url(#am)"/><path d="m317.098 140.837.347-.621 4.36 2.425.938-4.921.703.132-1.121 5.899z" fill="url(#an)"/><path d="m323.335 145.889-12.065 5.706.305.644 12.065-5.706z" fill="url(#ao)"/><path d="m312.126 149.762 2.955.408-1.6 2.557-.611-.377 1.019-1.62-1.855-.265z" fill="url(#ap)"/><path d="m313.461 148.122 4.585.652-2.496 3.984-.601-.377 1.905-3.057-3.495-.489z" fill="url(#aq)"/><path d="m315.152 146.237 5.889 1.111-2.904 5.237-.631-.347 2.435-4.371-4.921-.927z" fill="url(#ar)"/><path d="m335.398 140.179-12.066 5.706.305.644 12.066-5.706z" fill="url(#as)"/><path d="m331.892 142.213 1.599-2.558.612.377-1.019 1.631 1.854.254-.091.713z" fill="url(#at)"/><path d="m328.927 143.619 2.496-3.994.601.387-1.905 3.046 3.495.489-.092.714z" fill="url(#au)"/><path d="m325.932 145.035 2.903-5.237.632.346-2.425 4.371 4.911.938-.132.703z" fill="url(#av)"/><path d="m326.439 82.8907-.596 2.2454 41.904 11.1106.596-2.2454z" fill="url(#aw)"/><path d="m328.814 88.1897 5.92-1.9053-4.055-4.5338 1.722-1.5487 6.449 7.1931-9.323 3.0056z" fill="url(#ax)"/><path d="m333.908 92.6012 11.136-3.5863-7.661-8.5482 1.732-1.5486 10.045 11.2175-14.539 4.6663z" fill="url(#ay)"/><path d="m340.561 97.6139 15.171-5.7565-10.25-12.6235 1.793-1.4569 12.278 15.1095-18.166 6.8975z" fill="url(#az)"/><path d="m366.92 94.8163-11.11 41.9037 2.245.596 11.111-41.9044z" fill="url(#aA)"/><path d="m353.124 130.777 7.203-6.449 2.996 9.333-2.211.703-1.905-5.92-4.534 4.065z" fill="url(#aB)"/><path d="m351.84 124.073 11.218-10.046 4.676 14.539-2.211.714-3.586-11.136-8.548 7.651z" fill="url(#aC)"/><path d="m350.699 115.902 15.109-12.277 6.898 18.176-2.17.826-5.757-15.171-12.623 10.25z" fill="url(#aD)"/><path d="m347.277 57.0443-2.009 1.1668 21.774 37.4869 2.009-1.1667z" fill="url(#aE)"/><path d="m344.158 64.5422 1.06-2.0683 5.532 2.8426.336-6.0825 2.313.1325-.53 9.6484z" fill="url(#aF)"/><path d="m344.637 71.2564 1.059-2.0581 10.413 5.3388.621-11.462 2.323.1324-.825 15.028z" fill="url(#aG)"/><path d="m345.9 79.56.958-2.1192 14.794 6.6633 1.681-16.1793 2.302.2445-1.997 19.3683z" fill="url(#aH)"/><path d="m367.462 94.113-37.487 21.774 1.167 2.009 37.487-21.7743z" fill="url(#aI)"/><path d="m332.289 109.779 9.648.53-4.473 8.721-2.068-1.06 2.843-5.532-6.073-.336z" fill="url(#aJ)"/><path d="m336.129 104.134 15.028.826-6.979 13.581-2.058-1.06 5.339-10.402-11.452-.632z" fill="url(#aK)"/><path d="m341.091 97.5426 19.369 2.0071-7.978 17.7283-2.109-.948 6.653-14.804-16.169-1.6706z" fill="url(#aL)"/><path d="m343.568 25.8604 8.65-.4993c.081 0 .163-.0305.234-.0713l5.767-2.4248 4.91 1.5282c-.061.3566-.091.7642-.071 1.1412v.163c.031.3769.112.7845.234 1.1309l-4.727 2.0886-6.011-1.7422c-.082-.0204-.163-.0408-.245-.0408l-8.65.4993c-.326.0203-.58.2547-.642.5501-.03.3261.123.6215.398.7336l8.517 3.8716-2.618 10.0153c-.092.2751.03.5909.316.7438.254.1732.601.1324.805-.1019l6.622-6.4799c.102-.0611.153-.1732.204-.2853l1.875-6.5308 4.707-2.0886c.214.4177.529.8151.876 1.1411.367.3057.764.5502 1.212.7132l-1.528 4.9108-6.276 2.6083c-.102.0611-.214.1222-.255.2343l-5.675 7.3255c-.204.2343-.214.5808 0 .8151.173.2649.51.3464.775.2241l9.648-3.7595 4.829 8.0183c.153.2649.479.377.775.3057.295-.1019.489-.377.479-.703l-.5-8.65c0-.0815-.04-.1631-.071-.2446l-2.425-5.7666 1.528-4.9109c.357.0612.765.0917 1.141.0713h.164c.377-.0305.784-.112 1.13-.2343l2.089 4.7275-1.742 6.0112c-.021.0815-.041.163-.041.2445l.499 8.65c.021.326.255.5807.551.6419.326.0305.611-.1121.733-.3974l3.872-8.5175 10.015 2.6184c.306.0917.591-.0306.744-.3159.173-.2547.132-.6011-.102-.8049l-6.48-6.6225c-.061-.1018-.173-.1528-.285-.2037l-6.531-1.8747-2.089-4.7071c.418-.2139.805-.5298 1.141-.8762.306-.3668.551-.7641.714-1.2124l4.91 1.5283 2.609 6.2761c.061.1018.122.2139.234.2547l7.325 5.6749c.255.2038.581.214.816 0 .264-.1732.346-.5094.224-.7743l-3.76-9.6485 8.018-4.8293c.265-.1528.377-.4585.306-.7743-.102-.2955-.377-.4891-.703-.4789l-8.65.4993c-.081 0-.163.0407-.234.0713l-5.767 2.4248-4.911-1.5282c.061-.3566.092-.7642.072-1.1411v-.163c-.031-.377-.112-.7846-.235-1.131l4.728-2.0886 6.011 1.7422c.081.0204.163.0408.244.0408l8.65-.4993c.326-.0203.581-.2547.642-.5501.031-.3261-.122-.6215-.397-.7336l-8.518-3.8716 2.619-10.01528c.092-.27508-.031-.59093-.316-.74375-.112-.07132-.255-.12226-.387-.11208-.133 0-.296.10189-.418.21396l-6.622 6.47985c-.102.0611-.153.1732-.204.2853l-1.875 6.5308-4.707 2.0886c-.214-.4177-.53-.8049-.876-1.1411-.367-.3056-.764-.5502-1.202-.7132l1.528-4.9108 6.276-2.6083c.102-.0611.214-.1222.255-.2343l5.675-7.32549c.203-.22415.214-.58075 0-.81508-.174-.25471-.479-.34641-.775-.22415l-9.648 3.75955-4.829-8.018324c-.123-.203769-.367-.3362204-.612-.31584351h-.163c-.295.11207351-.489.38716251-.479.71319351l.5 8.650004c0 .08151.04.16302.071.23434l2.425 5.7667-1.529 4.9108c-.387-.0611-.794-.0917-1.222-.0611h-.082c-.377.0305-.784.1019-1.131.2343l-2.088-4.7274 1.742-6.01123c.02-.08151.041-.16302.041-.24452l-.499-8.650011c-.021-.326031-.255-.58074-.551-.641871h-.163c-.244.020377-.478.173204-.57.39735l-3.872 8.517552-10.015-2.61843c-.082-.02038-.112-.02038-.214-.02038-.377.05094-.683.33622-.662.71319.01.21396.163.42792.356.55018l6.368 6.49007c.061.1019.173.1528.285.2038l6.531 1.8746 2.089 4.7071c-.418.214-.805.5298-1.141.8762-.306.3668-.55.7641-.713 1.2124l-4.911-1.5282-2.609-6.2761c-.061-.1019-.122-.214-.234-.2547l-7.325-5.67502c-.143-.10188-.306-.1732-.449-.16301 0 0-.017 0-.051 0-.346.02038-.652.36678-.631.74376 0 .13247.071.26487.153.36677l3.688 9.4651-8.019 4.8293c-.264.1529-.377.4585-.305.7743.102.2955.377.4891.703.4789zm2.913 2.975 5.808-.3362 4.361 1.2634-4.066 1.8033-.03.0306zm9.537 7.3051-4.778 4.646 2.139-8.0693 4.147-1.8645zm2.802 2.4962 5.084-2.109-1.376 4.3301-7.763 3.0565zm8.028 2.812.336 5.8075-3.443-5.7056.02-.0305 1.325-4.2486zm4.819 5.5527-.336-5.8074 1.264-4.3606 1.803 4.0652.03.0305-2.771 6.0723zm7.306-9.5262 4.635 4.7682-8.069-2.1395-1.865-4.1468 5.288 1.5079zm7.773 1.2532-5.277-4.055-2.109-5.084 4.34 1.3754 3.057 7.7636zm-2.465-12.0835 5.807-.3362-5.705 3.4437-.031-.0204-4.249-1.3245zm5.552-4.8191-5.807.3362-4.361-1.2634 4.066-1.8135.03-.0306zm-9.526-7.3052 4.768-4.63573-2.139 8.06923-4.147 1.8645 1.508-5.2878zm-2.802-2.4962-5.084 2.1091 1.376-4.34032 7.763-3.04636zm-8.028-2.81197-.336-5.80742 3.443 5.70554-.02.03057-1.325 4.24858zm-4.819-5.55271.336 5.80743-1.263 4.36065-1.814-4.07538-.031-.03056 2.762-6.07233zm-7.305 9.53638-4.636-4.76818 8.069 2.13958 1.865 4.1467-5.288-1.5079zm7.488 10.3311c.122-.2547.265-.4788.448-.703.204-.2241.439-.4075.693-.5807.398-.2445.815-.4279 1.243-.5094.214-.0612.428-.1019.642-.1121h.163c.214-.0204.438 0 .652.0305.438.0306.876.1631 1.294.3566.255.1223.479.2751.703.4483.224.2038.408.4381.581.6928.244.3974.428.8151.509 1.243.072.214.102.428.123.6419v.163c.02.214 0 .4381-.031.6521-.031.4381-.163.8762-.357 1.2939-.122.2547-.265.4789-.448.703-.204.2242-.438.4076-.693.5808-.397.2445-.815.4279-1.243.5094-.214.0611-.428.1019-.642.1223h-.163c-.214.0203-.438 0-.652-.0306-.438-.0306-.876-.163-1.294-.3566-.254-.1223-.478-.2649-.703-.4483-.224-.2038-.407-.4381-.58-.6928-.245-.3974-.428-.8151-.51-1.243-.061-.214-.102-.4279-.122-.6419v-.163c-.02-.214 0-.4381.031-.6521.03-.4381.163-.8762.356-1.2939zm-15.252-11.5843 5.278 4.0551 2.109 5.084-4.341-1.3755zm2.364 8.9761.03.0204 4.249 1.3245-4.177 1.7626-5.808.3362z" fill="url(#aM)"/><path d="m348.977 33.8685-2.088-1.0086c-.112-.0509-.224-.0713-.336-.0713-.235.0102-.459.1528-.571.3769-.163.3363-.02.7438.316.9068l1.559.754-.581 1.7422c-.122.3566.071.7437.428.8558.357.1223.744-.0713.856-.4279l.774-2.3026c.112-.326-.041-.6724-.346-.8253z" fill="url(#aN)"/><path d="m356.487 5.73818 2.302.77432c.326.11207.683-.04076.826-.34641l1.008-2.08863c.163-.33622.021-.74376-.316-.90678-.112-.05094-.224-.07131-.336-.07131-.234.01018-.458.15282-.57.37697l-.754 1.55883-1.732-.58074c-.357-.12226-.734.07132-.856.42792-.122.35659.071.74375.428.85583z" fill="url(#aO)"/><path d="m346.166 20.3078 1.956-1.243c.285-.1834.397-.5502.255-.8558l-1.029-2.2007c-.123-.2547-.388-.3974-.652-.3872-.082 0-.174.0204-.245.0612-.336.163-.479.5603-.326.8965l.774 1.6608-1.457.9271c-.315.2038-.407.6215-.203.9373.203.3159.621.4076.937.2038z" fill="url(#aP)"/><path d="m361.886 45.3612c-.132-.214-.366-.3261-.611-.3159-.081 0-.163.0204-.244.0611l-2.201 1.0291c-.336.163-.479.5603-.326.8966.163.3362.56.489.896.326l1.661-.7743.927 1.4569c.194.3159.622.4076.938.2038.315-.2038.407-.6215.203-.9373l-1.243-1.9562z" fill="url(#aQ)"/><path d="m130.446 46.5012 4.021.3404s.073 0 .113-.0162l2.821-.7377 2.165 1.0296c-.049.1621-.089.3486-.106.5269v.073c-.024.1783-.008.3648.025.535l-2.319.6567-2.659-1.1998s-.073-.0325-.113-.0325l-4.021-.3404c-.154-.0163-.284.081-.333.2107-.04.146.017.2919.13.3648l3.672 2.351-1.864 4.4506c-.065.1216-.024.2756.097.3648.106.0973.268.0973.381 0l3.478-2.5536c.049-.0243.081-.073.114-.1135l1.288-2.8941 2.311-.6567c.073.2108.194.4054.332.5837.154.1621.316.3081.511.4135l-1.03 2.1645-3.064.7944c-.049.0243-.105.0406-.138.0892l-3.096 2.9995c-.106.0892-.138.2513-.057.3729.065.1297.211.1946.34.154l4.702-1.0944 1.703 4.0129c.048.1297.194.2026.34.1945.138-.0243.251-.1459.268-.2918l.34-4.021s0-.0729-.016-.1135l-.738-2.8211 1.03-2.1645c.162.0486.348.0892.519.1054h.072c.179.0243.365.0081.536-.0243l.648 2.3185-1.2 2.659s-.032.073-.032.1135l-.341 4.021c-.016.154.081.2837.211.3323.146.0406.292-.0162.365-.1297l2.351-3.6723 4.451 1.8645c.137.0649.275.0243.364-.0973.098-.1054.098-.2675 0-.381l-2.553-3.4778c-.025-.0486-.073-.081-.114-.1135l-2.886-1.2889-.656-2.3105c.21-.0729.405-.1945.583-.3324.162-.154.308-.3161.414-.5107l2.164 1.0296.795 3.0643c.024.0487.04.1054.089.1378l2.999 3.0968c.106.1135.252.1378.373.0568.13-.0649.195-.2108.154-.3405l-1.094-4.6938 4.013-1.7024c.129-.0487.202-.1865.194-.3405-.024-.1378-.146-.2513-.292-.2675l-4.021-.3405s-.072 0-.113.0162l-2.821.7377-2.165-1.0296c.049-.1621.089-.3486.106-.5269v-.073c.024-.1783.008-.3648-.025-.535l2.319-.6567 2.659 1.1998s.073.0325.113.0325l4.021.3405c.154.0162.284-.0811.333-.2108.04-.1459-.016-.2919-.13-.3648l-3.672-2.351 1.864-4.4506c.057-.1216.025-.2756-.097-.3648-.049-.0405-.105-.073-.17-.073s-.138.0244-.211.073l-3.478 2.5536c-.049.0243-.081.0649-.113.1135l-1.289 2.886-2.311.6567c-.073-.2108-.194-.4054-.332-.5837-.154-.1621-.316-.3081-.511-.4135l1.03-2.1645 3.064-.7944c.049-.0243.105-.0406.138-.0892l3.097-3.0076c.105-.0892.137-.2513.056-.3729-.064-.1297-.202-.1946-.34-.154l-4.694 1.0944-1.702-4.0129c-.041-.1054-.146-.1783-.26-.1864h-.073c-.138.0243-.251.1378-.267.2918l-.341 4.021s0 .0729.017.1135l.737 2.8211-1.029 2.1645c-.171-.0486-.357-.0892-.56-.1135h-.04c-.179-.0162-.365-.0081-.535.0243l-.657-2.3185 1.2-2.659s.032-.073.032-.1135l.341-4.021c.016-.154-.081-.2837-.211-.3323h-.073c-.113-.0162-.235.0405-.292.1378l-2.343 3.6723-4.45-1.8645s-.049-.0162-.098-.0243c-.178 0-.34.1135-.356.2837-.008.0973.048.2027.129.2756l2.514 3.413c.024.0486.064.0811.113.1135l2.886 1.289.657 2.3104c-.211.0729-.406.1945-.584.3324-.162.154-.308.3161-.413.5107l-2.165-1.0296-.794-3.0643c-.025-.0568-.041-.1054-.09-.1378l-3.007-3.0968c-.057-.0568-.13-.0973-.195-.1054 0 0-.008 0-.024 0-.162-.0162-.324.1216-.341.2999 0 .0649.017.1297.049.1784l1.078 4.6046-4.013 1.7024c-.129.0487-.202.1865-.194.3405.024.1378.146.2513.292.2676zm1.143 1.5646 2.699.227 1.93.8674-1.995.5675h-.016zm3.915 3.9966-2.505 1.824 1.516-3.5832 2.035-.5918-1.046 2.3429zm1.127 1.3376 2.481-.6404-.916 1.9051-3.786.8998zm3.519 1.824-.227 2.6996-1.216-2.8617h.016l.891-1.8889.536 2.0429zm1.856 2.8779.227-2.6995.867-1.9294.568 1.9942v.0163zm3.997-3.9155 1.824 2.505-3.584-1.516-.591-2.0348 2.342 1.0458zm3.502 1.0944-2.165-2.2213-.64-2.4806 1.905.9241.9 3.7859zm-.341-5.7315 2.7.227-2.862 1.216v-.0162l-1.889-.8918 2.043-.535zm2.878-1.8564-2.699-.227-1.93-.8675 1.994-.5674h.017zm-3.915-3.9967 2.505-1.824-1.516 3.5832-2.035.5837zm-1.127-1.3376-2.481.6404.924-1.905 3.786-.8999-2.221 2.1645zm-3.519-1.824.227-2.6996 1.216 2.8617h-.016l-.892 1.8889-.535-2.0429zm-1.856-2.8779-.227 2.6995-.867 1.9294-.568-1.9942v-.0162zm-3.997 3.9155-1.824-2.5049 3.583 1.5159.592 2.0348-2.343-1.0458zm2.773 5.2532c.073-.1054.154-.2026.251-.2918.106-.0892.227-.154.357-.2189.194-.0811.405-.1459.608-.154.105-.0162.203-.0162.308-.0081h.073c.097.0162.203.0324.3.0648.202.0406.397.1378.575.2513.106.073.203.1541.292.2513.089.1054.154.227.219.3567.081.1946.146.4054.154.608.016.1054.024.2027.016.3081v.073c-.016.0972-.032.2026-.073.2999-.04.2027-.137.3891-.251.5756-.073.1054-.154.2027-.251.2918-.106.0892-.227.1541-.357.2189-.194.0811-.405.1459-.608.1541-.105.0162-.203.0243-.308.0081h-.073c-.097-.0163-.203-.0325-.3-.073-.203-.0405-.397-.1378-.575-.2513-.106-.073-.203-.154-.292-.2513-.089-.1054-.154-.227-.219-.3567-.081-.1946-.146-.4054-.154-.608-.016-.1054-.025-.2027-.008-.3081v-.0729c.016-.0973.032-.2027.073-.3.04-.2027.137-.3972.251-.5756zm-6.275-6.3476 2.165 2.2213.64 2.4807-1.905-.9161zm.503 4.2966v.0162l1.889.8918-2.043.535-2.7-.227 2.862-1.216z" fill="url(#aR)"/><path d="m132.416 50.5544-.9-.5999c-.049-.0325-.098-.0487-.146-.0568-.114-.0081-.219.0406-.292.1378-.097.146-.057.3405.089.4378l.665.4459-.381.762c-.081.154-.016.3486.138.4216.154.081.348.0162.421-.1379l.511-1.0133c.073-.1459.024-.3162-.105-.4053z" fill="url(#aS)"/><path d="m145.905 57.6884-1.013-.5107s-.073-.0324-.114-.0324c-.113-.0081-.219.0405-.292.1378l-.599.8998c-.098.146-.057.3405.089.4378s.34.0568.437-.0892l.446-.6647.762.381c.154.0811.349.0162.422-.1378.081-.154.016-.3486-.138-.4216z" fill="url(#aT)"/><path d="m151.223 45.204.9.5999c.146.0973.341.0567.438-.0892s.057-.3405-.089-.4378l-.665-.4458.381-.7621c.081-.154.016-.3486-.138-.4215-.04-.0162-.073-.0324-.113-.0324-.122-.0081-.252.0567-.308.1702l-.511 1.0133c-.073.146-.024.3162.105.4054z" fill="url(#aU)"/><path d="m137.726 38.0783 1.013.5107c.146.073.316.0243.405-.1054l.6-.8998c.097-.146.057-.3405-.089-.4378-.049-.0324-.097-.0486-.146-.0567-.113-.0082-.219.0405-.284.1378l-.446.6647-.762-.381c-.154-.0811-.348-.0162-.421.1378-.081.154-.016.3486.138.4216z" fill="url(#aV)"/><path d="m132.01 44.1177.989-.4458c.146-.0649.219-.227.17-.381l-.332-1.0782c-.041-.1298-.154-.2108-.276-.2189-.04 0-.081 0-.121.0162-.162.0486-.26.227-.211.3972l.251.8188-.729.3324c-.162.0729-.227.2594-.154.4134.073.1622.259.227.413.154z" fill="url(#aW)"/><path d="m137.612 56.7076c-.049-.1054-.146-.1784-.259-.1865-.041 0-.081 0-.122.0162l-1.078.3324c-.162.0487-.26.227-.211.3891.049.1703.227.2595.397.2108l.819-.2513.332.7377c.073.1622.26.227.414.154.162-.0729.227-.2594.154-.4134z" fill="url(#aX)"/><path d="m151.783 51.6165c-.049 0-.106 0-.154.0243l-.989.4459c-.146.0648-.219.227-.171.381l.333 1.0782c.048.1703.227.2594.397.2108.162-.0487.259-.227.211-.3972l-.252-.8188.73-.3324c.162-.073.227-.2594.154-.4134-.049-.1054-.154-.1784-.259-.1865z" fill="url(#aY)"/><path d="m146.027 39.0592c.065.1459.227.2188.381.1702l1.078-.3324c.162-.0486.26-.227.211-.3972s-.227-.2594-.397-.2108l-.819.2513-.332-.7296c-.049-.1054-.155-.1783-.26-.1864-.049 0-.105 0-.154.0243-.162.0729-.227.2594-.154.4134l.446.9891z" fill="url(#aZ)"/><path d="m114.064 29.3348-8.179 4.4541.238.438 8.18-4.4541z" fill="url(#a0)"/><path d="m111.703 30.905 1.01-1.8446.439.2415-.645 1.1716 1.306.1069-.043.4948z" fill="url(#a1)"/><path d="m109.689 32.0014 1.579-2.8776.439.2414-1.211 2.2008 2.458.2058-.039.4948z" fill="url(#a2)"/><path d="m107.662 33.1058 1.817-3.7603.447.2177-1.516 3.1388 3.464.4552-.064.4948z" fill="url(#a3)"/><path d="m105.885 33.788-8.1799 4.4541.2385.438 8.1794-4.4541z" fill="url(#a4)"/><path d="m98.8549 38.7224.6452-1.1716-1.3063-.1069.0436-.4987 2.0706.1702-1.0138 1.8445z" fill="url(#a5)"/><path d="m100.304 38.6552 1.207-2.2008-2.4583-.2019.0436-.4987 3.2217.2652-1.579 2.8776z" fill="url(#a6)"/><path d="m102.081 38.4573 1.516-3.1389-3.464-.4552.068-.4948 4.144.5462-1.817 3.7604z" fill="url(#a7)"/><path d="m106.224 33.8821-.438.2385 4.454 8.1796.438-.2385z" fill="url(#a8)"/><path d="m108.937 41.7782.174-2.0702 1.844 1.0133-.241.4354-1.172-.6412-.107 1.3022z" fill="url(#a9)"/><path d="m107.749 40.9193.265-3.222 2.878 1.5793-.242.4354-2.204-1.2073-.202 2.4541z" fill="url(#ba)"/><path d="m106.364 39.815.546-4.1483 3.756 1.8169-.213.4512-3.139-1.516-.455 3.4595z" fill="url(#bb)"/><path d="m101.771 25.7028-.438.2385 4.454 8.1796.438-.2385z" fill="url(#bc)"/><path d="m101.056 27.2991.237-.4354 1.172.6412.107-1.3023.498.0396-.17 2.0702z" fill="url(#bd)"/><path d="m101.119 28.7478.238-.4393 2.204 1.2112.202-2.4581.499.0396-.269 3.222z" fill="url(#be)"/><path d="m101.341 30.5369.217-.4512 3.139 1.52.455-3.4635.491.0633-.542 4.1483z" fill="url(#bf)"/><path d="m106.067 33.7652-.141.4783 8.933 2.6343.141-.4783z" fill="url(#bg)"/><path d="m112.23 35.8449 2.018-.5898.139.479-1.282.372.847.9975-.38.3246z" fill="url(#bh)"/><path d="m110.033 35.1958 3.151-.9183.138.4789-2.414.7046 1.595 1.8801-.38.3206z" fill="url(#bi)"/><path d="m107.816 34.5427 3.943-1.3735.162.471-3.289 1.1479 2.125 2.7708-.396.3008z" fill="url(#bj)"/><path d="m97.1411 31.1321-.1411.4784 8.933 2.6343.141-.4784z" fill="url(#bk)"/><path d="m97.7584 32.7653-.1385-.4789 1.2824-.3721-.847-.9974.38-.3246 1.3418 1.5833z" fill="url(#bl)"/><path d="m98.8273 33.743-.1425-.4789 2.4142-.7006-1.5948-1.8841.38-.3206 2.0938 2.4659z" fill="url(#bm)"/><path d="m100.248 34.8514-.162-.4711 3.289-1.1478-2.125-2.7668.395-.3048 2.546 3.317z" fill="url(#bn)"/><path d="m105.758 33.9344-2.635 8.9334.479.1411 2.634-8.9334z" fill="url(#bo)"/><path d="m102.588 41.5763 1.583-1.3418.59 2.0226-.479.1386-.376-1.2825-.998.8431z" fill="url(#bp)"/><path d="m102.35 40.1277 2.47-2.09.914 3.1508-.479.1385-.7-2.4106-1.88 1.5913z" fill="url(#bq)"/><path d="m102.152 38.3701 3.321-2.5491 1.374 3.9464-.471.1623-1.148-3.2933-2.771 2.1296z" fill="url(#br)"/><path d="m108.392 25.0001-2.634 8.9334.478.141 2.634-8.9333z" fill="url(#bs)"/><path d="m107.836 27.7859-.586-2.0186.479-.1425.372 1.2824.998-.8431.32.38z" fill="url(#bt)"/><path d="m107.191 29.9828-.918-3.1508.479-.1385.7 2.4145 1.88-1.5952.325.38z" fill="url(#bu)"/><path d="m106.538 32.1993-1.378-3.9424.471-.1662 1.148 3.2932 2.771-2.1255.305.3958z" fill="url(#bv)"/><path d="m335.223 43.1707c-1.08.8864-2.679.7335-3.566-.3464-.886-1.08-.733-2.6796.347-3.566s2.679-.7336 3.566.3464c.886 1.08.733 2.6796-.347 3.566z" fill="url(#bw)"/><path d="m354.539 146.59c1.212-.174 2.333.672 2.496 1.884.163 1.213-.673 2.334-1.885 2.497s-2.333-.673-2.496-1.885c-.163-1.213.672-2.333 1.885-2.496z" fill="url(#bx)"/><path d="m88.2688 48.2597c-1.4672.2139-2.8426-.8049-3.0566-2.2721-.2139-1.4671.8049-2.8425 2.2721-3.0565 1.4671-.214 2.8425.8049 3.0565 2.272.214 1.4672-.8049 2.8426-2.272 3.0566z" fill="url(#by)"/><path d="m160.322 54.7041c-1.218-.6537-1.678-2.171-1.025-3.3816.654-1.2187 2.171-1.6788 3.381-1.025 1.218.6537 1.678 2.171 1.025 3.3816-.654 1.2107-2.171 1.6788-3.381 1.025z" fill="url(#bz)"/><path d="m311.066 131.413c-3.637.795-7.223-1.518-8.018-5.155-.795-3.638 1.518-7.224 5.155-8.019 3.638-.794 7.224 1.518 8.019 5.156.794 3.637-1.518 7.223-5.156 8.018z" fill="url(#bA)"/><path d="m206.794 100.496c-.917 1.61-2.965 2.181-4.575 1.274s-2.18-2.9649-1.273-4.5747c.917-1.6098 2.965-2.1803 4.574-1.2735 1.61.9169 2.181 2.9648 1.274 4.5742z" fill="url(#bB)"/></g></svg>