<svg fill="none" height="45" viewBox="0 0 41 45" width="41" xmlns="http://www.w3.org/2000/svg" xmlns:xlink="http://www.w3.org/1999/xlink"><linearGradient id="a"><stop offset="0" stop-color="#e5ad74"/><stop offset="1" stop-color="#bb834a"/></linearGradient><linearGradient id="b" gradientUnits="userSpaceOnUse" x1="25.0402" x2="20.8061" xlink:href="#a" y1="4.7187" y2="20.5916"/><linearGradient id="c" gradientUnits="userSpaceOnUse" x1="23.5812" x2="21.9767" xlink:href="#a" y1="9.80202" y2="15.8169"/><linearGradient id="d" gradientUnits="userSpaceOnUse" x1="24.358" x2="23.392" xlink:href="#a" y1="7.13837" y2="10.76"/><linearGradient id="e" gradientUnits="userSpaceOnUse" x1="14.2867" x2="12.0198" xlink:href="#a" y1="10.9331" y2="19.4315"/><linearGradient id="f" gradientUnits="userSpaceOnUse" x1="13.5984" x2="11.0726" xlink:href="#a" y1="9.12862" y2="18.5974"/><linearGradient id="g" gradientUnits="userSpaceOnUse" x1="10.7111" x2="9.26358" xlink:href="#a" y1="9.02428" y2="14.4508"/><linearGradient id="h" gradientUnits="userSpaceOnUse" x1="11.5903" x2="9.32337" xlink:href="#a" y1="20.6578" y2="29.1562"/><linearGradient id="i" gradientUnits="userSpaceOnUse" x1="10.4336" x2="7.88231" xlink:href="#a" y1="21.0554" y2="30.6198"/><linearGradient id="j" gradientUnits="userSpaceOnUse" x1="6.71682" x2="5.28721" xlink:href="#a" y1="23.7002" y2="29.0596"/><linearGradient id="k" gradientUnits="userSpaceOnUse" x1="19.6471" x2="15.413" xlink:href="#a" y1="24.1682" y2="40.0411"/><linearGradient id="l" gradientUnits="userSpaceOnUse" x1="18.4756" x2="16.8708" xlink:href="#a" y1="28.9419" y2="34.9581"/><linearGradient id="m" gradientUnits="userSpaceOnUse" x1="17.0597" x2="16.0954" xlink:href="#a" y1="34.0059" y2="37.6207"/><linearGradient id="n" gradientUnits="userSpaceOnUse" x1="28.4336" x2="26.1666" xlink:href="#a" y1="25.3279" y2="33.8263"/><linearGradient id="o" gradientUnits="userSpaceOnUse" x1="29.3808" x2="26.855" xlink:href="#a" y1="26.1621" y2="35.6308"/><linearGradient id="p" gradientUnits="userSpaceOnUse" x1="31.19" x2="29.7426" xlink:href="#a" y1="30.3077" y2="35.7339"/><linearGradient id="q" gradientUnits="userSpaceOnUse" x1="31.1313" x2="28.8644" xlink:href="#a" y1="15.6035" y2="24.1019"/><linearGradient id="r" gradientUnits="userSpaceOnUse" x1="32.569" x2="30.0181" xlink:href="#a" y1="14.1392" y2="23.7023"/><linearGradient id="s" gradientUnits="userSpaceOnUse" x1="35.1643" x2="33.735" xlink:href="#a" y1="15.6993" y2="21.0574"/><linearGradient id="t" gradientUnits="userSpaceOnUse" x1="21.01" x2="19.4436" xlink:href="#a" y1="19.4432" y2="25.3153"/><linearGradient id="u" gradientUnits="userSpaceOnUse" x1="19.0224" x2="17.7587" xlink:href="#a" y1="12.8447" y2="17.582"/><linearGradient id="v" gradientUnits="userSpaceOnUse" x1="13.4616" x2="12.7431" xlink:href="#a" y1="19.0445" y2="21.7381"/><linearGradient id="w" gradientUnits="userSpaceOnUse" x1="15.5597" x2="14.3191" xlink:href="#a" y1="25.2263" y2="29.8769"/><linearGradient id="x" gradientUnits="userSpaceOnUse" x1="22.6935" x2="21.4295" xlink:href="#a" y1="27.1763" y2="31.9148"/><linearGradient id="y" gradientUnits="userSpaceOnUse" x1="27.7093" x2="26.9904" xlink:href="#a" y1="23.0196" y2="25.7144"/><linearGradient id="z" gradientUnits="userSpaceOnUse" x1="26.1343" x2="24.8934" xlink:href="#a" y1="14.882" y2="19.5338"/><g opacity=".3"><path d="m20.8061 20.5916c-.3101-.0827-.494-.4003-.4112-.7104l3.9349-14.75126c.0827-.31015.4003-.49397.7104-.41124.3102.08273.494.4003.4113.71045l-3.935 14.75125c-.0827.3101-.4003.494-.7104.4112z" fill="url(#b)"/><path d="m22.0252 15.8298c-.1435-.0383-.2725-.1308-.353-.2699l-3.5887-6.19799c-.1615-.277-.0667-.63237.2116-.79345.277-.16143.6324-.06664.7935.21165l3.2978 5.69539 5.5739-3.2264c.277-.1614.6324-.0666.7935.2116.1614.277.0666.6324-.2117.7935l-6.0764 3.5173c-.1392.0806-.2971.0966-.4405.0583z" fill="url(#c)"/><path d="m23.3577 10.7508c-.1434-.0382-.2724-.1308-.3529-.2699l-1.7824-3.07919c-.1614-.27699-.0666-.63237.2117-.79345.277-.16143.6324-.06663.7934.21165l1.4915 2.57661 2.6634-1.54167c.277-.16143.6323-.06663.7934.21166.1614.27699.0666.63237-.2116.79345l-3.166 1.83254c-.1391.0806-.297.0966-.4405.0583z" fill="url(#d)"/><path d="m18.4065 21.1338c-.0956-.0255-.1847-.0756-.2604-.1498l-10.8068-10.7824c-.22743-.22681-.22783-.59373-.00106-.82116.22677-.22742.5937-.22783.82112-.00105l10.80774 10.78411c.2274.2268.2278.5937.0011.8211-.1513.1521-.3669.2025-.5607.1508z" fill="url(#e)"/><path d="m7.7295 17.7056c-.24812-.0662-.43014-.2919-.43046-.5605-.00015-.3212.25893-.5815.58011-.5817l6.58135-.0079-.0066-6.4411c-.0001-.32123.2589-.58156.5801-.58171.3203-.00178.5802.25859.5817.58011l.0081 7.0216c.0005.1537-.0612.302-.1689.4103-.1095.1092-.2558.1699-.4108.17l-7.16142.0083c-.05255-.0002-.10209-.0065-.1512-.0196z" fill="url(#f)"/><path d="m7.60305 14.0079c-.24811-.0662-.43014-.2919-.43046-.5606-.00015-.3211.25894-.5815.58011-.5816l2.9756-.0036-.0029-3.07649c-.0001-.32118.2589-.58152.5801-.58166.3202-.00179.5815.25893.5817.58011l.0042 3.65824c.0005.1538-.0612.302-.169.4103-.1094.1093-.2557.1699-.4108.1701l-3.55701.0035c-.05255-.0002-.10209-.0065-.15119-.0196z" fill="url(#g)"/><path d="m2.93569 27.4523c-.19384-.0517-.35563-.2028-.41109-.41-.08337-.3102.09973-.6282.40988-.7115l14.74302-3.9684c.3101-.0834.6281.0997.7115.4098.0833.3102-.0998.6282-.4099.7115l-14.74394 3.9668c-.10167.0283-.20479.0257-.30042.0002z" fill="url(#h)"/><path d="m9.37005 31.0153c-.04781-.0128-.0952-.0324-.14086-.0584-.27843-.1601-.37343-.5149-.21333-.7933l3.28344-5.7033-5.58208-3.2138c-.27843-.1601-.37343-.5149-.21334-.7933.1601-.2784.51523-.3747.79332-.2134l6.0846 3.5043c.2785.1601.3735.5149.2134.7933l-3.5743 6.2071c-.1341.2328-.40437.3379-.65249.2717z" fill="url(#i)"/><path d="m6.10456 29.2776c-.04781-.0128-.09519-.0323-.14085-.0583-.27843-.1601-.37343-.5149-.21334-.7934l1.48548-2.5798-2.66597-1.5361c-.27843-.1601-.37343-.5149-.21334-.7933.1601-.2785.51523-.3748.79332-.2134l3.17011 1.8257c.27844.1601.37343.5149.21334.7933l-1.77465 3.0827c-.13407.2327-.40434.3378-.65246.2716z" fill="url(#j)"/><path d="m15.413 40.0411c-.3101-.0827-.4939-.4003-.4112-.7105l3.9349-14.7512c.0827-.3101.4003-.494.7104-.4112.3102.0827.494.4003.4113.7104l-3.9349 14.7512c-.0828.3102-.4003.494-.7105.4113z" fill="url(#k)"/><path d="m21.7161 36.2506c-.1434-.0383-.2724-.1308-.3529-.27l-3.2975-5.6967-5.5739 3.2265c-.277.1614-.6324.0666-.7935-.2117-.1614-.277-.0666-.6324.2117-.7935l6.0764-3.5173c.277-.1614.6324-.0666.7935.2117l3.5884 6.1992c.1614.277.0666.6324-.2117.7935-.1391.0805-.297.0965-.4405.0583z" fill="url(#l)"/><path d="m13.6304 36.9632c-.1434-.0383-.2724-.1308-.3529-.27-.1614-.277-.0666-.6323.2116-.7934l3.166-1.8326c.2668-.1544.639-.0552.7934.2117l1.7824 3.0791c.1614.277.0666.6324-.2117.7935-.277.1614-.6323.0666-.7934-.2117l-1.4915-2.5766-2.6634 1.5417c-.1391.0805-.297.0965-.4405.0583z" fill="url(#m)"/><path d="m32.5543 35.5302c-.0956-.0255-.1847-.0756-.2604-.1498l-10.8078-10.7841c-.2274-.2267-.2278-.5937-.001-.8211s.5937-.2278.8211-.001l10.8078 10.7841c.2274.2267.2278.5937.001.8211-.1513.152-.3669.2025-.5607.1508z" fill="url(#n)"/><path d="m25.2688 35.2049c-.2481-.0662-.4302-.2919-.4305-.5605l-.0081-7.0216c-.0005-.1538.0612-.302.1689-.4103.1095-.1092.2558-.1699.4108-.17l7.1627-.0079c.3202-.0018.5802.2586.5817.5801.0001.3212-.259.5815-.5801.5817l-6.5814.0079.0066 6.4411c.0002.3212-.2589.5815-.5801.5817-.0526-.0002-.1021-.0065-.1512-.0196z" fill="url(#o)"/><path d="m28.997 35.535c-.2481-.0662-.4302-.292-.4305-.5606l-.0042-3.6582c-.0001-.3212.259-.5815.5801-.5817l3.557-.0035c.3199-.0005.5816.2589.5817.5801s-.2589.5815-.5801.5817l-2.9757.0035.003 3.0766c.0001.3211-.2589.5815-.5801.5816-.0526-.0002-.1021-.0064-.1512-.0195z" fill="url(#p)"/><path d="m22.4767 22.398c-.1938-.0517-.3556-.2028-.4111-.41-.0834-.3102.0997-.6282.4099-.7115l14.743-3.9685c.3101-.0833.6281.0998.7115.4099.0834.3102-.0997.6282-.4099.7115l-14.743 3.9684c-.1016.0283-.2048.0257-.3004.0002z" fill="url(#q)"/><path d="m33.2946 24.5763c-.0478-.0128-.0952-.0323-.1408-.0583l-6.0847-3.5043c-.2784-.1601-.3734-.5149-.2133-.7933l3.5739-6.2058c.1601-.2785.5153-.3747.7933-.2134.2785.1601.3735.5149.2134.7934l-3.2835 5.7033 5.5821 3.2138c.2785.1601.3735.5148.2134.7933-.1341.2327-.4044.3378-.6525.2716z" fill="url(#r)"/><path d="m35.4438 21.5118c-.0478-.0127-.0952-.0323-.1408-.0583l-3.1701-1.8257c-.1331-.077-.2311-.2028-.2716-.352-.0404-.1492-.0191-.3069.0579-.44l1.7746-3.0826c.1601-.2785.5153-.3748.7934-.2134.2784.1601.3734.5149.2133.7933l-1.4855 2.5798 2.6663 1.5349c.2785.1601.3735.5149.2134.7933-.1341.2328-.4044.3379-.6525.2717z" fill="url(#s)"/><path d="m19.4436 25.3153c-1.6192-.4319-2.5847-2.1-2.1528-3.7192s2.1-2.5848 3.7192-2.1529 2.5848 2.1 2.1528 3.7192c-.4319 1.6193-2.1 2.5848-3.7192 2.1529zm1.2668-4.7491c-1.0002-.2668-2.0315.3302-2.2983 1.3304s.3302 2.0315 1.3304 2.2983 2.0315-.3302 2.2983-1.3304-.3301-2.0315-1.3304-2.2983z" fill="url(#t)"/><path d="m19.8351 15.3163-1.4561-2.4703c-.1315-.2234-.3945-.3323-.6456-.2678-.2512.0645-.4282.2872-.4349.5457l-.0827 3.0135c-.0044.1567.0558.3098.1657.4221l1.1057 1.1324c.0737.0764.1663.1288.2658.1554.0995.0265.1991.0268.2991-.0005.2027-.0539.3599-.2127.4128-.4159l.4331-1.6757c.0396-.1486.0168-.3069-.0625-.4402z" fill="url(#u)"/><path d="m15.7149 21.1314c.0541-.2029-.0048-.418-.1537-.5656l-1.2351-1.2127c-.1096-.1081-.2586-.1672-.4123-.1667l-2.8667.0257c-.2596.0028-.4842.1754-.5537.4254-.0694.25.0345.5144.2559.6496l2.5686 1.5794c.0488.0296.101.0519.154.066.0956.0255.1965.0261.2929.002l1.5332-.3925c.2036-.0523.3618-.2094.4172-.4119z" fill="url(#v)"/><path d="m16.8899 25.6625c-.1486-.149-.3647-.2053-.5664-.1497l-1.6683.463c-.1479.0408-.2741.1401-.3498.2735l-1.4105 2.496c-.1278.2248-.0897.5076.0906.6928.0751.0768.1667.1275.2649.1537.1396.0372.2917.0224.4258-.0498l2.6517-1.4354c.139-.075.241-.2029.2826-.3537l.4272-1.5236c.0567-.2022-.0006-.4182-.1478-.5668z" fill="url(#w)"/><path d="m23.2368 28.6193c.0044-.1566-.0558-.3097-.1657-.4221l-1.106-1.1311c-.1456-.1495-.3623-.2087-.565-.1548-.2026.0539-.3599.2126-.4127.4159l-.4331 1.6756c-.0397.1486-.0168.307.0625.4403l1.4561 2.4703c.079.1345.2063.228.3511.2666.0943.0252.1949.0271.2945.0011.2512-.0645.4282-.2872.4349-.5457l.0827-3.0135z" fill="url(#x)"/><path d="m29.7042 24.4713-2.5686-1.5794c-.1343-.0829-.2955-.1065-.4482-.0684l-1.5332.3925c-.2036.0523-.3618.2094-.4172.412-.0541.2029.0048.4179.1536.5656l1.2352 1.2126c.0725.0706.1616.1206.2572.1461.0504.0135.1026.0205.1555.0193l2.8666-.0257c.2596-.0027.4842-.1753.5537-.4253.0691-.2488-.0344-.5145-.2558-.6497z" fill="url(#y)"/><path d="m23.5633 19.0973c.0731.0735.1644.1255.2614.1514.0969.0258.2033.0265.3049-.0017l1.6683-.4631c.148-.0408.2741-.14.3498-.2735l1.4106-2.496c.1278-.2247.0897-.5076-.0907-.6927-.1817-.1855-.4626-.2272-.6907-.104l-2.6516 1.4355c-.1378.0753-.241.2028-.2826.3537l-.4272 1.5236c-.0567.2022.0006.4182.1478.5668z" fill="url(#z)"/></g></svg>