<svg fill="none" height="69" viewBox="0 0 64 69" width="64" xmlns="http://www.w3.org/2000/svg" xmlns:xlink="http://www.w3.org/1999/xlink"><linearGradient id="a"><stop offset="0" stop-color="#e5ad74"/><stop offset="1" stop-color="#bb834a"/></linearGradient><linearGradient id="b" gradientUnits="userSpaceOnUse" x1="24.9149" x2="31.0466" xlink:href="#a" y1="5.92812" y2="31.3833"/><linearGradient id="c" gradientUnits="userSpaceOnUse" x1="26.7341" x2="29.0576" xlink:href="#a" y1="14.1586" y2="23.8045"/><linearGradient id="d" gradientUnits="userSpaceOnUse" x1="25.7982" x2="27.1972" xlink:href="#a" y1="9.83649" y2="15.6444"/><linearGradient id="e" gradientUnits="userSpaceOnUse" x1="14.5729" x2="17.8558" xlink:href="#a" y1="22.8069" y2="36.4356"/><linearGradient id="f" gradientUnits="userSpaceOnUse" x1="12.2371" x2="15.8949" xlink:href="#a" y1="20.802" y2="35.987"/><linearGradient id="g" gradientUnits="userSpaceOnUse" x1="8.11285" x2="10.2091" xlink:href="#a" y1="22.8502" y2="31.5527"/><linearGradient id="h" gradientUnits="userSpaceOnUse" x1="18.1859" x2="21.4688" xlink:href="#a" y1="38.48" y2="52.1087"/><linearGradient id="i" gradientUnits="userSpaceOnUse" x1="16.8677" x2="20.5624" xlink:href="#a" y1="39.916" y2="55.2543"/><linearGradient id="j" gradientUnits="userSpaceOnUse" x1="13.6706" x2="15.7409" xlink:href="#a" y1="46.4462" y2="55.0409"/><linearGradient id="k" gradientUnits="userSpaceOnUse" x1="32.1411" x2="38.2728" xlink:href="#a" y1="37.2746" y2="62.7297"/><linearGradient id="l" gradientUnits="userSpaceOnUse" x1="34.1278" x2="36.4518" xlink:href="#a" y1="44.8529" y2="54.5009"/><linearGradient id="m" gradientUnits="userSpaceOnUse" x1="35.9928" x2="37.3892" xlink:href="#a" y1="53.0233" y2="58.8203"/><linearGradient id="n" gradientUnits="userSpaceOnUse" x1="45.3318" x2="48.6147" xlink:href="#a" y1="32.2217" y2="45.8504"/><linearGradient id="o" gradientUnits="userSpaceOnUse" x1="47.2929" x2="50.9507" xlink:href="#a" y1="32.6703" y2="47.8552"/><linearGradient id="p" gradientUnits="userSpaceOnUse" x1="52.9783" x2="55.0743" xlink:href="#a" y1="37.1034" y2="45.8051"/><linearGradient id="q" gradientUnits="userSpaceOnUse" x1="41.7208" x2="45.0037" xlink:href="#a" y1="16.5479" y2="30.1767"/><linearGradient id="r" gradientUnits="userSpaceOnUse" x1="42.6221" x2="46.3163" xlink:href="#a" y1="13.4039" y2="28.7401"/><linearGradient id="s" gradientUnits="userSpaceOnUse" x1="47.4434" x2="49.5132" xlink:href="#a" y1="13.6172" y2="22.2098"/><linearGradient id="t" gradientUnits="userSpaceOnUse" x1="30.4594" x2="32.7278" xlink:href="#a" y1="29.6195" y2="39.0364"/><linearGradient id="u" gradientUnits="userSpaceOnUse" x1="22.6601" x2="24.4901" xlink:href="#a" y1="21.8859" y2="29.4832"/><linearGradient id="v" gradientUnits="userSpaceOnUse" x1="19.5815" x2="20.622" xlink:href="#a" y1="34.7977" y2="39.1173"/><linearGradient id="w" gradientUnits="userSpaceOnUse" x1="27.219" x2="29.0155" xlink:href="#a" y1="41.8636" y2="49.3217"/><linearGradient id="x" gradientUnits="userSpaceOnUse" x1="38.6952" x2="40.5257" xlink:href="#a" y1="39.1739" y2="46.7728"/><linearGradient id="y" gradientUnits="userSpaceOnUse" x1="42.5631" x2="43.604" xlink:href="#a" y1="29.5385" y2="33.86"/><linearGradient id="z" gradientUnits="userSpaceOnUse" x1="34.1719" x2="35.9688" xlink:href="#a" y1="19.3348" y2="26.7948"/><path d="m31.0466 31.3833c-.4974.1198-.9963-.1854-1.1161-.6828l-5.6983-23.65631c-.1199-.49737.1853-.99626.6827-1.11607.4974-.1198.9963.1854 1.1161.68277l5.6983 23.65631c.1198.4974-.1854.9963-.6827 1.1161z" fill="url(#b)"/><path d="m29.1353 23.7858c-.23.0554-.481.0237-.6996-.11l-9.7381-5.9556c-.4367-.2653-.5739-.8353-.3065-1.2724.2654-.4367.8353-.574 1.2725-.3065l8.9486 5.4726 5.3567-8.7562c.2654-.4367.8353-.574 1.2724-.3066.4367.2654.574.8353.3066 1.2725l-5.8397 9.5457c-.1338.2186-.3428.3611-.5729.4165z" fill="url(#c)"/><path d="m27.1423 15.6576c-.23.0554-.481.0238-.6996-.1099l-4.8372-2.9592c-.4366-.2654-.5739-.8353-.3065-1.2725.2654-.4366.8353-.5739 1.2725-.3065l4.0477 2.4762 2.5595-4.18394c.2654-.43667.8353-.57395 1.2725-.30651.4367.26537.5739.83528.3065 1.27245l-3.0426 4.9734c-.1337.2186-.3427.3611-.5728.4165z" fill="url(#d)"/><path d="m28.097 33.9665c-.1533.0369-.3162.0345-.4786-.0119l-23.33451-6.8925c-.49096-.1449-.77039-.6586-.62553-1.1496.14485-.491.65859-.7704 1.14955-.6255l23.33709 6.8941c.4909.1449.7704.6586.6255 1.1496-.0964.3279-.36.5625-.6709.6374z" fill="url(#e)"/><path d="m10.5337 37.2784c-.3979.0958-.82451-.0821-1.02912-.4582-.2443-.4498-.07919-1.0114.37065-1.2557l9.21407-5.013-4.9044-9.0187c-.2443-.4499-.0792-1.0115.3706-1.2558.4473-.2458 1.0094-.0787 1.2558.3707l5.3478 9.8307c.1176.215.1438.4696.0751.7032-.0703.2362-.2291.4324-.4463.5504l-10.0265 5.4542c-.0737.0397-.1479.0686-.2267.0875z" fill="url(#f)"/><path d="m7.54614 32.1941c-.3979.0959-.82447-.082-1.02908-.4581-.2443-.4499-.07919-1.0115.37066-1.2558l4.16598-2.2665-2.34225-4.3078c-.2443-.4498-.07919-1.0114.37065-1.2557.44728-.2459 1.0115-.0792 1.2558.3706l2.7861 5.1218c.1176.2151.1438.4697.0751.7033-.0703.2362-.2291.4323-.4463.5504l-4.98047 2.7083c-.07376.0397-.14794.0685-.22669.0875z" fill="url(#g)"/><path d="m11.225 54.5762c-.3109.0749-.6524-.0139-.8875-.262-.35256-.3711-.3377-.9558.0334-1.3083l17.6383-16.7642c.3711-.3526.9557-.3377 1.3083.0334.3525.3712.3376.9558-.0335 1.3083l-17.6408 16.7627c-.121.1169-.2674.1916-.4208.2285z" fill="url(#h)"/><path d="m22.9472 54.6776c-.0767.0185-.1579.0271-.2417.0253-.5117-.0126-.9144-.4375-.9018-.9492l.2655-10.4856-10.2628-.2599c-.5117-.0127-.9144-.4375-.9018-.9493.0127-.5117.4371-.9165.9493-.9018l11.1875.285c.5117.0127.9145.4375.9018.9493l-.29 11.4123c-.0109.428-.3097.7806-.7076.8765z" fill="url(#i)"/><path d="m17.0517 54.7252c-.0767.0185-.1579.0271-.2417.0253-.5117-.0127-.9145-.4375-.9018-.9492l.1204-4.7432-4.9023-.1259c-.5118-.0127-.9145-.4376-.9018-.9493.0126-.5117.437-.9165.9492-.9018l5.8287.1484c.5118.0126.9145.4375.9018.9492l-.1434 5.6674c-.0109.428-.3096.7807-.7075.8765z" fill="url(#j)"/><path d="m38.2728 62.7297c-.4974.1198-.9963-.1854-1.1161-.6828l-5.6983-23.6563c-.1199-.4973.1853-.9962.6827-1.116s.9963.1854 1.1161.6827l5.6983 23.6563c.1198.4974-.1854.9963-.6827 1.1161z" fill="url(#k)"/><path d="m44.2222 52.6292c-.23.0554-.481.0237-.6996-.11l-8.9491-5.4747-5.3567 8.7563c-.2654.4366-.8353.5739-1.2725.3065-.4367-.2654-.5739-.8353-.3065-1.2725l5.8397-9.5457c.2654-.4367.8353-.574 1.2724-.3065l9.7386 5.9577c.4367.2653.574.8352.3065 1.2724-.1337.2186-.3427.361-.5728.4165z" fill="url(#l)"/><path d="m33.4361 59.7725c-.23.0554-.481.0238-.6996-.11-.4367-.2653-.574-.8352-.3065-1.2724l3.0425-4.9735c.2565-.4191.8533-.5629 1.2725-.3065l4.8371 2.9592c.4367.2654.574.8353.3065 1.2724-.2653.4367-.8352.574-1.2724.3066l-4.0477-2.4762-2.5596 4.1839c-.1337.2186-.3427.3611-.5728.4165z" fill="url(#m)"/><path d="m58.8585 43.3829c-.1533.0369-.3162.0345-.4786-.0119l-23.3371-6.8941c-.491-.1449-.7704-.6586-.6255-1.1496.1448-.491.6586-.7704 1.1495-.6255l23.3371 6.8941c.4909.1448.7704.6586.6255 1.1496-.0964.3279-.36.5625-.6709.6374z" fill="url(#n)"/><path d="m48.4047 48.4641c-.3979.0959-.8245-.082-1.0291-.4581l-5.3478-9.8307c-.1176-.2151-.1438-.4697-.0751-.7033.0703-.2362.2291-.4323.4463-.5504l10.0286-5.4547c.4472-.2458 1.0093-.0787 1.2557.3707.2443.4498.0792 1.0114-.3706 1.2557l-9.2141 5.013 4.9044 9.0187c.2443.4499.0792 1.0115-.3706 1.2558-.0738.0397-.1479.0685-.2267.0875z" fill="url(#o)"/><path d="m53.8786 46.0932c-.3979.0958-.8245-.0821-1.0291-.4582l-2.7861-5.1218c-.2443-.4499-.0792-1.0115.3706-1.2558l4.9805-2.7082c.4478-.2438 1.0115-.0792 1.2558.3706.2443.4499.0792 1.0115-.3706 1.2558l-4.1661 2.2665 2.3423 4.3078c.2443.4498.0792 1.0115-.3706 1.2558-.0738.0397-.148.0685-.2267.0875z" fill="url(#p)"/><path d="m34.7599 32.6442c-.3108.0749-.6523-.0139-.8875-.262-.3525-.3711-.3377-.9558.0335-1.3083l17.6382-16.7643c.3711-.3525.9558-.3376 1.3083.0335.3525.3712.3376.9558-.0335 1.3083l-17.6382 16.7643c-.121.1168-.2674.1916-.4208.2285z" fill="url(#q)"/><path d="m51.5709 27.4744c-.0767.0185-.158.0271-.2417.0253l-11.1875-.2849c-.5117-.0127-.9145-.4376-.9018-.9493l.2905-11.4103c.0127-.5117.437-.9165.9493-.9018.5117.0127.9144.4375.9018.9493l-.2655 10.4855 10.2627.26c.5118.0126.9145.4375.9018.9492-.0109.428-.3097.7806-.7076.8765z" fill="url(#r)"/><path d="m52.2526 21.5478c-.0767.0185-.1579.0271-.2417.0253l-5.8287-.1484c-.245-.0067-.4778-.1085-.6479-.2868s-.2601-.4153-.2534-.6603l.1434-5.6675c.0127-.5117.437-.9165.9493-.9018.5117.0127.9144.4376.9018.9493l-.1205 4.7432 4.9019.1238c.5118.0127.9145.4375.9018.9493-.0109.428-.3097.7806-.7076.8765z" fill="url(#s)"/><path d="m32.7278 39.0364c-2.5967.6255-5.2172-.9776-5.8426-3.5743-.6255-2.5967.9775-5.2171 3.5742-5.8426s5.2172.9776 5.8427 3.5743-.9776 5.2171-3.5743 5.8426zm-1.8346-7.616c-1.604.3864-2.5951 2.0065-2.2087 3.6105s2.0065 2.5951 3.6105 2.2088c1.604-.3864 2.5951-2.0065 2.2088-3.6105-.3864-1.6041-2.0065-2.5952-3.6106-2.2088z" fill="url(#t)"/><path d="m25.6771 24.7308-3.9174-2.3541c-.3538-.2129-.8051-.1656-1.1079.1156s-.3816.7278-.1945 1.0949l2.1744 4.2847c.1129.2228.3136.3915.5529.4654l2.4096.7461c.1614.0511.3309.0541.4905.0156.1596-.0384.2993-.1137.4187-.228.2429-.2295.3425-.5715.2621-.8963l-.6667-2.6767c-.0574-.2383-.2097-.4428-.4222-.5693z" fill="url(#u)"/><path d="m24.3243 36.0087c-.0784-.3253-.3244-.5818-.6451-.6756l-2.652-.7601c-.2357-.0682-.4893-.0378-.7044.0798l-3.9965 2.2147c-.3616.2011-.5451.6137-.4524 1.0167s.4392.6945.8522.7157l4.7988.2605c.091.0044.181-.0042.266-.0246.1533-.037.2951-.1128.4118-.2199l1.8497-1.715c.2455-.228.3477-.5684.2714-.8942z" fill="url(#v)"/><path d="m29.414 41.4637c-.3213-.0958-.6669-.0104-.9072.2208l-1.9853 1.9166c-.1762.1696-.2775.4045-.2822.649l-.0791 4.5687c-.0082.412.2601.7794.6535.9017.1635.0505.3304.0519.4879.014.2239-.0539.4256-.1902.5587-.3933l2.6239-4.0263c.1378-.2107.1834-.4673.1271-.7103l-.5595-2.4591c-.0742-.3264-.3186-.5854-.6378-.6818z" fill="url(#w)"/><path d="m40.553 40.7826c-.1129-.2228-.3136-.3915-.5529-.4655l-2.4091-.744c-.3176-.0989-.6663-.0171-.9092.2124-.2429.2296-.3425.5715-.2621.8964l.6667 2.6766c.0574.2384.2097.4429.4222.5693l3.9174 2.3541c.2129.1285.4623.1627.6945.1068.1512-.0365.2935-.1102.4134-.2224.3028-.2812.3816-.7278.1945-1.0949l-2.1744-4.2847z" fill="url(#x)"/><path d="m46.4612 30.0561-4.7988-.2605c-.2512-.0141-.4949.0753-.6799.2449l-1.8497 1.7151c-.2455.2279-.3477.5683-.2714.8941.0784.3254.3244.5819.6451.6757l2.652.76c.1553.0438.3181.0462.4715.0093.0808-.0195.1591-.0493.2324-.0911l3.9965-2.2147c.3616-.2011.5451-.6136.4524-1.0167-.0922-.401-.4392-.6945-.8521-.7156z" fill="url(#y)"/><path d="m33.7737 27.1942c.1583.0474.3258.0509.4812.0135.1555-.0375.305-.1173.426-.2342l1.9853-1.9166c.1762-.1696.2775-.4045.2822-.649l.0791-4.5688c.0082-.412-.2601-.7793-.6535-.9016-.3955-.1218-.8208.0333-1.0466.3793l-2.6239 4.0262c-.1357.2103-.1834.4674-.1271.7104l.5595 2.4591c.0742.3263.3186.5854.6378.6817z" fill="url(#z)"/></svg>