<svg fill="none" height="48" viewBox="0 0 46 48" width="46" xmlns="http://www.w3.org/2000/svg"><g fill="#d59c64"><path d="m23.0078 28.3111c-1.4373 0-2.8359-.7766-3.6047-2.1664-1.1453-2.0709-.4627-4.7275 1.52-5.9227 1.9845-1.1951 4.5302-.4828 5.6755 1.5881s.4627 4.7275-1.5201 5.9227c-.6527.3928-1.3652.5801-2.0707.5801zm-.0105-7.0756c-.4451 0-.8972.1175-1.3089.3672-1.2544.7564-1.6854 2.4362-.9624 3.7452.7249 1.309 2.3346 1.7588 3.589 1.0043 1.2544-.7564 1.6854-2.4363.9623-3.7453-.4855-.8794-1.3705-1.3696-2.28-1.3696z"/><path d="m23.11 21.217c-.4223 0-.7636-.3561-.7636-.7968v-7.5805c0-.4406.3413-.7967.7636-.7967.4222 0 .7635.3561.7635.7967v7.5805c0 .4407-.3413.7968-.7635.7968z"/><path d="m20.1175 19.3315c-.2639 0-.5208-.1432-.6615-.3984l-6.0133-10.87041c-.2111-.38187-.0862-.86839.2798-1.0887.3659-.22031.8321-.08996 1.0432.29191l6.0133 10.8704c.2111.3819.0862.8684-.2797 1.0887-.1197.0716-.2516.1065-.3818.1065z"/><path d="m20.2704 19.5666c-.1953 0-.3906-.0771-.5401-.2332-.2991-.3121-.2991-.8151 0-1.1272l2.7445-2.864c.2973-.3121.7811-.3121 1.0802 0l2.7287 2.8475c.299.3121.299.8151 0 1.1272-.2974.3121-.7812.3121-1.0802 0l-2.1886-2.2838-2.2044 2.3003c-.1495.1561-.3448.2332-.5401.2332z"/><path d="m17.3149 24.6374c-.3378 0-.6456-.235-.7371-.5912l-1.0046-3.9142c-.1091-.4241.132-.861.5401-.9767l3.7262-1.0428c.4064-.1156.8251.1377.936.5637.109.4241-.132.861-.5401.9767l-2.9891.8353.8075 3.1431c.1091.4259-.1319.8629-.5401.9767-.0668.0183-.1319.0275-.1988.0275z"/><path d="m20.0453 29.8421c-.0651 0-.132-.0092-.1988-.0276l-3.7508-1.0483c-.1953-.055-.3624-.1891-.4645-.3708-.102-.1836-.1284-.4003-.0756-.604l.9993-3.8885c.109-.4259.5277-.6793.9359-.5636.4082.1138.6492.5508.5401.9767l-.8005 3.1192 3.0119.8427c.4082.1138.6492.5508.5401.9767-.0914.3562-.3993.5911-.7371.5911z"/><path d="m22.985 32.8421c-.1953 0-.3905-.0771-.5401-.2332l-2.7286-2.8456c-.2991-.3121-.2991-.8152 0-1.1273.2973-.3121.7811-.3121 1.0802 0l2.1885 2.2839 2.2062-2.3004c.2991-.3121.7811-.3121 1.0802 0s.2991.8152 0 1.1273l-2.7445 2.864c-.1496.156-.3448.2331-.5401.2331z"/><path d="m25.9636 29.8642c-.3378 0-.6457-.235-.7372-.5911-.1091-.4241.132-.8611.5401-.9767l2.9891-.8354-.8076-3.1431c-.109-.4241.132-.861.5401-.9767.4082-.1156.8269.1377.936.5637l1.0046 3.9141c.109.4241-.132.8611-.5402.9767l-3.7261 1.0428c-.0669.0184-.132.0276-.1988.0276z"/><path d="m28.7081 24.6392c-.0651 0-.132-.0092-.1988-.0275-.4082-.1139-.6492-.5508-.5401-.9767l.8004-3.1193-3.0119-.8426c-.4081-.1139-.6491-.5508-.5401-.9767.1091-.426.5278-.6793.936-.5637l3.749 1.0483c.4082.1139.6492.5508.5401.9767l-.9992 3.8885c-.0915.3562-.3994.5912-.7372.5912z"/><path d="m23.1663 13.6347h-.0545c-.1284 0-.2533-.033-.3659-.0973l-2.8413-1.6192c-.3149-.1781-.4662-.5618-.3677-.9217l2.8184-10.156235v-.027532c0-.396557.278-.7362113.6545-.7912887.3782-.0569133.7371.1854317.8427.5673017l2.887 10.407754c.1002.3599-.0528.7417-.3677.9217l-2.8413 1.6192c-.1126.0643-.2375.0973-.3659.0973zm-1.9915-2.8089 1.9634 1.1199 1.9634-1.1199-1.9634-7.07928z"/><path d="m20.1032 22.8951c-.1302 0-.2604-.0349-.3817-.1065l-6.2913-3.7912c-.3659-.2203-.4908-.7068-.2797-1.0886.2111-.3801.6773-.5123 1.0433-.292l6.2912 3.7912c.3659.2203.4908.7068.2797 1.0887-.1407.2552-.3976.3984-.6615.3984z"/><path d="m11.0499 20.8628c-.2023 0-.4028-.0845-.5506-.2442l-7.04247-7.6392c-.33075-.1965-.47149-.6188-.33075-.9878s.52251-.5728.89196-.4791l10.08256 2.5941c.3483.09.5893.4186.5805.7931l-.0774 3.3763c-.0035.134-.0387.2643-.102.38l-.0282.0496c-.0633.1156-.1548.2129-.2639.2809l-2.7638 1.7569c-.1232.079-.2604.1157-.3976.1157zm-4.76765-7.1252 4.89255 5.3149 1.9106-1.2153.0528-2.3353z"/><path d="m13.703 30.2406c-.2639 0-.5208-.1432-.6615-.3984-.2111-.38-.0862-.8684.2797-1.0887l6.2912-3.7912c.3642-.2203.8322-.0899 1.0433.2919.2111.3801.0862.8684-.2797 1.0887l-6.2913 3.7912c-.1196.0716-.2515.1065-.3817.1065z"/><path d="m3.71903 36.2476c-.22695 0-.45038-.1064-.59992-.3047-.23575-.3121-.21464-.7582.04926-1.0446l7.19373-7.8137c.2481-.2699.6422-.3231.9483-.1285l2.7638 1.757c.1091.0697.1988.167.2639.2809l.0282.0495c.0633.1157.0985.246.102.3801l.0774 3.3762c.0088.3745-.2322.7032-.5805.7931l-9.85913 2.5446c-.11963.0734-.25334.1083-.38528.1083zm7.31867-7.597-4.89261 5.315 6.85601-1.7643-.0528-2.3334-1.9106-1.2154z"/><path d="m22.8901 35.9099c-.4222 0-.7635-.3562-.7635-.7968v-7.5805c0-.4406.3413-.7968.7635-.7968.4223 0 .7636.3562.7636.7968v7.5805c0 .4406-.3413.7968-.7636.7968z"/><path d="m22.8812 47.9369c-.3342 0-.6368-.2295-.7318-.5746l-2.8888-10.4096c-.1003-.3599.0528-.7418.3677-.9217l2.8413-1.6192c.1126-.0643.2375-.0973.3659-.0973h.0545c.1285 0 .2534.033.366.0973l2.8412 1.6192c.3149.1781.468.5618.3677.9217l-2.8184 10.1562v.0276c0 .3965-.2779.7343-.6544.7912-.037.0055-.0739.0074-.1091.0074zm-1.9827-10.8117 1.9634 7.0793 1.9634-7.0793-1.9634-1.1199z"/><path d="m32.1861 30.4406c-.1302 0-.2604-.0349-.3818-.1065l-6.2912-3.7911c-.3659-.2204-.4908-.7069-.2797-1.0887.2111-.3819.6773-.5123 1.0432-.292l6.2913 3.7912c.3659.2203.4908.7068.2797 1.0887-.1407.2552-.3976.3984-.6615.3984z"/><path d="m42.165 36.4606c-.0616 0-.1231-.0073-.1847-.0238l-10.0808-2.5942c-.3483-.0899-.5893-.4186-.5805-.7931l.0774-3.3762c.0035-.1322.0387-.2626.1002-.3782l.0282-.0496c.0633-.1157.1548-.2148.2656-.2846l2.7639-1.7569c.3061-.1946.7002-.1414.9483.1285l7.0424 7.6392c.3308.1983.4697.6187.329.9877-.1179.3085-.4029.4994-.709.4994zm-9.3031-4.0114 6.8559 1.7643-4.8926-5.315-1.9106 1.2154z"/><path d="m26.0075 23.0932c-.2639 0-.5207-.1432-.6615-.3984-.2111-.3818-.0862-.8683.2798-1.0887l6.2912-3.7911c.3659-.2203.8322-.09 1.0433.2919s.0862.8684-.2798 1.0887l-6.2912 3.7912c-.1196.0716-.2516.1064-.3818.1064z"/><path d="m35.089 21.1105c-.1372 0-.2745-.0385-.3976-.1156l-2.7639-1.7588c-.109-.0698-.1988-.1653-.2639-.2809l-.0281-.0496c-.0633-.1157-.0985-.246-.102-.38l-.0775-3.3763c-.0088-.3745.2323-.7031.5806-.7931l9.8608-2.5446c.329-.2019.7495-.1175.9853.1965.2357.3121.2146.7582-.0511 1.0446l-7.1937 7.8137c-.1478.1615-.3484.2441-.5507.2441zm-2.0373-3.0255 1.9106 1.2153 4.8926-5.3149-6.856 1.7643.0528 2.3334z"/><path d="m16.6428 13.084c-.0774 0-.1548-.0129-.2287-.0367l-4.0077-1.3146c-.4028-.1321-.6263-.5801-.4996-.9987.1267-.4204.5542-.6517.9571-.5214l3.2212 1.0575.7741-3.46987c.095-.42961.5067-.69399.9166-.59485s.6668.52875.57.95652l-.9606 4.307c-.0475.2167-.1812.4021-.3641.5123-.1162.0697-.2481.1046-.3783.1046z"/><path d="m17.0439 24.6576h-12.02829c-.42223 0-.76353-.3562-.76353-.7968s.3413-.7968.76353-.7968h12.02829c.4222 0 .7635.3562.7635.7968s-.3413.7968-.7635.7968z"/><path d="m7.02649 27.6372c-.20584 0-.41167-.0863-.56297-.2589-.28501-.3249-.2639-.828.04574-1.1254l2.48764-2.383-2.49292-2.4344c-.30788-.3011-.32371-.806-.03518-1.1273.28852-.3213.77233-.3378 1.07844-.0385l3.09456 3.0219c.1549.1524.2428.3635.2428.5856 0 .2222-.0915.4333-.248.5839l-3.09464 2.965c-.14602.1413-.3325.2092-.51547.2092z"/><path d="m13.9106 40.9697c-.1302 0-.2604-.0349-.3817-.1065-.366-.2203-.4909-.7068-.2798-1.0887l6.0133-10.8705c.2111-.38.6773-.5122 1.0432-.2919.366.2204.4909.7069.2798 1.0887l-6.0133 10.8705c-.1407.2552-.3976.3984-.6615.3984z"/><path d="m17.3905 40.6409c-.3501 0-.665-.2534-.7442-.6242l-.7336-3.4405-3.267 1.0354c-.4046.1267-.8304-.1101-.9535-.5305-.1232-.4223.1055-.8666.5084-.9951l4.0552-1.2851c.204-.0643.424-.0368.6069.0734.183.112.3149.2993.3607.5159l.9131 4.2795c.0914.4296-.1672.8555-.5789.951-.0563.0129-.1108.0184-.1671.0184z"/><path d="m31.8976 41.0835c-.2639 0-.5207-.1432-.6615-.3984l-6.0132-10.8705c-.2111-.3818-.0862-.8683.2797-1.0887.3659-.2203.8322-.0899 1.0433.2919l6.0132 10.8705c.2111.3819.0862.8684-.2797 1.0887-.1196.0716-.2516.1065-.3818.1065z"/><path d="m28.3984 40.7694c-.0581 0-.1161-.0073-.1742-.0202-.4099-.0991-.6668-.5287-.57-.9565l.9606-4.307c.0475-.2167.1812-.4021.3641-.5123.1848-.1101.4047-.134.607-.0679l4.0077 1.3145c.4028.1322.6263.5802.4996.9988-.1267.4204-.5542.6535-.957.5213l-3.2213-1.0574-.7741 3.4698c-.0827.3691-.3958.6169-.7424.6169z"/><path d="m40.9863 24.887h-12.0283c-.4222 0-.7635-.3562-.7635-.7968s.3413-.7968.7635-.7968h12.0283c.4222 0 .7635.3562.7635.7968s-.3413.7968-.7635.7968z"/><path d="m38.9735 27.8925c-.1865 0-.3748-.0716-.5208-.2148l-3.0946-3.0219c-.1548-.1505-.2428-.3635-.241-.5856 0-.2222.0897-.4333.2481-.5839l3.0945-2.965c.3114-.2974.7935-.2753 1.0785.0478.285.3249.2639.828-.0457 1.1254l-2.4877 2.383 2.4929 2.4344c.3079.3011.3237.8041.0352 1.1254-.1495.1671-.3536.2534-.5577.2534z"/><path d="m26.0744 19.4454c-.1301 0-.2603-.0349-.3817-.1065-.366-.2203-.4909-.7068-.2798-1.0887l6.0133-10.87045c.2111-.38003.6773-.51221 1.0433-.2919.3659.22031.4908.70683.2797 1.0887l-6.0133 10.87045c-.1407.2552-.3976.3984-.6615.3984z"/><path d="m29.5209 13.1831c-.1337 0-.2674-.0367-.3853-.1083-.1829-.112-.3149-.2993-.3606-.5159l-.9131-4.2795c-.0915-.4296.1671-.85553.5788-.951s.8198.17441.9113.60401l.7336 3.44049 3.2671-1.0354c.4046-.1267.8303.1101.9535.5305.1231.4205-.1056.8666-.5084.9951l-4.0552 1.2851c-.0721.0239-.1478.0349-.2217.0349z"/><path d="m11.0288 3.69139c.373-.67562 1.1999-.90694 1.8473-.51589.6474.38921.8691 1.25209.4943 1.92771-.3729.67561-1.1998.90694-1.8472.51589-.6474-.38922-.8691-1.25209-.4944-1.92771z"/><path d="m.181105 24.6539c-.37297-.6756-.1512992-1.5385.494361-1.9277.647424-.3893 1.474284-.1579 1.847254.5159.37297.6756.1513 1.5384-.49436 1.9277-.64742.3892-1.474285.1578-1.847255-.5159z"/><path d="m13.1086 44.5234c.5283-.5514.5283-1.4453 0-1.9966-.5284-.5514-1.385-.5514-1.9133 0-.5283.5513-.5283 1.4452 0 1.9966.5283.5513 1.3849.5513 1.9133 0z"/><path d="m34.9729 44.2596c-.373.6756-1.1999.9069-1.8473.5159-.6474-.3911-.8691-1.2521-.4944-1.9277.373-.6757 1.1999-.907 1.8473-.5159.6474.3892.8691 1.2521.4944 1.9277z"/><path d="m45.8189 23.2971c.3729.6756.1513 1.5385-.4944 1.9277-.6474.3892-1.4743.1579-1.8473-.5159-.3729-.6756-.1513-1.5385.4944-1.9277.6474-.3892 1.4743-.1579 1.8473.5159z"/><path d="m35.1644 4.75434c.1712-.759-.2797-1.51906-1.0071-1.69764-.7273-.17858-1.4556.29195-1.6267 1.05094-.1712.759.2797 1.51906 1.007 1.69764.7274.17858 1.4557-.29194 1.6268-1.05094z"/></g></svg>