<svg fill="none" height="27" viewBox="0 0 27 27" width="27" xmlns="http://www.w3.org/2000/svg" xmlns:xlink="http://www.w3.org/1999/xlink"><mask id="a" fill="#fff"><path clip-rule="evenodd" d="m26.9999 13.6576c0 7.3688-5.9735 13.3423-13.3423 13.3423-7.36866 0-13.34217-5.9735-13.34217-13.3423 0-7.36866 5.97351-13.34217 13.34217-13.34217 7.3688 0 13.3423 5.97351 13.3423 13.34217zm-12.8641-3.4922c-1.2977.5398-3.8914 1.6569-7.7809 3.3515-.63159.2512-.96245.4969-.99257.7372-.05091.406.45757.5659 1.14999.7836.09419.0296.19177.0603.29182.0929.68123.2214 1.59761.4805 2.07399.4908.43213.0093.91444-.1689 1.44687-.5345 3.6342-2.4531 5.5101-3.6931 5.6279-3.7198.0831-.0188.1982-.0426.2762.0268.078.0693.0704.2006.0621.2359-.0504.2147-2.0463 2.0703-3.0792 3.0306-.3221.2994-.5505.5118-.5972.5602-.1046.1087-.2112.2115-.3136.3102-.6329.6101-1.1075 1.0676.0263 1.8148.5448.359.9808.6559 1.4157.9521.475.3235.9488.6461 1.5618 1.0479.1562.1024.3053.2088.4506.3123.5528.3941 1.0494.7482 1.663.6917.3565-.0328.7248-.368.9118-1.3679.442-2.3629 1.3108-7.4826 1.5116-9.59234.0176-.18484-.0045-.42139-.0223-.52524-.0178-.10384-.0549-.25179-.1899-.36132-.1598-.12971-.4066-.15707-.517-.15512-.5018.00884-1.2717.27655-4.977 1.81772z" fill="#fff" fill-rule="evenodd"/></mask><path d="m6.3549 13.5169.73904 1.8585.03011-.012.0297-.0129zm7.7809-3.3515-.7681-1.84665zm-8.77347 4.0887 1.98446.2488zm1.14999.7836-.59993 1.9079h.00001zm.29182.0929.61828-1.9021zm2.07399.4908.04321-1.9996h-.00001zm1.44687-.5345-1.11893-1.6577-.0066.0045-.00656.0045zm5.6279-3.7198-.4427-1.95038zm.2762.0268-1.3287 1.4948v.0001zm.0621.2359 1.9471.4567zm-3.0792 3.0306 1.3617 1.4648zm-.5972.5602 1.4408 1.3872zm-.3136.3102-1.3881-1.4399zm.0263 1.8148 1.1005-1.67zm1.4157.9521-1.1257 1.6531zm1.5618 1.0479 1.0965-1.6726h-.0001zm.4506.3123-1.161 1.6285v.0001zm1.663.6917.1833 1.9916zm.9118-1.3679 1.9659.3678zm1.5116-9.59234 1.991.18949zm-.0223-.52524 1.9714-.33736v-.00003zm-.1899-.36132-1.2602 1.553zm-.517-.15512.0352 1.99972zm-5.4552 20.65222c8.4733 0 15.3423-6.869 15.3423-15.3423h-4c0 6.2642-5.0781 11.3423-11.3423 11.3423zm-15.34217-15.3423c0 8.4733 6.86895 15.3423 15.34217 15.3423v-4c-6.26409 0-11.34217-5.0781-11.34217-11.3423zm15.34217-15.34217c-8.47322 0-15.34217 6.86895-15.34217 15.34217h4c0-6.26409 5.07808-11.34217 11.34217-11.34217zm15.3423 15.34217c0-8.47322-6.869-15.34217-15.3423-15.34217v4c6.2642 0 11.3423 5.07808 11.3423 11.34217zm-21.84615 1.6929c3.89215-1.6958 6.47045-2.8062 7.75015-3.3385l-1.5362-3.69325c-1.3158.54727-3.92474 1.6712-7.81164 3.36465zm.19304-.8476c-.0448.3573-.19023.6148-.29995.7625-.10516.1416-.19953.2136-.22135.2298-.03482.0259.02419-.0227.26845-.1198l-1.47808-3.7169c-.38733.154-.80955.3539-1.17523.6255-.31349.2328-.94521.7836-1.06277 1.7213zm-.23454-1.3731c-.1832-.0576-.3031-.0956-.40118-.1309-.10243-.0369-.10576-.0448-.0635-.0207.03343.019.24168.1382.42948.4144.10064.148.1874.3298.23739.54.04982.2094.05309.4049.03235.5703l-3.96893-.4976c-.07229.5766.06223 1.1523.39142 1.6365.29047.4272.65957.6761.90031.8131.43612.2481.97912.4078 1.2428.4907zm.31017.0987c-.11064-.0359-.21724-.0694-.31018-.0987l-1.19984 3.8158c.09543.03.18401.0579.27347.087zm1.49891.3933c.02775.0006-.00493.0015-.12097-.0192-.10496-.0187-.23837-.0479-.39595-.0874-.3156-.0791-.66878-.1849-.98199-.2867l-1.23655 3.8041c.36801.1196.81363.2541 1.24563.3625.38557.0967.92244.2154 1.40344.2258zm.27158-.1836c-.16296.1119-.26966.1611-.32194.1804-.04935.0183-.02723.0015.05037.0032l-.08641 3.9991c1.01181.0218 1.90617-.3936 2.62227-.8853zm6.31729-4.02148c-.2092.04748-.3663.12001-.395.13294-.0597.02689-.109.0523-.1395.06841-.0625.03306-.1221.06756-.1685.09504-.0966.05721-.2144.13053-.3448.21341-.2647.16818-.6358.41028-1.1076.72208-.9463.6255-2.3303 1.5531-4.14873 2.7806l2.23793 3.3154c1.8157-1.2257 3.1867-2.1446 4.1164-2.759.4662-.3081.8133-.5344 1.047-.6828.1187-.0755.1952-.1226.238-.1479.0232-.0138.0196-.011-.0008-.0003-.0093.005-.041.0216-.0865.0421-.0144.0065-.1607.075-.3626.1208zm2.0476.48231c-.5244-.46612-1.1113-.5489-1.4493-.55154-.3098-.00242-.5691.0626-.5983.06923l.8853 3.90078c.0539-.0122-.1063.0315-.3182.0299-.2401-.0019-.7305-.0619-1.1769-.4587zm.6805 2.18747c.0652-.2779.0742-.5746.0326-.855-.0414-.2792-.1811-.8596-.7131-1.33248l-2.6574 2.98978c-.4539-.4035-.5585-.8837-.5863-1.071-.0171-.1153-.0199-.2172-.0168-.3021.0025-.0702.0111-.1907.0467-.3427zm-3.6646 4.0387c.5139-.4777 1.2842-1.1939 1.9335-1.8189.3224-.3105.6316-.6144.8698-.8626.1163-.1212.238-.2521.3417-.3756.05-.0597.1196-.1456.1883-.2454.0178-.0257.2336-.3196.3313-.7362l-3.8942-.9135c.056-.239.144-.4074.1749-.4649.0406-.0755.0765-.1291.0933-.1535.0334-.0486.054-.0717.0426-.0582-.0191.0229-.0698.0796-.1638.1776-.1825.1901-.4463.4504-.7582.7507-.6196.5966-1.3637 1.2884-1.8827 1.771zm-.5181.4826c-.0238.0247-.0326.0322.0055-.004.0271-.0258.0654-.0619.1156-.1089.1003-.0938.235-.2191.397-.3697l-2.7235-2.9295c-.2804.2607-.5786.5365-.6761.6378zm-.3664.3629c.0987-.0951.2318-.2231.3664-.3629l-2.8815-2.7743c-.0747.0775-.1547.155-.261.2574zm-.2612-1.2951c-.1814-.1196-.1151-.1132-.0081.0472.0628.0942.1416.2447.1866.4478.0464.2087.0444.4163.0075.6033-.0664.3367-.226.5063-.1923.4654.0286-.0347.0867-.0942.2675-.2686l-2.7761-2.8798c-.1355.1307-.3742.3571-.5771.6032-.1978.2398-.52387.6849-.64634 1.3056-.31478 1.5954.87584 2.58 1.53734 3.0159zm1.4409.969c-.4349-.2962-.8821-.6008-1.4409-.969l-2.201 3.34c.5308.3498.9555.639 1.3905.9352zm1.5325 1.0284c-.5968-.3913-1.0578-.7051-1.5325-1.0284l-2.2514 3.3062c.4753.3237.9619.6551 1.591 1.0675zm.5152.3564c-.1406-.1003-.3211-.2292-.5151-.3564l-2.193 3.3453c.1183.0775.2362.1613.3861.2681zm.3187.3286c.0671-.0061.1293 0 .1758.0103.0419.0093.053.018.0249.0044-.0306-.0148-.0853-.0449-.1775-.1053-.0952-.0624-.1974-.135-.3419-.238l-2.322 3.2571c.403.2873 1.5227 1.1913 3.0073 1.0547zm-.8708.256c-.0632.3378-.1201.339-.0252.2127.0557-.0742.1608-.187.3297-.2867.1729-.102.3686-.1638.5663-.182l.3666 3.9832c1.7899-.1647 2.4717-1.8014 2.6944-2.9917zm1.4865-9.41413c-.1911 2.00783-1.0432 7.04413-1.4865 9.41413l3.9318.7355c.4407-2.3559 1.3262-7.5591 1.5367-9.77065zm-.0026.00161c-.0013-.00742-.0022-.01305-.0027-.01668-.0006-.0037-.0009-.00618-.0011-.00739-.0003-.00223-.0002-.00148.0002.00208.0004.00343.0009.00836.0014.01442.0005.00605.0009.01247.0013.01894.0004.00648.0007.01228.0008.01716.0002.00493.0002.00797.0002.00903 0 .00117-.0001-.00112.0002-.00667.0002-.00536.0008-.01643.0023-.0325l3.982.37898c.0393-.41228-.0047-.83425-.0419-1.05209zm.5212.85432c-.4489-.36422-.5176-.8334-.5212-.85428l3.9427-.67479c-.0392-.22857-.1822-.99366-.9011-1.57697zm.7784.2916c-.1024.0018-.1817-.0076-.26-.0263-.0656-.0156-.2805-.0723-.5184-.2653l2.5204-3.10604c-.3977-.32271-.816-.45786-1.0725-.51915-.2693-.06432-.5271-.08637-.7399-.08262zm-4.2441 1.6646c1.8599-.7736 2.9361-1.2077 3.6039-1.45.7022-.2549.7487-.2165.6402-.2146l-.0704-3.99941c-.6103.01075-1.1997.18734-1.9342.45388-.769.27903-1.9303.74933-3.7757 1.51688z" fill="#0f0f0f" mask="url(#a)"/></svg>