<svg height="1444pt" preserveAspectRatio="xMidYMid meet" viewBox="0 0 2398 1444" width="2398pt" xmlns="http://www.w3.org/2000/svg"><g transform="matrix(.1 0 0 -.1 0 1444)"><path d="m175 7551c-3-5-2-12 3-15s9 1 9 9c0 17-3 19-12 6z"/><path d="m332 7545c-1-8-3-21-4-29s-8-12-16-9c-10 4-11 8-2 13 8 5 9 10 2 14-6 3-17-1-26-9-8-8-17-11-20-6-4 5-14 8-24 6-9-2-27-4-39-4-13-1-23-5-23-11 0-5 7-7 15-4 8 4 15 4 15 1s-7-8-15-11c-11-4-19 3-25 19-5 14-14 25-20 25-14 0-13-17 2-22 7-3 5-7-6-11-9-4-15-3-11 2 3 5 1 12-5 16s-7 11-4 17c4 7 2 8-5 4-6-4-9-11-6-16 6-10-12-23-35-27-8-1-23 5-32 14-17 15-19 15-33-3-12-16-14-167-15-1043 0-691 3-1028 10-1036 11-14 100-325 100-350 0-9-20-28-45-43-39-24-44-31-45-63 0-26 7-42 29-63l29-27 19 33c78 132 75 121 58 192-8 36-12 72-9 81 13 32 54 8 54-31s15-34 39 12c24 44 53 58 64 29 4-8-5-35-19-60-26-46-23-52 19-36 29 11 50 0 45-25-2-13-22-25-67-40l-65-21-43-78c-24-42-43-81-43-85 0-5 18-11 40-15 64-11 88 11 92 82l3 57 168 44c166 43 197 46 197 19 0-16-237-277-252-277-6 0-30 11-53 24-41 25-42 25-72 6-27-16-43-51-43-91 0-5 39-9 86-9h86l56 50c31 28 59 50 64 50 4 0 12-8 17-19 8-14 4-24-20-47l-31-29 59-5c50-4 58-8 58-25s-8-20-59-23l-59-3 28-29c26-28 31-60 9-67-6-2-36 19-67 47l-55 50h-87-88l7-31c3-17 6-35 6-40 0-4 14-17 30-29l31-22 39 26c51 34 62 33 97-8 15-19 70-80 122-136 82-90 91-104 79-117-13-13-35-9-179 27-90 23-170 47-177 53-9 7-12 29-11 61 3 47 1 52-27 68-24 14-37 16-67 7-20-5-37-13-36-17 0-4 19-41 43-82 42-73 45-76 107-98 67-24 81-36 72-60-6-14-34-13-77 4-17 6-16 1 9-44 23-43 26-54 15-67-19-23-26-19-58 37l-30 52-7-37c-8-43-30-66-47-49-8 8-8 31 2 85l12 75-44 81-44 81-32-33c-22-23-32-43-32-65 0-27 6-35 40-52 23-12 44-28 47-37 3-8-17-99-46-202l-51-186v-1947-1948h11990 11990v368 369l-25 23c-23 21-23 24-10 51 8 15 15 32 15 38 0 16-30 41-51 41-16 0-19-7-19-55 0-46 4-59 30-88 16-19 30-40 30-46 0-16-21-13-43 6-18 17-19 17-16-17 3-27 0-35-13-38-15-3-18 4-18 34 0 37 0 37-20 19-16-14-23-16-32-7s-4 20 20 45c29 30 32 39 32 94 0 59 0 60-25 55-38-7-49-35-29-73l16-32-78-78c-43-44-84-79-91-79-18 0-16 31 11 140l23 95 34 3c47 4 71 38 50 70-7 11-18 9-57-11-44-22-51-30-62-72-13-50-38-58-35-11 2 29-4 32-31 11-10-8-23-12-27-9-17 10-8 31 19 44l27 13-27 9c-55 19-27 44 32 28 36-10 44-8 90 18l50 29-23 21c-32 30-54 28-72-8-9-17-19-30-23-30s-54 15-112 34c-66 21-105 38-105 47s34 23 95 41c121 34 126 34 145-2 18-35 53-40 79-11 16 18 15 20-36 49-47 27-58 30-93 22-41-9-63-1-51 19 4 6 17 11 29 11 19 0 17 3-13 28-39 34-27 51 19 27l31-15-7 31c-9 48 18 33 38-20 12-32 27-50 62-72 26-16 49-29 51-29s7 12 10 26c9 33-9 54-44 54-15 0-32 6-37 12-18 23-63 222-52 233 6 6 40-21 96-78l88-87-18-29c-19-32-14-56 14-71 33-18 39-11 39 46 0 47-5 61-31 94-36 45-31 75 7 39l24-22v36c0 26 4 37 15 37s15-11 15-37c0-34 1-35 18-20 46 42 57 5 12-38-27-25-30-35-30-87 0-51 2-58 19-58 22 0 51 25 51 43 0 7-7 23-16 36-15 21-15 24 10 50l26 27v3086c0 2709-2 3087-15 3092-8 3-19-3-25-12-11-16-11-16-6 0 3 10 1 20-5 23-5 4-6 12-3 18 4 7-7-1-25-18-26-24-34-27-41-15-5 8-6 18-4 22 3 4-2 8-10 8-19 0-21-26-3-34 9-3 7-9-5-19-10-8-16-17-13-20 3-4 2-5-2-2-11 8-13 36-2 29 5-3 9 0 9 7 0 6-8 9-20 6-13-3-20 0-20 9 0 17-16 18-26 2-4-7-3-8 4-4s12 3 12-3c0-5-8-9-19-8-13 1-17 7-13 22 5 19 4 19-17-3-12-12-25-22-28-22-4 0-2 5 5 12 17 17 15 24-10 25-18 2-20 0-8-7 12-8 10-10-9-10-16 0-21-4-18-14 3-8-1-17-9-20-11-4-13 0-8 18 8 33-14 46-51 30-16-7-23-13-15-14 12 0 12-2 1-9s-11-13 0-32c11-21 11-23-3-11-9 7-21 11-28 10-7-2-14 5-15 15-3 15-1 16 11 6 16-13 18 3 4 36-7 17-9 17-9 3-1-10-8-18-16-18s-14-5-12-11c1-6-6-13-16-14-10-2-14 1-10 8 4 6 0 8-10 4-11-4-14-2-10 9 7 18-2 18-21-2-9-9-16-11-16-4 0 6-5 8-11 4-8-4-8 0 0 15 10 17 9 20-4 15-8-4-15-13-15-21s-5-11-11-8c-6 4-8 13-5 21 3 7 2 16-3 18-4 3-8-1-9-9s-3-21-4-29-8-12-16-9c-10 4-11 8-2 13 8 5 9 10 2 14-6 3-17-1-26-9-8-8-17-11-20-6-4 5-14 8-24 6-9-2-27-4-39-4-13-1-23-5-23-11 0-5 7-7 15-4 8 4 15 4 15 1s-7-8-15-11c-11-4-19 3-25 19-5 14-14 25-20 25-14 0-13-17 2-22 7-3 5-7-6-11-9-4-15-3-11 2 3 5 1 12-5 16s-7 11-4 17c4 7 2 8-5 4-6-4-9-11-6-16 6-10-12-23-35-27-8-1-23 5-32 14-17 15-19 15-33-3-8-10-12-25-10-32 3-7 0-10-6-7-6 4-8 13-5 21 4 11-1 13-19 10-15-3-23-1-20 5 4 5 11 7 16 4 5-4 9-1 9 6 0 8 4 8 15-1 19-16 19-3 0 16-10 10-15 11-15 4s-7-10-15-6c-8 3-15 1-15-4 0-17-28-11-34 8-3 9-4 5-2-10 2-16-1-28-5-28-5 0-9 7-9 16 0 8-5 12-11 9-6-4-8-14-5-22s1-11-5-8c-5 4-7 16-4 28 2 12 2 17-1 10s-13-9-22-6c-14 5-15 3-4-8 6-7 12-18 12-23-1-6-10 0-20 13-20 23-20 23-20 2 0-12 5-21 12-21 6 0 9-2 6-5-11-11-36 7-31 24 3 12-2 17-16 17-11 0-17-4-15-8 12-19-27-6-42 15-11 14-14 16-11 5 7-21-9-34-17-13-8 23-34 7-31-20 1-14-2-22-7-19s-7 12-4 19c3 8-5 15-20 18-13 2-24 0-24-4 0-5 8-9 18-10 11 0 12-2 4-6-7-3-19 0-26 6s-22 8-31 4c-12-4-16-3-11 5 3 6 1 14-5 18-7 4-9 3-6-3 4-6-2-13-12-16-12-3-18 0-15 7 2 6-4 12-15 12s-17-5-14-10c4-5-3-7-15-4-27 7-28 0-4-19 15-13 15-13-6-3-12 6-27 8-33 5-5-4-22-4-37 0-18 4-22 9-13 14 9 6 8 10-7 13-16 4-19 1-15-16 2-13-1-10-11 9-8 17-15 24-15 18-1-7-6-13-12-13-7 0-18-8-25-17-12-17-13-17-14 3 0 12-7 25-16 28-22 8-26 8-19-4 3-6 1-10-5-10-7 0-10-6-7-13 3-8-1-14-10-14-10 0-13 7-8 24 5 22 4 23-15 13-15-8-20-8-20 2s-3 10-9-1c-5-8-16-11-24-8-20 7-29-3-17-18 7-8 4-19-10-35-11-13-23-21-26-18s3 13 12 22c16 16 15 18-5 23-11 3-21 11-21 17 0 7-11 12-24 12-14 0-22-4-20-8 3-4-3-8-13-8-10-1-35-7-55-14-38-14-38-13-39 13 0 14-3 21-5 15-3-7-14-10-24-7-12 3-20 0-20-7 0-10-4-9-16 1-14 11-18 10-31-6-15-20-15-20-11 1 4 17 2 20-13 17-10-3-17-9-14-13 3-5 0-12-6-16-8-4-9-3-5 4s2 12-4 12-8 5-4 11c4 7-1 7-16-1-18-10-24-9-36 7-13 17-14 17-7-1 4-13 3-17-5-12s-10 1-6-11c4-13 0-11-16 7-21 24-21 24-17 3 3-13-1-24-10-27-8-3-12-2-9 3s-1 12-10 15c-25 10-44 7-41-6 1-6-7-13-18-15s-16-1-10 4c6 4 11 19 13 33l3 25-17-23c-12-17-19-21-27-13-16 16-27 13-21-4 5-11 2-13-10-9-11 4-15 13-11 28 6 21 6 21-7-1-11-18-16-20-30-9-10 7-15 16-11 20s0 4-10 0c-21-8-22-24-1-24 8 0 12-4 9-10s2-10 12-11c11 0 13-3 5-6-7-3-19 1-28 7-8 7-17 10-21 6-3-3-1-6 6-6s9-5 5-11c-10-16-25 12-18 34 6 20-6 22-25 5-11-11-13-10-7 2 4 8 1 7-8-4-8-10-22-16-30-13-9 4-20-1-26-11-11-16-11-16-6 0 3 10 1 20-5 23-5 4-6 12-3 18 4 7-7-1-25-18-26-24-34-27-41-15-5 8-6 18-4 22 3 4-2 8-10 8-19 0-21-26-3-34 9-3 7-9-5-19-10-8-14-18-10-23s3-5-2-1c-13 10-17 39-5 31 5-3 9 0 9 7 0 6-8 9-20 6-13-3-20 0-20 9 0 17-16 18-26 2-4-7-3-8 4-4s12 3 12-3c0-5-8-9-19-8-13 1-17 7-13 22 5 19 4 19-17-2-12-13-25-23-28-23-4 0-2 5 5 12 17 17 15 24-10 25-18 2-20 0-8-7 12-8 10-10-9-10-16 0-21-4-18-14 3-8-1-17-9-20-11-4-13 0-8 18 8 33-14 46-51 30-16-7-23-13-15-14 12 0 12-2 1-9s-11-13 0-32c11-21 11-23-3-11-9 7-21 11-28 10-7-2-14 5-15 15-3 15-1 16 11 6 16-13 18 3 4 36-7 17-9 17-9 3-1-10-8-18-16-18s-14-5-12-11c1-6-6-13-16-14-10-2-14 1-10 8 4 6 0 8-10 4-11-4-14-2-10 9 7 18-2 18-21-2-9-9-16-11-16-4 0 6-5 8-11 4-8-4-8 0 0 15 10 17 9 20-4 15-8-4-15-13-15-21s-5-11-11-8c-6 4-8 13-5 21 3 7 2 16-3 18-4 3-8-1-9-9s-3-21-4-29-8-12-16-9c-10 4-11 8-2 13 8 5 9 10 2 14-6 3-17-1-26-9-8-8-17-11-20-6-4 5-14 8-24 6-9-2-27-4-39-4-13-1-23-5-23-11 0-5 7-7 15-4 8 4 15 4 15 1s-7-8-15-11c-11-4-19 3-25 19-5 14-14 25-20 25-14 0-13-17 2-22 7-3 5-7-6-11-9-4-15-3-11 2 3 5 1 12-5 16s-7 11-4 17c4 7 2 8-5 4-6-4-9-11-6-16 6-10-12-23-35-27-8-1-23 5-32 14-17 15-19 15-33-3-8-10-12-25-10-32 3-7 0-10-6-7-6 4-8 13-5 21 4 11-1 13-19 10-15-3-23-1-20 5 4 5 11 7 16 4 5-4 9-1 9 6 0 8 4 8 15-1 8-7 15-9 15-6 0 4-7 14-15 22-10 10-15 11-15 4s-7-10-15-6c-8 3-15 1-15-4 0-17-28-11-34 8-3 9-4 5-2-10 2-16-1-28-5-28-5 0-9 7-9 16 0 8-5 12-11 9-6-4-8-14-5-22s1-11-5-8c-5 4-7 16-4 28 2 12 2 17-1 10s-13-9-22-6c-14 5-15 3-4-8 6-7 12-18 12-23-1-6-10 0-20 13-20 23-20 23-20 2 0-12 5-21 12-21 6 0 9-2 6-5-11-11-36 7-31 24 3 12-2 17-16 17-11 0-17-4-15-8 12-19-27-6-42 15-11 14-14 16-11 5 7-21-9-34-17-13-8 23-34 7-31-20 1-14-2-22-7-19s-7 12-4 19c3 8-5 15-20 18-13 2-24 0-24-4 0-5 8-9 18-10 11 0 12-2 4-6-7-3-19 0-26 6s-22 8-31 4c-12-4-16-3-11 5 3 6 1 14-5 18-7 4-9 3-6-3 4-6-2-13-12-16-12-3-18 0-15 7 2 6-4 12-15 12s-17-5-14-10c4-5-3-7-15-4-27 7-28 0-4-19 15-13 15-13-6-3-12 6-27 8-33 5-5-4-22-4-37 0-18 4-22 9-13 14 9 6 8 10-7 13-16 4-19 1-15-16 2-13-1-10-11 9-8 17-15 24-15 18-1-7-6-13-12-13-7 0-18-8-25-17-12-17-13-17-14 3 0 12-7 25-16 28-22 8-26 8-19-4 3-6 1-10-5-10-7 0-10-6-7-13 3-8-1-14-10-14-10 0-13 7-8 24 5 22 4 23-15 13-15-8-20-8-20 2s-3 10-9-1c-5-8-16-11-24-8-20 7-29-3-17-18 7-8 4-19-10-35-11-13-23-21-26-18s3 13 12 22c16 16 15 18-5 23-11 3-21 11-21 17 0 7-11 12-24 12-14 0-22-4-20-8 3-4-3-8-13-8-10-1-35-7-55-14-38-14-38-13-39 13 0 14-3 21-5 15-3-7-14-10-24-7-12 3-20 0-20-7 0-10-4-9-16 1-14 11-18 10-31-6-15-20-15-20-11 1 4 17 2 20-13 17-10-3-17-9-14-13 3-5 0-12-6-16-8-4-9-3-5 4s2 12-4 12-8 5-4 11c4 7-1 7-16-1-18-10-24-9-36 7-13 17-14 17-7-1 4-13 3-17-5-12s-10 1-6-11c4-13 0-11-16 7-21 24-21 24-17 3 3-13-1-24-10-27-8-3-12-2-9 3s-1 12-10 15c-25 10-44 7-41-6 1-6-7-13-18-15s-16-1-10 4c6 4 11 19 13 33l3 25-17-23c-12-17-19-21-27-13-16 16-27 13-21-4 5-11 2-13-10-9-11 4-15 13-11 28 6 21 6 21-7-1-11-18-16-20-30-9-10 7-15 16-11 20s0 4-10 0c-21-8-22-24-1-24 8 0 12-4 9-10-3-5 2-10 12-11 11 0 13-3 5-6-7-3-19 1-28 7-8 7-17 10-21 6-3-3-1-6 6-6s9-5 5-11c-10-16-25 12-18 34 6 20-6 22-25 5-11-11-13-10-7 2 4 8 1 7-8-4-8-10-22-16-30-13-9 4-20-1-26-11-11-16-11-16-6 0 3 10 1 20-5 23-5 4-6 12-3 18 4 7-7-1-25-18-26-24-34-27-41-15-5 8-6 18-4 22 3 4-2 8-10 8-19 0-21-26-3-34 9-3 7-9-5-19-10-8-17-16-15-18 1-2 0-3-2-1-3 1-6 9-7 17s2 13 7 9c5-3 9 0 9 7 0 6-8 9-20 6-13-3-20 0-20 9 0 17-16 18-26 2-4-7-3-8 4-4s12 3 12-3c0-5-8-9-19-8-13 1-17 7-13 22 5 19 4 19-17-2-12-13-25-23-28-23-4 0-2 5 5 12 17 17 15 24-10 25-18 2-20 0-8-7 12-8 10-10-9-10-16 0-21-4-18-14 3-8-1-17-9-20-11-4-13 0-8 18 8 33-14 46-51 30-16-7-23-13-15-14 12 0 12-2 1-9s-11-13 0-32c11-21 11-23-3-11-9 7-21 11-28 10-7-2-14 5-15 15-3 15-1 16 11 6 16-13 18 3 4 36-7 17-9 17-9 3-1-10-8-18-16-18s-14-5-12-11c1-6-6-13-16-14-10-2-14 1-10 8 4 6 0 8-10 4-11-4-14-2-10 9 7 18-2 18-21-2-9-9-16-11-16-4 0 6-5 8-11 4-8-4-8 0 0 15 10 17 9 20-4 15-8-4-15-13-15-21s-5-11-11-8c-6 4-8 13-5 21 3 7 2 16-3 18-4 3-8-1-9-9s-3-21-4-29-8-12-16-9c-10 4-11 8-2 13 8 5 9 10 2 14-6 3-17-1-26-9-8-8-17-11-20-6-4 5-14 8-24 6-9-2-27-4-39-4-13-1-23-5-23-11 0-5 7-7 15-4 8 4 15 4 15 1s-7-8-15-11c-11-4-19 3-25 19-5 14-14 25-20 25-14 0-13-17 2-22 7-3 5-7-6-11-9-4-15-3-11 2 3 5 1 12-5 16s-7 11-4 17c4 7 2 8-5 4-6-4-9-11-6-16 6-10-12-23-35-27-8-1-23 5-32 14-17 15-19 15-33-3-8-10-12-25-10-32 3-7 0-10-6-7-6 4-8 13-5 21 4 11-1 13-19 10-15-3-23-1-20 5 4 5 11 7 16 4 5-4 9-1 9 6 0 8 4 8 15-1 19-16 19-3 0 16-10 10-15 11-15 4s-7-10-15-6c-8 3-15 1-15-4 0-17-28-11-34 8-3 9-4 5-2-10 2-16-1-28-5-28-5 0-9 7-9 16 0 8-5 12-11 9-6-4-8-14-5-22s1-11-5-8c-5 4-7 16-4 28 2 12 2 17-1 10s-13-9-22-6c-14 5-15 3-4-8 6-7 12-18 12-23-1-6-10 0-20 13-20 23-20 23-20 2 0-12 5-21 12-21 6 0 9-2 6-5-11-11-36 7-31 24 3 12-2 17-16 17-11 0-17-4-15-8 12-19-27-6-42 15-11 14-14 16-11 5 7-21-9-34-17-13-8 23-34 7-31-20 1-14-2-22-7-19s-7 12-4 19c3 8-5 15-20 18-13 2-24 0-24-4 0-5 8-9 18-10 11 0 12-2 4-6-7-3-19 0-26 6s-22 8-31 4c-12-4-16-3-11 5 3 6 1 14-5 18-7 4-9 3-6-3 4-6-2-13-12-16-12-3-18 0-15 7 2 6-4 12-15 12s-17-5-14-10c4-5-3-7-15-4-27 7-28 0-4-19 15-13 15-13-6-3-12 6-27 8-33 5-5-4-22-4-37 0-18 4-22 9-13 14 9 6 8 10-7 13-16 4-19 1-15-16 2-13-1-10-11 9-8 17-15 24-15 18-1-7-6-13-12-13-7 0-18-8-25-17-12-17-13-17-14 3 0 12-7 25-16 28-22 8-26 8-19-4 3-6 1-10-5-10-7 0-10-6-7-13 3-8-1-14-10-14-10 0-13 7-8 24 5 22 4 23-15 13-15-8-20-8-20 2s-3 10-9-1c-5-8-16-11-24-8-20 7-29-3-17-18 7-8 4-19-10-35-11-13-23-21-26-18s3 13 12 22c16 16 15 18-5 23-11 3-21 11-21 17 0 7-11 12-24 12-14 0-22-4-20-8 3-4-3-8-13-8-10-1-35-7-55-14-38-14-38-13-39 13 0 14-3 21-5 15-3-7-14-10-24-7-12 3-20 0-20-7 0-10-4-9-16 1-14 11-18 10-31-6-15-20-15-20-11 1 4 17 2 20-13 17-10-3-17-9-14-13 3-5 0-12-6-16-8-4-9-3-5 4s2 12-4 12-8 5-4 11c4 7-1 7-16-1-18-10-24-9-36 7-13 17-14 17-7-1 4-13 3-17-5-12s-10 1-6-11c4-13 0-11-16 7-21 24-21 24-17 3 3-13-1-24-10-27-8-3-12-2-9 3s-1 12-10 15c-25 10-44 7-41-6 1-6-7-13-18-15s-16-1-10 4c6 4 11 19 13 33l3 25-17-23c-12-17-19-21-27-13-16 16-27 13-21-4 5-11 2-13-10-9-11 4-15 13-11 28 6 21 6 21-7-1-11-18-16-20-30-9-10 7-15 16-11 20s0 4-10 0c-21-8-22-24-1-24 8 0 12-4 9-10-3-5 2-10 12-11 11 0 13-3 5-6-7-3-19 1-28 7-8 7-17 10-21 6-3-3-1-6 6-6s9-5 5-11c-10-16-25 12-18 34 6 20-6 22-25 5-11-11-13-10-7 2 4 8 1 7-8-4-8-10-22-16-30-13-9 4-20-1-26-11-11-16-11-16-6 0 3 10 1 20-5 23-5 4-6 12-3 18 4 7-7-1-25-18-26-24-34-27-41-15-5 8-6 18-4 22 3 4-2 8-10 8-19 0-21-26-3-34 9-3 7-9-5-19-10-8-16-17-13-20 3-4 2-5-2-2-11 8-13 36-2 29 5-3 9 0 9 7 0 6-8 9-20 6-13-3-20 0-20 9 0 17-16 18-26 2-4-7-3-8 4-4s12 3 12-3c0-5-8-9-19-8-13 1-17 7-13 22 5 19 4 19-17-2-12-13-25-23-28-23-4 0-2 5 5 12 17 17 15 24-10 25-18 2-20 0-8-7 12-8 10-10-9-10-16 0-21-4-18-14 3-8-1-17-9-20-11-4-13 0-8 18 8 33-14 46-51 30-16-7-23-13-15-14 12 0 12-2 1-9s-11-13 0-32c11-21 11-23-3-11-9 7-21 11-28 10-7-2-14 5-15 15-3 15-1 16 11 6 16-13 18 3 4 36-7 17-9 17-9 3-1-10-8-18-16-18s-14-5-12-11c1-6-6-13-16-14-10-2-14 1-10 8 4 6 0 8-10 4-11-4-14-2-10 9 7 18-2 18-21-2-9-9-16-11-16-4 0 6-5 8-11 4-8-4-8 0 0 15 10 17 9 20-4 15-8-4-15-13-15-21s-5-11-11-8c-6 4-8 13-5 21 3 7 2 16-3 18-4 3-8-1-9-9s-3-21-4-29-8-12-16-9c-10 4-11 8-2 13 8 5 9 10 2 14-6 3-17-1-26-9-8-8-17-11-20-6-4 5-14 8-24 6-9-2-27-4-39-4-13-1-23-5-23-11 0-5 7-7 15-4 8 4 15 4 15 1s-7-8-15-11c-11-4-19 3-25 19-5 14-14 25-20 25-14 0-13-17 2-22 7-3 5-7-6-11-9-4-15-3-11 2 3 5 1 12-5 16s-7 11-4 17c4 7 2 8-5 4-6-4-9-11-6-16 6-10-12-23-35-27-8-1-23 5-32 14-17 15-19 15-33-3-8-10-12-25-10-32 3-7 0-10-6-7-6 4-8 13-5 21 4 11-1 13-19 10-15-3-23-1-20 5 4 5 11 7 16 4 5-4 9-1 9 6 0 8 4 8 15-1 19-16 19-3 0 16-10 10-15 11-15 4s-7-10-15-6c-8 3-15 1-15-4 0-17-28-11-34 8-3 9-4 5-2-10 2-16-1-28-5-28-5 0-9 7-9 16 0 8-5 12-11 9-6-4-8-14-5-22s1-11-5-8c-5 4-7 16-4 28 2 12 2 17-1 10s-13-9-22-6c-14 5-15 3-4-8 6-7 12-18 12-23-1-6-10 0-20 13-20 23-20 23-20 2 0-12 5-21 12-21 6 0 9-2 6-5-11-11-36 7-31 24 3 12-2 17-16 17-11 0-17-4-15-8 12-19-27-6-42 15-11 14-14 16-11 5 7-21-9-34-17-13-8 23-34 7-31-20 1-14-2-22-7-19s-7 12-4 19c3 8-5 15-20 18-13 2-24 0-24-4 0-5 8-9 18-10 11 0 12-2 4-6-7-3-19 0-26 6s-22 8-31 4c-12-4-16-3-11 5 3 6 1 14-5 18-7 4-9 3-6-3 4-6-2-13-12-16-12-3-18 0-15 7 2 6-4 12-15 12s-17-5-14-10c4-5-3-7-15-4-27 7-28 0-4-19 15-13 15-13-6-3-12 6-27 8-33 5-5-4-22-4-37 0-18 4-22 9-13 14 9 6 8 10-7 13-16 4-19 1-15-16 2-13-1-10-11 9-8 17-15 24-15 18-1-7-6-13-12-13-7 0-18-8-25-17-12-17-13-17-14 3 0 12-7 25-16 28-22 8-26 8-19-4 3-6 1-10-5-10-7 0-10-6-7-13 3-8-1-14-10-14-10 0-13 7-8 24 5 22 4 23-15 13-15-8-20-8-20 2s-3 10-9-1c-5-8-16-11-24-8-20 7-29-3-17-18 7-8 4-19-10-35-11-13-23-21-26-18s3 13 12 22c16 16 15 18-5 23-11 3-21 11-21 17 0 7-11 12-24 12-14 0-22-4-20-8 3-4-3-8-13-8-10-1-35-7-55-14-38-14-38-13-39 13 0 14-3 21-5 15-3-7-14-10-24-7-12 3-20 0-20-7 0-10-4-9-16 1-14 11-18 10-31-6-15-20-15-20-11 1 4 17 2 20-13 17-10-3-17-9-14-13 3-5 0-12-6-16-8-4-9-3-5 4s2 12-4 12-8 5-4 11c4 7-1 7-16-1-18-10-24-9-36 7-13 17-14 17-7-1 4-13 3-17-5-12s-10 1-6-11c4-13 0-11-16 7-21 24-21 24-17 3 3-13-1-24-10-27-8-3-12-2-9 3s-1 12-10 15c-25 10-44 7-41-6 1-6-7-13-18-15s-16-1-10 4c6 4 11 19 13 33l3 25-17-23c-12-17-19-21-27-13-16 16-27 13-21-4 5-11 2-13-10-9-11 4-15 13-11 28 6 21 6 21-7-1-11-18-16-20-30-9-10 7-15 16-11 20s0 4-10 0c-21-8-22-24-1-24 8 0 12-4 9-10-3-5 2-10 12-11 11 0 13-3 5-6-7-3-19 1-28 7-8 7-17 10-21 6-3-3-1-6 6-6s9-5 5-11c-10-16-25 12-18 34 6 20-6 22-25 5-11-11-13-10-7 2 4 8 1 7-8-4-8-10-22-16-30-13-9 4-20-1-26-11-11-16-11-16-6 0 3 10 1 20-5 23-5 4-6 12-3 18 4 7-7-1-25-18-26-24-34-27-41-15-5 8-6 18-4 22 3 4-2 8-10 8-19 0-21-26-3-34 9-3 7-9-5-19-10-8-16-17-13-20 3-4 2-5-2-2-11 8-13 36-2 29 5-3 9 0 9 7 0 6-8 9-20 6-13-3-20 0-20 9 0 17-16 18-26 2-4-7-3-8 4-4s12 3 12-3c0-5-8-9-19-8-13 1-17 7-13 22 5 19 4 19-17-2-12-13-25-23-28-23-4 0-2 5 5 12 17 17 15 24-10 25-18 2-20 0-8-7 12-8 10-10-9-10-16 0-21-4-18-14 3-8-1-17-9-20-11-4-13 0-8 18 8 33-14 46-51 30-16-7-23-13-15-14 12 0 12-2 1-9s-11-13 0-32c11-21 11-23-3-11-9 7-21 11-28 10-7-2-14 5-15 15-3 15-1 16 11 6 16-13 18 3 4 36-7 17-9 17-9 3-1-10-8-18-16-18s-14-5-13-11c2-6-5-13-15-14-10-2-14 1-10 8 4 6 0 8-10 4-11-4-14-2-10 9 7 18-2 18-21-2-9-9-16-11-16-4 0 6-5 8-11 4-8-4-8 0 0 15 10 17 9 20-4 15-8-4-15-13-15-21s-5-11-11-8c-6 4-8 13-5 21 3 7 2 16-3 18-4 3-8-1-9-9s-3-21-4-29-8-12-16-9c-10 4-11 8-2 13 8 5 9 10 2 14-6 3-17-1-26-9-8-8-17-11-20-6-4 5-14 8-24 6-9-2-27-4-39-4-13-1-23-5-23-11 0-5 7-7 15-4 8 4 15 4 15 1s-7-8-15-11c-11-4-19 3-25 19-5 14-14 25-20 25-14 0-13-17 2-22 7-3 5-7-6-11-9-4-15-3-11 2 3 5 1 12-5 16s-7 11-4 17c4 7 2 8-5 4-6-4-9-11-6-16 6-10-12-23-35-27-8-1-23 5-32 14-17 15-19 15-33-3-8-10-12-25-10-32 3-7 0-10-6-7-6 4-8 13-5 21 4 11-1 13-19 10-15-3-23-1-20 5 4 5 11 7 16 4 5-4 9-1 9 6 0 8 4 8 15-1 8-7 15-9 15-6 0 4-7 14-15 22-10 10-15 11-15 4s-7-10-15-6c-8 3-15 1-15-4 0-17-28-11-34 8-3 9-4 5-2-10 2-16-1-28-5-28-5 0-9 7-9 16 0 8-5 12-11 9-6-4-8-14-5-22s1-11-5-8c-5 4-7 16-4 28 2 12 2 17-1 10s-13-9-22-6c-14 5-15 3-4-8 6-7 12-18 12-24-1-5-10 1-20 14-20 23-20 23-20 2 0-12 5-21 12-21 6 0 9-2 6-5-11-11-36 7-31 24 3 12-2 17-16 17-11 0-17-4-15-8 12-19-27-6-42 15-11 14-14 16-11 5 7-21-9-34-17-13-8 23-34 7-31-20 1-14-2-22-7-19s-7 12-4 19c3 8-5 15-20 18-13 2-24 0-24-4 0-5 8-9 18-10 11 0 12-2 4-6-7-3-19 0-26 6s-22 8-31 4c-12-4-16-3-11 5 3 6 1 14-5 18-7 4-9 3-6-3 4-6-2-13-12-16-12-3-18 0-15 7 2 6-4 12-15 12s-17-5-14-10c4-5-3-7-15-4-27 7-28 0-4-19 15-13 15-13-6-3-12 6-27 8-33 5-5-4-22-4-37 0-18 4-22 9-13 14 9 6 8 10-7 13-16 4-19 1-15-16 2-13-1-10-11 9-8 17-15 24-15 18-1-7-6-13-12-13-7 0-18-8-25-17-12-17-13-17-14 3 0 12-7 25-16 28-22 8-26 8-19-4 3-6 1-10-5-10-7 0-10-6-7-13 3-8-1-14-10-14-10 0-13 7-8 24 5 22 4 23-15 13-15-8-20-8-20 2s-3 10-9-1c-5-8-16-11-24-8-20 7-29-3-17-18 7-8 4-19-10-35-11-13-23-21-26-18s3 13 12 22c16 16 15 18-5 23-11 3-21 11-21 17 0 7-11 12-24 12-14 0-22-4-20-8 3-4-3-8-13-8-10-1-35-7-55-14-38-14-38-13-39 13 0 14-3 21-5 15-3-7-14-10-24-7-12 3-20 0-20-7 0-10-4-9-16 1-14 11-18 10-31-6-15-20-15-20-11 1 4 17 2 20-13 17-10-3-17-9-14-13 3-5 0-12-6-16-8-4-9-3-5 4s2 12-4 12-8 5-4 11c4 7-1 7-16-1-18-10-24-9-36 7-13 17-14 17-7-1 4-13 3-17-5-12s-10 1-6-11c4-13 0-11-16 7-21 24-21 24-17 3 3-13-1-24-10-27-8-3-12-2-9 3s-1 12-10 15c-25 10-44 7-42-6 2-6-6-13-17-15s-16-1-10 4c6 4 11 19 13 33l3 25-17-23c-12-17-19-21-27-13-16 16-27 13-21-4 5-11 2-13-10-9-11 4-15 13-11 28 6 21 6 21-7-1-11-18-16-20-30-9-10 7-15 16-11 20s0 4-10 0c-21-8-22-24-1-24 8 0 12-4 9-10-3-5 2-10 12-11 11 0 13-3 5-6-7-3-19 1-28 7-8 7-17 10-21 6-3-3-1-6 6-6s9-5 5-11c-10-16-25 12-18 34 6 20-6 22-25 5-11-11-13-10-7 2 4 8 1 7-8-4-8-10-22-16-30-13-9 4-20-1-26-11-11-16-11-16-6 0 3 10 1 20-5 23-5 4-6 12-3 18 4 7-7-1-25-18-26-24-34-27-41-15-5 8-6 18-4 22 3 4-2 8-10 8-19 0-21-26-3-34 9-3 7-9-5-19-10-8-14-18-10-23s3-5-2-1c-13 10-17 39-5 31 5-3 9 0 9 7 0 6-8 9-20 6-13-3-20 0-20 9 0 17-16 18-26 2-4-7-3-8 4-4s12 3 12-3c0-5-8-9-19-8-13 1-17 7-13 22 5 19 4 19-17-2-12-13-25-23-28-23-4 0-2 5 5 12 17 17 15 24-10 25-18 2-20 0-8-7 12-8 10-10-9-10-16 0-21-4-18-14 3-8-1-17-9-20-11-4-13 0-8 18 8 33-14 46-51 30-16-7-23-13-15-14 12 0 12-2 1-9s-11-13 0-32c11-21 11-23-3-11-9 7-21 11-28 10-7-2-14 5-15 15-3 15-1 16 11 6 16-13 18 3 4 36-7 17-9 17-9 3-1-10-8-18-16-18s-14-5-13-11c2-6-5-13-15-14-10-2-14 1-10 8 4 6 0 8-10 4-11-4-14-2-10 9 7 18-2 18-21-2-9-9-16-11-16-4 0 6-5 8-11 4-8-4-8 0 0 15 10 17 9 20-4 15-8-4-15-13-15-21s-5-11-11-8c-6 4-8 13-5 21 3 7 2 16-3 18-4 3-8-1-9-9s-3-21-4-29-8-12-16-9c-10 4-11 8-2 13 8 5 9 10 2 14-6 3-17-1-26-9-8-8-17-11-20-6-4 5-14 8-24 6-9-2-27-4-39-4-13-1-23-5-23-11 0-5 7-7 15-4 8 4 15 4 15 1s-7-8-15-11c-11-4-19 3-25 19-5 14-14 25-20 25-14 0-13-17 2-22 7-3 5-7-6-11-9-4-15-3-11 2 3 5 1 12-5 16s-7 11-4 17c4 7 2 8-5 4-6-4-9-11-6-16 6-10-12-23-35-27-8-1-23 5-32 14-17 15-19 15-33-3-8-10-12-25-10-32 3-7 0-10-6-7-6 4-8 13-5 21 4 11-1 13-19 10-15-3-23-1-20 5 4 5 11 7 16 4 5-4 9-1 9 6 0 8 4 8 15-1 19-16 19-3 0 16-10 10-15 11-15 4s-7-10-15-6c-8 3-15 1-15-4 0-17-28-11-34 8-3 9-4 5-2-10 2-16-1-28-5-28-5 0-9 7-9 16 0 8-5 12-11 9-6-4-8-14-5-22s1-11-5-8c-5 4-7 16-4 28 2 12 2 17-1 10s-13-9-22-6c-14 5-15 3-4-8 6-7 12-18 12-24-1-5-10 1-20 14-20 23-20 23-20 2 0-12 5-21 12-21 6 0 9-2 6-5-11-11-36 7-31 24 3 12-2 17-16 17-11 0-17-4-15-8 12-19-27-6-42 15-11 14-14 16-11 5 7-21-9-34-17-13-8 23-34 7-31-20 1-14-2-22-7-19s-7 12-4 19c3 8-5 15-20 18-13 2-24 0-24-4 0-5 8-9 18-10 11 0 12-2 4-6-7-3-19 0-26 6s-22 8-31 4c-12-4-16-3-11 5 3 6 1 14-5 18-7 4-9 3-6-3 4-6-2-13-12-16-12-3-18 0-15 7 2 6-4 12-15 12s-17-5-14-10c4-5-3-7-15-4-27 7-28 0-4-19 15-13 15-13-6-3-12 6-27 8-33 5-5-4-22-4-37 0-18 4-22 9-13 14 9 6 8 10-7 13-16 4-19 1-15-16 2-13-1-10-11 9-8 17-15 24-15 18-1-7-6-13-12-13-7 0-18-8-25-17-12-17-13-17-14 3 0 12-7 25-16 28-22 8-26 8-19-4 3-6 1-10-5-10-7 0-10-6-7-13 3-8-1-14-10-14-10 0-13 7-8 24 5 22 4 23-15 13-15-8-20-8-20 2s-3 10-9-1c-5-8-16-11-24-8-20 7-29-3-17-18 7-8 4-19-10-35-11-13-23-21-26-18s3 13 12 22c16 16 15 18-5 23-11 3-21 11-21 17 0 7-11 12-24 12-14 0-22-4-20-8 3-4-3-8-13-8-10-1-35-7-55-14-38-14-38-13-39 13 0 14-3 21-5 15-3-7-14-10-24-7-12 3-20 0-20-7 0-10-4-9-16 1-14 11-18 10-31-6-15-20-15-20-11 1 4 17 2 20-13 17-10-3-17-9-14-13 3-5 0-12-6-16-8-4-9-3-5 4s2 12-4 12-8 5-4 11c4 7-1 7-16-1-18-10-24-9-36 7-13 17-14 17-7-1 4-13 3-17-5-12s-10 1-6-11c4-13 0-11-16 7-21 24-21 24-17 3 3-13-1-24-10-27-8-3-12-2-9 3s-1 12-10 15c-25 10-44 7-42-6 2-6-6-13-17-15s-16-1-10 4c6 4 11 19 13 33l3 25-17-23c-12-17-19-21-27-13-16 16-27 13-21-4 5-11 2-13-10-9-11 4-15 13-11 28 6 21 6 21-7-1-11-18-16-20-30-9-10 7-15 16-11 20s0 4-10 0c-21-8-22-24-1-24 8 0 12-4 9-10-3-5 2-10 12-11 11 0 13-3 5-6-7-3-19 1-28 7-8 7-17 10-21 6-3-3-1-6 6-6s9-5 5-11c-10-16-25 12-18 34 6 20-6 22-25 5-11-11-13-10-7 2 4 8 1 7-8-4-8-10-22-16-30-13-9 4-20-1-26-11-11-16-11-16-6 0 3 10 1 20-5 23-5 4-6 12-3 18 4 7-7-1-25-18-26-24-34-27-41-15-5 8-6 18-4 22 3 4-2 8-10 8-19 0-21-26-3-34 9-3 7-9-5-19-10-8-14-18-10-23s3-5-2-1c-13 10-17 39-5 31 5-3 9 0 9 7 0 6-8 9-20 6-13-3-20 0-20 9 0 17-16 18-26 2-4-7-3-8 4-4s12 3 12-3c0-5-8-9-19-8-13 1-17 7-13 22 5 19 4 19-17-2-12-13-25-23-28-23-4 0-2 5 5 12 17 17 15 24-10 25-18 2-20 0-8-7 12-8 10-10-9-10-16 0-21-4-18-14 3-8-1-17-9-20-11-4-13 0-8 18 8 33-14 46-51 30-16-7-23-13-15-14 12 0 12-2 1-9s-11-13 0-32c11-21 11-23-3-11-9 7-21 11-28 10-7-2-14 5-15 15-3 15-1 16 11 6 16-13 18 3 4 36-7 17-9 17-9 3-1-10-8-18-16-18s-14-5-13-11c2-6-5-13-15-14-10-2-14 1-10 8 4 6 0 8-10 4-11-4-14-2-10 9 7 18-2 18-21-2-9-9-16-11-16-4 0 6-5 8-11 4-8-4-8 0 0 15 10 17 9 20-4 15-8-4-15-13-15-21s-5-11-11-8c-6 4-8 13-5 21 3 7 2 16-3 18-4 3-8-1-9-9s-3-21-4-29-8-12-16-9c-10 4-11 8-2 13 8 5 9 10 2 14-6 3-17-1-26-9-8-8-17-11-20-6-4 5-14 8-24 6-9-2-27-4-39-4-13-1-23-5-23-11 0-5 7-7 15-4 8 4 15 4 15 1s-7-8-15-11c-11-4-19 3-25 19-5 14-14 25-20 25-14 0-13-17 2-22 7-3 5-7-6-11-9-4-15-3-11 2 3 5 1 12-5 16s-7 11-4 17c4 7 2 8-5 4-6-4-9-11-6-16 6-10-12-23-35-27-8-1-23 5-32 14-17 15-19 15-33-3-8-10-12-25-10-32 3-7 0-10-6-7-6 4-8 13-5 21 4 11-1 13-19 10-15-3-23-1-20 5 4 5 11 7 16 4 5-4 9-1 9 6 0 8 4 8 15-1 19-16 19-3 0 16-10 10-15 11-15 4s-7-10-15-6c-8 3-15 1-15-4 0-17-28-11-34 8-3 9-4 5-2-10 2-16-1-28-5-28-5 0-9 7-9 16 0 8-5 12-11 9-6-4-8-14-5-22s1-11-5-8c-5 4-7 16-4 28 2 12 2 17-1 10s-13-9-22-6c-14 5-15 3-4-8 6-7 12-18 12-24-1-5-10 1-20 14-20 23-20 23-20 2 0-12 5-21 12-21 6 0 9-2 6-5-11-11-36 7-31 24 3 12-2 17-16 17-11 0-17-4-15-8 12-19-27-6-42 15-11 14-14 16-11 5 7-21-9-34-17-13-8 23-34 7-31-20 1-14-2-22-7-19s-7 12-4 19c3 8-5 15-20 18-13 2-24 0-24-4 0-5 8-9 18-10 11 0 12-2 4-6-7-3-19 0-26 6s-22 8-31 4c-12-4-16-3-11 5 3 6 1 14-5 18-7 4-9 3-6-3 4-6-2-13-12-16-12-3-18 0-15 7 2 6-4 12-15 12s-17-5-14-10c4-5-3-7-15-4-27 7-28 0-4-19 15-13 15-13-6-3-12 6-27 8-33 5-5-4-22-4-37 0-18 4-22 9-13 14 9 6 8 10-7 13-16 4-19 1-15-16 2-13-1-10-11 9-8 17-15 24-15 18-1-7-6-13-12-13-7 0-18-8-25-17-12-17-13-17-14 3 0 12-7 25-16 28-22 8-26 8-19-4 3-5 1-10-5-10-7 0-10-6-7-13 3-8-1-14-10-14-10 0-13 7-8 24 5 22 4 23-15 13-15-8-20-8-20 2s-3 10-9-1c-5-8-16-11-24-8-20 7-29-3-17-18 7-8 4-19-10-35-11-13-23-21-26-18s3 13 12 22c16 16 15 18-5 23-11 3-21 11-21 17 0 7-11 12-24 12-14 0-22-4-20-8 3-4-3-8-13-8-10-1-35-7-55-14-38-14-38-13-39 13 0 14-3 21-5 15-3-7-14-10-24-7-12 3-20 0-20-7 0-10-4-9-16 1-14 11-18 10-31-6-15-20-15-20-11 1 4 17 2 20-13 17-10-3-17-9-14-13 3-5 0-12-6-16-8-4-9-3-5 4s2 12-4 12-8 5-4 11c4 7-1 7-16-1-18-10-24-9-36 7-13 17-14 17-7-1 4-13 3-17-5-12s-10 1-6-11c4-13 0-11-16 7-21 24-21 24-17 3 3-13-1-24-10-27-8-3-12-2-9 3s-1 12-10 15c-25 10-44 7-41-6 1-6-7-13-18-15s-16-1-10 4c6 4 11 19 13 33l3 25-17-23c-12-17-19-21-27-13-16 16-27 13-21-4 5-11 2-13-10-9-11 4-15 13-11 28 6 21 6 21-7-1-11-18-16-20-30-9-10 7-15 16-11 20s0 4-10 0c-21-8-22-24-1-24 8 0 12-4 9-10-3-5 2-10 12-11 11 0 13-3 5-6-7-3-19 1-28 7-8 7-17 10-21 6-3-3-1-6 6-6s9-5 5-11c-10-16-25 12-18 34 6 20-6 22-25 5-11-11-13-10-7 2 4 8 1 7-8-4-8-10-22-16-30-13-9 4-20-1-26-11-11-16-11-16-6 0 3 10 1 20-5 23-5 4-6 12-3 18 4 7-7-1-25-18-26-24-34-27-41-15-5 8-6 18-4 22 3 4-2 8-10 8-19 0-21-26-3-34 9-3 7-9-5-19-10-8-17-16-15-18 1-2 0-3-2-1-3 1-6 9-7 17s2 13 7 9c5-3 9 0 9 7 0 6-8 9-20 6-13-3-20 0-20 9 0 17-16 18-26 2-4-7-3-8 4-4s12 3 12-3c0-5-8-9-19-8-13 1-17 7-13 22 5 19 4 19-17-2-12-13-25-23-28-23-4 0-2 5 5 12 17 17 15 24-10 25-18 2-20 0-8-7 12-8 10-10-9-10-16 0-21-4-18-14 3-8-1-17-9-20-11-4-13 0-8 18 8 33-14 46-51 30-16-7-23-13-15-14 12 0 12-2 1-9s-11-13 0-32c11-21 11-23-3-11-9 7-21 11-28 10-7-2-14 5-15 15-3 15-1 16 11 6 16-13 18 3 4 36-7 17-9 17-9 3-1-10-8-18-16-18s-14-5-12-11c1-6-6-13-16-14-10-2-14 1-10 8 4 6 0 8-10 4-11-4-14-2-10 9 7 18-2 18-21-2-9-9-16-11-16-4 0 6-5 8-11 4-8-4-8 0 0 15 10 17 9 20-4 15-8-4-15-13-15-21s-5-11-11-8c-6 4-8 13-5 21 3 7 2 16-3 18-4 3-8-1-9-9s-3-21-4-29-8-12-16-9c-10 4-11 8-2 13 8 5 9 10 2 14-6 3-17-1-26-9-8-8-17-11-20-6-4 5-14 8-24 6-9-2-27-4-39-4-13-1-23-5-23-11 0-5 7-7 15-4 8 4 15 4 15 1s-7-8-15-11c-11-4-19 3-25 19-5 14-14 25-20 25-14 0-13-17 2-22 7-3 5-7-6-11-9-4-15-3-11 2 3 5 1 12-5 16s-7 11-4 17c4 7 2 8-5 4-6-4-9-11-6-16 6-10-12-23-35-27-8-1-23 5-32 14-17 15-19 15-33-3-8-10-12-25-10-32 3-7 0-10-6-7-6 4-8 13-5 21 4 11-1 13-19 10-15-3-23-1-20 5 4 5 11 7 16 4 5-4 9-1 9 6 0 8 4 8 15-1 8-7 15-9 15-6 0 4-7 14-15 22-10 10-15 11-15 4s-7-10-15-6c-8 3-15 1-15-4 0-17-28-11-34 8-3 9-4 5-2-10 2-16-1-28-5-28-5 0-9 7-9 16 0 8-5 12-11 9-6-4-8-14-5-22s1-11-5-8c-5 4-7 16-4 28 2 12 2 17-1 10s-13-9-22-6c-14 5-15 3-4-8 6-7 12-18 12-23-1-6-10 0-20 13-20 23-20 23-20 2 0-12 5-21 12-21 6 0 9-2 6-5-11-11-36 7-31 24 3 12-2 17-16 17-11 0-17-4-15-8 12-19-27-6-42 15-11 14-14 16-11 5 7-21-9-34-17-13-8 23-34 7-31-20 1-14-2-22-7-19s-7 12-4 19c3 8-5 15-20 18-13 2-24 0-24-4 0-5 8-9 18-10 11 0 12-2 4-6-7-3-19 0-26 6s-22 8-31 4c-12-4-16-3-11 5 3 6 1 14-5 18-7 4-9 3-6-3 4-6-2-13-12-16-12-3-18 0-15 7 2 6-4 12-15 12s-17-5-14-10c4-5-3-7-15-4-27 7-28 0-4-19 15-13 15-13-6-3-12 6-27 8-33 5-5-4-22-4-37 0-18 4-22 9-13 14 9 6 8 10-7 13-16 4-19 1-15-16 2-13-1-10-11 9-8 17-15 24-15 18-1-7-6-13-12-13-7 0-18-8-25-17-12-17-13-17-14 3 0 12-7 25-16 28-22 8-26 8-19-4 3-5 1-10-5-10-7 0-10-6-7-13 3-8-1-14-10-14-10 0-13 7-8 24 5 22 4 23-15 13-15-8-20-8-20 2s-3 10-9-1c-5-8-16-11-24-8-20 7-29-3-17-18 7-8 4-19-10-35-11-13-23-21-26-18s3 13 12 22c16 16 15 18-5 23-11 3-21 11-21 17 0 7-11 12-24 12-14 0-22-4-20-8 3-4-3-8-13-8-10-1-35-7-55-14-38-14-38-13-39 13 0 14-3 21-5 15-3-7-14-10-24-7-12 3-20 0-20-7 0-10-4-9-16 1-14 11-18 10-31-6-15-20-15-20-11 1 4 17 2 20-13 17-10-3-17-9-14-13 3-5 0-12-6-16-8-4-9-3-5 4s2 12-4 12-8 5-4 11c4 7-1 7-16-1-18-10-24-9-36 7-13 17-14 17-7-1 4-13 3-17-5-12s-10 1-6-11c4-13 0-11-16 7-21 24-21 24-17 3 3-13-1-24-10-27-8-3-12-2-9 3s-1 12-10 15c-25 10-44 7-41-6 1-6-7-13-18-15s-16-1-10 4c6 4 11 19 13 33l3 25-17-23c-12-17-19-21-27-13-16 16-27 13-21-4 5-11 2-13-10-9-11 4-15 13-11 28 6 21 6 21-7-1-11-18-16-20-30-9-10 7-15 16-11 20s0 4-10 0c-21-8-22-24-1-24 8 0 12-4 9-10-3-5 2-10 12-11 11 0 13-3 5-6-7-3-19 1-28 7-8 7-17 10-21 6-3-3-1-6 6-6s9-5 5-11c-10-16-25 12-18 34 6 20-6 22-25 5-11-11-13-10-7 2 4 8 1 7-8-4-8-10-22-16-30-13-9 4-20-1-26-11-11-16-11-16-6 0 3 10 1 20-5 23-5 4-6 12-3 18 4 7-7-1-25-18-26-24-34-27-41-15-5 8-6 18-4 22 3 4-2 8-10 8-19 0-21-26-3-34 9-3 7-9-5-19-10-8-14-18-10-23s3-5-2-1c-13 10-17 39-5 31 5-3 9 0 9 7 0 6-8 9-20 6-13-3-20 0-20 9 0 17-16 18-26 2-4-7-3-8 4-4s12 3 12-3c0-5-8-9-19-8-13 1-17 7-13 22 5 19 4 19-17-2-12-13-25-23-28-23-4 0-2 5 5 12 17 17 15 24-10 25-18 2-20 0-8-7 12-8 10-10-9-10-16 0-21-4-18-14 3-8-1-17-9-20-11-4-13 0-8 18 8 33-14 46-51 30-16-7-23-13-15-14 12 0 12-2 1-9s-11-13 0-32c11-21 11-23-3-11-9 7-21 11-28 10-7-2-14 5-15 15-3 15-1 16 11 6 16-13 18 3 4 36-7 17-9 17-9 3-1-10-8-18-16-18s-14-5-13-11c2-6-5-13-15-14-10-2-14 1-10 8 4 6 0 8-10 4-11-4-14-2-10 9 7 18-2 18-21-2-9-9-16-11-16-4 0 6-5 8-11 4-8-4-8 0 0 15 10 17 9 20-4 15-8-4-15-13-15-21s-5-11-11-8c-6 4-8 13-5 21 3 7 2 16-3 18-4 3-8-1-9-9s-3-21-4-29-8-12-16-9c-10 4-11 8-2 13 8 5 9 10 2 14-6 3-17-1-26-9-8-8-17-11-20-6-4 5-14 8-24 6-9-2-27-4-39-4-13-1-23-5-23-11 0-5 7-7 15-4 8 4 15 4 15 1s-7-8-15-11c-11-4-19 3-25 19-5 14-14 25-20 25-14 0-13-17 2-22 7-3 5-7-6-11-9-4-15-3-11 2 3 5 1 12-5 16s-7 11-4 17c4 7 2 8-5 4-6-4-9-11-6-16 6-10-12-23-35-27-8-1-23 5-32 14-17 15-19 15-33-3-8-10-12-25-10-32 3-7 0-10-6-7-6 4-8 13-5 21 4 11-1 13-19 10-15-3-23-1-20 5 4 5 11 7 16 4 5-4 9-1 9 6 0 8 4 8 15-1 19-16 19-3 0 16-10 10-15 11-15 4s-7-10-15-6c-8 3-15 1-15-4 0-17-28-11-34 8-3 9-4 5-2-10 2-16-1-28-5-28-5 0-9 7-9 16 0 8-5 12-11 9-6-4-8-14-5-22s1-11-5-8c-5 4-7 16-4 28 2 12 2 17-1 10s-13-9-22-6c-14 5-15 3-4-8 6-7 12-18 12-24-1-5-10 1-20 14-20 23-20 23-20 2 0-12 5-21 12-21 6 0 9-2 6-5-11-11-36 7-31 24 3 12-2 17-16 17-11 0-17-4-15-8 12-19-27-6-42 15-11 14-14 16-11 5 7-21-9-34-17-13-8 23-34 7-31-20 1-14-2-22-7-19s-7 12-4 19c3 8-5 15-20 18-13 2-24 0-24-4 0-5 8-9 18-10 11 0 12-2 4-6-7-3-19 0-26 6s-22 8-31 4c-12-4-16-3-11 5 3 6 1 14-5 18-7 4-9 3-6-3 4-6-2-13-12-16-12-3-18 0-15 7 2 6-4 12-15 12s-17-5-14-10c4-5-3-7-15-4-27 7-28 0-4-19 15-13 15-13-6-3-12 6-27 8-33 5-5-4-22-4-37 0-18 4-22 9-13 14 9 6 8 10-7 13-16 4-19 1-15-16 2-13-1-10-11 9-8 17-15 24-15 18-1-7-6-13-12-13-7 0-18-8-25-17-12-17-13-17-14 3 0 12-7 25-16 28-22 8-26 8-19-4 3-5 1-10-5-10-7 0-10-6-7-13 3-8-1-14-10-14-10 0-13 7-8 24 5 22 4 23-15 13-15-8-20-8-20 2s-3 10-9-1c-5-8-16-11-24-8-20 7-29-3-17-18 7-8 4-19-10-35-11-13-23-21-26-18s3 13 12 22c16 16 15 18-5 23-11 3-21 11-21 17 0 7-11 12-24 12-14 0-22-4-20-8 3-4-3-8-13-8-10-1-35-7-55-14-38-14-38-13-39 13 0 14-3 21-5 15-3-7-14-10-24-7-12 3-20 0-20-7 0-10-4-9-16 1-14 11-18 10-31-6-15-20-15-20-11 1 4 17 2 20-13 17-10-3-17-9-14-13 3-5 0-12-6-16-8-4-9-3-5 4s2 12-4 12-8 5-4 11c4 7-1 7-16-1-18-10-24-9-36 7-13 17-14 17-7-1 4-13 3-17-5-12s-10 1-6-11c4-13 0-11-16 7-21 24-21 24-17 3 3-13-1-24-10-27-8-3-12-2-9 3s-1 12-10 15c-25 10-44 7-41-6 1-6-7-13-18-15s-16-1-10 4c6 4 11 19 13 33l3 25-17-23c-12-17-19-21-27-13-16 16-27 13-21-4 5-11 2-13-10-9-11 4-15 13-11 28 6 21 6 21-7-1-11-18-16-20-30-9-10 7-15 16-11 20s0 4-10 0c-21-8-22-24-1-24 8 0 12-4 9-10-3-5 2-10 12-11 11 0 13-3 5-6-7-3-19 1-28 7-8 7-17 10-21 6-3-3-1-6 6-6s9-5 5-11c-10-16-25 12-18 34 6 20-6 22-25 5-11-11-13-10-7 2 4 8 1 7-8-4-8-10-22-16-30-13-9 4-20-1-26-11-11-16-11-16-6 0 3 10 1 20-5 23-5 4-6 12-3 18 4 7-7-1-25-18-26-24-34-27-41-15-5 8-6 18-4 22 3 4-2 8-10 8-19 0-21-26-3-34 9-3 7-9-5-19-10-8-17-16-15-18 1-2 0-3-2-1-3 1-6 9-7 17s2 13 7 9c5-3 9 0 9 7 0 6-8 9-20 6-13-3-20 0-20 9 0 17-16 18-26 2-4-7-3-8 4-4s12 3 12-3c0-5-8-9-19-8-13 1-17 7-13 22 5 19 4 19-17-2-12-13-25-23-28-23-4 0-2 5 5 12 17 17 15 24-10 25-18 2-20 0-8-7 12-8 10-10-9-10-16 0-21-4-18-14 3-8-1-17-9-20-11-4-13 0-8 18 8 33-14 46-51 30-16-7-23-13-15-14 12 0 12-2 1-9s-11-13 0-32c11-21 11-23-3-11-9 7-21 11-28 10-7-2-14 5-15 15-3 15-1 16 11 6 16-13 18 3 4 36-7 17-9 17-9 3-1-10-8-18-16-18s-14-5-13-11c2-6-5-13-15-14-10-2-14 1-10 8 4 6 0 8-10 4-11-4-14-2-10 9 7 18-2 18-21-2-9-9-16-11-16-4 0 6-5 8-11 4-8-4-8 0 0 15 10 17 9 20-4 15-8-4-15-13-15-21s-5-11-11-8c-6 4-8 13-5 21 3 7 2 16-3 18-4 3-8-1-9-9zm255-31c2-6-3-11-12-11-8 0-15 7-15 15 0 15 22 12 27-4zm2560 0c2-6-3-11-12-11-8 0-15 7-15 15 0 15 22 12 27-4zm2560 0c2-6-3-11-12-11-8 0-15 7-15 15 0 15 22 12 27-4zm2560 0c2-6-3-11-12-11-8 0-15 7-15 15 0 15 22 12 27-4zm2560 0c2-6-3-11-12-11-8 0-15 7-15 15 0 15 22 12 27-4zm2560 0c2-6-3-11-12-11-8 0-15 7-15 15 0 15 22 12 27-4zm2560 0c2-6-3-11-12-11-8 0-15 7-15 15 0 15 22 12 27-4zm2560 0c2-6-3-11-12-11-8 0-15 7-15 15 0 15 22 12 27-4zm2560 0c2-6-3-11-12-11-8 0-15 7-15 15 0 15 22 12 27-4zm2560 0c2-6-3-11-12-11-8 0-15 7-15 15 0 15 22 12 27-4zm-23372-13c-3-6-11-11-16-11s-4 6 3 14c14 16 24 13 13-3zm1052-3c-3-8-6-5-6 6-1 11 2 17 5 13 3-3 4-12 1-19zm537 7c-4-8-8-15-10-15s-4 7-4 15 4 15 10 15c5 0 7-7 4-15zm71 5c3-6-1-7-9-4-18 7-21 14-7 14 6 0 13-4 16-10zm900-9c-3-6-11-11-16-11s-4 6 3 14c14 16 24 13 13-3zm1052-3c-3-8-6-5-6 6-1 11 2 17 5 13 3-3 4-12 1-19zm537 7c-4-8-8-15-10-15s-4 7-4 15 4 15 10 15c5 0 7-7 4-15zm71 5c3-6-1-7-9-4-18 7-21 14-7 14 6 0 13-4 16-10zm900-9c-3-6-11-11-16-11s-4 6 3 14c14 16 24 13 13-3zm1052-3c-3-8-6-5-6 6-1 11 2 17 5 13 3-3 4-12 1-19zm537 7c-4-8-8-15-10-15s-4 7-4 15 4 15 10 15c5 0 7-7 4-15zm71 5c3-6-1-7-9-4-18 7-21 14-7 14 6 0 13-4 16-10zm900-9c-3-6-11-11-16-11s-4 6 3 14c14 16 24 13 13-3zm1052-3c-3-8-6-5-6 6-1 11 2 17 5 13 3-3 4-12 1-19zm537 7c-4-8-8-15-10-15s-4 7-4 15 4 15 10 15c5 0 7-7 4-15zm71 5c3-6-1-7-9-4-18 7-21 14-7 14 6 0 13-4 16-10zm900-9c-3-6-11-11-16-11s-4 6 3 14c14 16 24 13 13-3zm1052-3c-3-8-6-5-6 6-1 11 2 17 5 13 3-3 4-12 1-19zm537 7c-4-8-8-15-10-15s-4 7-4 15 4 15 10 15c5 0 7-7 4-15zm71 5c3-6-1-7-9-4-18 7-21 14-7 14 6 0 13-4 16-10zm900-9c-3-6-11-11-16-11s-4 6 3 14c14 16 24 13 13-3zm1052-3c-3-8-6-5-6 6-1 11 2 17 5 13 3-3 4-12 1-19zm537 7c-4-8-8-15-10-15s-4 7-4 15 4 15 10 15c5 0 7-7 4-15zm71 5c3-6-1-7-9-4-18 7-21 14-7 14 6 0 13-4 16-10zm900-9c-3-6-11-11-16-11s-4 6 3 14c14 16 24 13 13-3zm1052-3c-3-8-6-5-6 6-1 11 2 17 5 13 3-3 4-12 1-19zm537 7c-4-8-8-15-10-15s-4 7-4 15 4 15 10 15c5 0 7-7 4-15zm71 5c3-6-1-7-9-4-18 7-21 14-7 14 6 0 13-4 16-10zm900-9c-3-6-11-11-16-11s-4 6 3 14c14 16 24 13 13-3zm1052-3c-3-8-6-5-6 6-1 11 2 17 5 13 3-3 4-12 1-19zm537 7c-4-8-8-15-10-15s-4 7-4 15 4 15 10 15c5 0 7-7 4-15zm71 5c3-6-1-7-9-4-18 7-21 14-7 14 6 0 13-4 16-10zm900-9c-3-6-11-11-16-11s-4 6 3 14c14 16 24 13 13-3zm1052-3c-3-8-6-5-6 6-1 11 2 17 5 13 3-3 4-12 1-19zm537 7c-4-8-8-15-10-15s-4 7-4 15 4 15 10 15c5 0 7-7 4-15zm71 5c3-6-1-7-9-4-18 7-21 14-7 14 6 0 13-4 16-10zm900-9c-3-6-11-11-16-11s-4 6 3 14c14 16 24 13 13-3zm-21675 3c0-8-19-13-24-6-3 5 1 9 9 9s15-2 15-3zm2560 0c0-8-19-13-24-6-3 5 1 9 9 9s15-2 15-3zm2560 0c0-8-19-13-24-6-3 5 1 9 9 9s15-2 15-3zm2560 0c0-8-19-13-24-6-3 5 1 9 9 9s15-2 15-3zm2560 0c0-8-19-13-24-6-3 5 1 9 9 9s15-2 15-3zm2560 0c0-8-19-13-24-6-3 5 1 9 9 9s15-2 15-3zm2560 0c0-8-19-13-24-6-3 5 1 9 9 9s15-2 15-3zm2560 0c0-8-19-13-24-6-3 5 1 9 9 9s15-2 15-3zm2560 0c0-8-19-13-24-6-3 5 1 9 9 9s15-2 15-3zm-21929-21c13-16 12-17-3-4-10 7-18 15-18 17 0 8 8 3 21-13zm1306-5c-3-8-6-5-6 6-1 11 2 17 5 13 3-3 4-12 1-19zm610 0c-3-8-6-5-6 6-1 11 2 17 5 13 3-3 4-12 1-19zm644 5c13-16 12-17-3-4-10 7-18 15-18 17 0 8 8 3 21-13zm1306-5c-3-8-6-5-6 6-1 11 2 17 5 13 3-3 4-12 1-19zm610 0c-3-8-6-5-6 6-1 11 2 17 5 13 3-3 4-12 1-19zm644 5c13-16 12-17-3-4-10 7-18 15-18 17 0 8 8 3 21-13zm1306-5c-3-8-6-5-6 6-1 11 2 17 5 13 3-3 4-12 1-19zm610 0c-3-8-6-5-6 6-1 11 2 17 5 13 3-3 4-12 1-19zm644 5c13-16 12-17-3-4-10 7-18 15-18 17 0 8 8 3 21-13zm1306-5c-3-8-6-5-6 6-1 11 2 17 5 13 3-3 4-12 1-19zm610 0c-3-8-6-5-6 6-1 11 2 17 5 13 3-3 4-12 1-19zm644 5c13-16 12-17-3-4-10 7-18 15-18 17 0 8 8 3 21-13zm1306-5c-3-8-6-5-6 6-1 11 2 17 5 13 3-3 4-12 1-19zm610 0c-3-8-6-5-6 6-1 11 2 17 5 13 3-3 4-12 1-19zm644 5c13-16 12-17-3-4-10 7-18 15-18 17 0 8 8 3 21-13zm1306-5c-3-8-6-5-6 6-1 11 2 17 5 13 3-3 4-12 1-19zm610 0c-3-8-6-5-6 6-1 11 2 17 5 13 3-3 4-12 1-19zm644 5c13-16 12-17-3-4-10 7-18 15-18 17 0 8 8 3 21-13zm1306-5c-3-8-6-5-6 6-1 11 2 17 5 13 3-3 4-12 1-19zm610 0c-3-8-6-5-6 6-1 11 2 17 5 13 3-3 4-12 1-19zm644 5c13-16 12-17-3-4-10 7-18 15-18 17 0 8 8 3 21-13zm1306-5c-3-8-6-5-6 6-1 11 2 17 5 13 3-3 4-12 1-19zm610 0c-3-8-6-5-6 6-1 11 2 17 5 13 3-3 4-12 1-19zm644 5c13-16 12-17-3-4-17 13-22 21-14 21 2 0 10-8 17-17zm1306-5c-3-8-6-5-6 6-1 11 2 17 5 13 3-3 4-12 1-19zm610 0c-3-8-6-5-6 6-1 11 2 17 5 13 3-3 4-12 1-19zm644 5c13-16 12-17-3-4-17 13-22 21-14 21 2 0 10-8 17-17zm-23116-3c3-6-1-7-9-4-18 7-21 14-7 14 6 0 13-4 16-10zm2560 0c3-6-1-7-9-4-18 7-21 14-7 14 6 0 13-4 16-10zm2560 0c3-6-1-7-9-4-18 7-21 14-7 14 6 0 13-4 16-10zm2560 0c3-6-1-7-9-4-18 7-21 14-7 14 6 0 13-4 16-10zm2560 0c3-6-1-7-9-4-18 7-21 14-7 14 6 0 13-4 16-10zm2560 0c3-6-1-7-9-4-18 7-21 14-7 14 6 0 13-4 16-10zm2560 0c3-6-1-7-9-4-18 7-21 14-7 14 6 0 13-4 16-10zm2560 0c3-6-1-7-9-4-18 7-21 14-7 14 6 0 13-4 16-10zm2560 0c3-6-1-7-9-4-18 7-21 14-7 14 6 0 13-4 16-10zm2560 0c3-6-1-7-9-4-18 7-21 14-7 14 6 0 13-4 16-10zm-22770-2150c38-42-14-102-56-64-23 21-24 42-2 66 21 23 36 23 58-2zm351-637c14-54-41-85-71-39-23 34-6 66 35 66 24 0 31-5 36-27zm-346-613c15-29 3-59-26-66-30-8-54 11-54 40 0 46 59 64 80 26zm23527-2586c3-8-1-22-9-30-13-14-17-14-31 1-9 8-14 22-11 30 8 20 43 19 51-1zm-382-224c0-16-6-26-18-28-19-4-32 20-23 44 9 25 41 13 41-16zm12-436c3-8-2-23-11-32-15-15-17-15-32 0-21 21-11 48 16 48 11 0 23-7 27-16zm373-229c16-20 6-45-19-45-24 0-39 39-20 51s25 11 39-6z"/><path d="m403 7545c0-8 4-12 9-9s6 10 3 15c-9 13-12 11-12-6z"/><path d="m2735 7551c-3-5-2-12 3-15s9 1 9 9c0 17-3 19-12 6z"/><path d="m2963 7545c0-8 4-12 9-9s6 10 3 15c-9 13-12 11-12-6z"/><path d="m5295 7551c-3-5-2-12 3-15s9 1 9 9c0 17-3 19-12 6z"/><path d="m5523 7545c0-8 4-12 9-9s6 10 3 15c-9 13-12 11-12-6z"/><path d="m7855 7551c-3-5-2-12 3-15s9 1 9 9c0 17-3 19-12 6z"/><path d="m8083 7545c0-8 4-12 9-9s6 10 3 15c-9 13-12 11-12-6z"/><path d="m10415 7551c-3-5-2-12 3-15s9 1 9 9c0 17-3 19-12 6z"/><path d="m10643 7545c0-8 4-12 9-9s6 10 3 15c-9 13-12 11-12-6z"/><path d="m12975 7551c-3-5-2-12 3-15s9 1 9 9c0 17-3 19-12 6z"/><path d="m13203 7545c0-8 4-12 9-9s6 10 3 15c-9 13-12 11-12-6z"/><path d="m15535 7551c-3-5-2-12 3-15s9 1 9 9c0 17-3 19-12 6z"/><path d="m15763 7545c0-8 4-12 9-9s6 10 3 15c-9 13-12 11-12-6z"/><path d="m18095 7551c-3-5-2-12 3-15s9 1 9 9c0 17-3 19-12 6z"/><path d="m18323 7545c0-8 4-12 9-9s6 10 3 15c-9 13-12 11-12-6z"/><path d="m20655 7551c-3-5-2-12 3-15s9 1 9 9c0 17-3 19-12 6z"/><path d="m20883 7545c0-8 4-12 9-9s6 10 3 15c-9 13-12 11-12-6z"/><path d="m23215 7551c-3-5-2-12 3-15s9 1 9 9c0 17-3 19-12 6z"/><path d="m23443 7545c0-8 4-12 9-9s6 10 3 15c-9 13-12 11-12-6z"/><path d="m1222 7541c-11-7-11-9 2-14 10-4 16-1 16 8 0 17-1 17-18 6z"/><path d="m1958 7543c7-3 16-2 19 1 4 3-2 6-13 5-11 0-14-3-6-6z"/><path d="m3782 7541c-11-7-11-9 2-14 10-4 16-1 16 8 0 17-1 17-18 6z"/><path d="m4518 7543c7-3 16-2 19 1 4 3-2 6-13 5-11 0-14-3-6-6z"/><path d="m6342 7541c-11-7-11-9 2-14 10-4 16-1 16 8 0 17-1 17-18 6z"/><path d="m7078 7543c7-3 16-2 19 1 4 3-2 6-13 5-11 0-14-3-6-6z"/><path d="m8902 7541c-11-7-11-9 2-14 10-4 16-1 16 8 0 17-1 17-18 6z"/><path d="m9638 7543c7-3 16-2 19 1 4 3-2 6-13 5-11 0-14-3-6-6z"/><path d="m11462 7541c-11-7-11-9 2-14 10-4 16-1 16 8 0 17-1 17-18 6z"/><path d="m12198 7543c7-3 16-2 19 1 4 3-2 6-13 5-11 0-14-3-6-6z"/><path d="m14022 7541c-11-7-11-9 2-14 10-4 16-1 16 8 0 17-1 17-18 6z"/><path d="m14758 7543c7-3 16-2 19 1 4 3-2 6-13 5-11 0-14-3-6-6z"/><path d="m16582 7541c-11-7-11-9 2-14 10-4 16-1 16 8 0 17-1 17-18 6z"/><path d="m17318 7543c7-3 16-2 19 1 4 3-2 6-13 5-11 0-14-3-6-6z"/><path d="m19142 7541c-11-7-11-9 2-14 10-4 16-1 16 8 0 17-1 17-18 6z"/><path d="m19878 7543c7-3 16-2 19 1 4 3-2 6-13 5-11 0-14-3-6-6z"/><path d="m21702 7541c-11-7-11-9 2-14 10-4 16-1 16 8 0 17-1 17-18 6z"/><path d="m22438 7543c7-3 16-2 19 1 4 3-2 6-13 5-11 0-14-3-6-6z"/><path d="m80 7529c0-5-6-7-12-3-7 4-9 3-5-1 13-15 34-14 34 1 0 8-4 14-9 14-4 0-8-5-8-11z"/><path d="m1525 7531c-3-5-2-12 3-15s9 1 9 9c0 17-3 19-12 6z"/><path d="m1566 7528c3-4 11-5 19-1 21 7 19 12-4 10-11 0-18-5-15-9z"/><path d="m2640 7529c0-5-6-7-12-3-7 4-9 3-5-1 13-15 34-14 34 1 0 8-4 14-9 14-4 0-8-5-8-11z"/><path d="m4085 7531c-3-5-2-12 3-15s9 1 9 9c0 17-3 19-12 6z"/><path d="m4126 7528c3-4 11-5 19-1 21 7 19 12-4 10-11 0-18-5-15-9z"/><path d="m5200 7529c0-5-6-7-12-3-7 4-9 3-5-1 13-15 34-14 34 1 0 8-4 14-9 14-4 0-8-5-8-11z"/><path d="m6645 7531c-3-5-2-12 3-15s9 1 9 9c0 17-3 19-12 6z"/><path d="m6686 7528c3-4 11-5 19-1 21 7 19 12-4 10-11 0-18-5-15-9z"/><path d="m7760 7529c0-5-6-7-12-3-7 4-9 3-5-1 13-15 34-14 34 1 0 8-4 14-9 14-4 0-8-5-8-11z"/><path d="m9205 7531c-3-5-2-12 3-15s9 1 9 9c0 17-3 19-12 6z"/><path d="m9246 7528c3-4 11-5 19-1 21 7 19 12-4 10-11 0-18-5-15-9z"/><path d="m10320 7529c0-5-6-7-12-3-7 4-9 3-5-1 13-15 34-14 34 1 0 8-4 14-9 14-4 0-8-5-8-11z"/><path d="m11765 7531c-3-5-2-12 3-15s9 1 9 9c0 17-3 19-12 6z"/><path d="m11806 7528c3-4 11-5 19-1 21 7 19 12-4 10-11 0-18-5-15-9z"/><path d="m12880 7529c0-5-6-7-12-3-7 4-9 3-5-1 13-15 34-14 34 1 0 8-4 14-9 14-4 0-8-5-8-11z"/><path d="m14325 7531c-3-5-2-12 3-15s9 1 9 9c0 17-3 19-12 6z"/><path d="m14366 7528c3-4 11-5 19-1 21 7 19 12-4 10-11 0-18-5-15-9z"/><path d="m15440 7529c0-5-6-7-12-3-7 4-9 3-5-1 13-15 34-14 34 1 0 8-4 14-9 14-4 0-8-5-8-11z"/><path d="m16885 7531c-3-5-2-12 3-15s9 1 9 9c0 17-3 19-12 6z"/><path d="m16926 7528c3-4 11-5 19-1 21 7 19 12-4 10-11 0-18-5-15-9z"/><path d="m18000 7529c0-5-6-7-12-3-7 4-9 3-5-1 13-15 34-14 34 1 0 8-4 14-9 14-4 0-8-5-8-11z"/><path d="m19445 7531c-3-5-2-12 3-15s9 1 9 9c0 17-3 19-12 6z"/><path d="m19486 7528c3-4 11-5 19-1 21 7 19 12-4 10-11 0-18-5-15-9z"/><path d="m20560 7529c0-5-6-7-12-3-7 4-9 3-5-1 13-15 34-14 34 1 0 8-4 14-9 14-4 0-8-5-8-11z"/><path d="m22005 7531c-3-5-2-12 3-15s9 1 9 9c0 17-3 19-12 6z"/><path d="m22046 7528c3-4 11-5 19-1 21 7 19 12-4 10-11 0-18-5-15-9z"/><path d="m23120 7529c0-5-6-7-12-3-7 4-9 3-5-1 13-15 34-14 34 1 0 8-4 14-9 14-4 0-8-5-8-11z"/><path d="m2000 7520c-9-6-10-10-3-10 6 0 15 5 18 10 8 12 4 12-15 0z"/><path d="m4560 7520c-9-6-10-10-3-10 6 0 15 5 18 10 8 12 4 12-15 0z"/><path d="m7120 7520c-9-6-10-10-3-10 6 0 15 5 18 10 8 12 4 12-15 0z"/><path d="m9680 7520c-9-6-10-10-3-10 6 0 15 5 18 10 8 12 4 12-15 0z"/><path d="m12240 7520c-9-6-10-10-3-10 6 0 15 5 18 10 8 12 4 12-15 0z"/><path d="m14800 7520c-9-6-10-10-3-10 6 0 15 5 18 10 8 12 4 12-15 0z"/><path d="m17360 7520c-9-6-10-10-3-10 6 0 15 5 18 10 8 12 4 12-15 0z"/><path d="m19920 7520c-9-6-10-10-3-10 6 0 15 5 18 10 8 12 4 12-15 0z"/><path d="m22480 7520c-9-6-10-10-3-10 6 0 15 5 18 10 8 12 4 12-15 0z"/><path d="m1 5173-1-103 26 12c29 13 28 26-5 133l-19 60z"/><path d="m403 4962-93-25v-33c0-25 7-38 29-53l29-21 58 60c62 65 90 101 77 99-4-1-50-13-100-27z"/><path d="m20 4837c0-16 6-27 14-27 7 0 25-9 40-21 23-18 28-19 47-6 20 15 20 15-13 22-18 4-45 19-60 33l-28 26z"/><path d="m0 4680c0-88 11-100 50-58 28 31 27 88-3 116-40 38-47 29-47-58z"/><path d="m132 4728c-24-24-10-118 18-118 3 0 5 29 5 65 0 67-3 73-23 53z"/><path d="m48 4556c-27-15-38-28-38-45 0-23 0-23 35 8 20 17 45 31 55 31 24 0 26 15 4 24-9 3-16 6-17 5s-19-11-39-23z"/><path d="m338 4503c-22-14-28-25-28-55 0-35 3-38 38-47 115-30 156-40 158-38 1 1-30 37-69 80l-72 77z"/><path d="m1 4193 1-88 19 65c10 36 19 72 19 81 0 14-19 29-36 29-2 0-4-39-3-87z"/><path d="m23698 1316c14-57 19-66 39-66 12 0 27 8 32 18 8 15 1 27-38 66l-49 48z"/><path d="m23845 1130c3-5 19-10 36-10 16 0 29 5 29 10 0 6-16 10-36 10-21 0-33-4-29-10z"/><path d="m23789 1094c-9-19-13-34-9-34 13 0 42 52 33 60-4 5-15-7-24-26z"/><path d="m23940 1113c0-19 22-63 32-63 12 0 10 6-12 42-11 18-20 28-20 21z"/><path d="m23842 1078c-20-20-14-65 10-82 12-9 26-16 30-16 14 0 48 39 48 55 0 21-36 55-58 55-10 0-23-5-30-12z"/><path d="m23555 1068c-16-5-37-12-45-15-8-2 12-13 45-24 50-15 62-16 73-5 9 8 11 22 7 35-7 23-31 26-80 9z"/><path d="m23789 986c9-18 19-29 23-23 7 11-19 57-32 57-4 0 0-15 9-34z"/><path d="m23947 987c-8-13-12-29-8-35 4-7 13 2 23 23 18 40 8 47-15 12z"/><path d="m23840 941c0-5 16-9 35-9s35 4 35 9-16 9-35 9-35-4-35-9z"/><path d="m23701 774c-7-30-11-57-9-60 2-2 24 16 48 41 37 37 41 46 30 60-7 8-22 15-35 15-18 0-24-9-34-56z"/></g></svg>