<svg fill="none" height="515" viewBox="0 0 1080 515" width="1080" xmlns="http://www.w3.org/2000/svg" xmlns:xlink="http://www.w3.org/1999/xlink"><linearGradient id="a"><stop offset=".104151" stop-color="#fff" stop-opacity="0"/><stop offset="1" stop-color="#fff"/></linearGradient><linearGradient id="b" gradientUnits="userSpaceOnUse" x1="997.5" x2="997.5" xlink:href="#a" y1="-0" y2="515"/><linearGradient id="c" gradientUnits="userSpaceOnUse" x1="987.5" x2="987.5" xlink:href="#a" y1="-0" y2="515"/><linearGradient id="d" gradientUnits="userSpaceOnUse" x1="1036" x2="1036" y1="72" y2="470"><stop offset="0" stop-color="#ffd893" stop-opacity="0"/><stop offset="1" stop-color="#7d540b"/></linearGradient><path clip-rule="evenodd" d="m1.5 34.405c17.397 0 31.5-15.163 31.5-33.867421 0-.179523-.0013-.358719-.0039-.537579h1015.0039v.537579c0 18.704421 14.1 33.867421 31.5 33.867421.17 0 .33-.0014.5-.0042v480.5992h-1080v-480.6327c.497074.025.997161.0377 1.5.0377z" fill="#171717" fill-rule="evenodd"/><path d="m997 0v515" stroke="url(#b)"/><path d="m987 0v515" stroke="url(#c)"/><path clip-rule="evenodd" d="m1046 72h-20v9.871h20zm0 11.8452h-20v3.9484h20zm-20 11.8457h20v3.9484h-20zm20 11.8451h-20v3.948h20zm-20 65.148h20v7.897h-20zm20 11.846h-20v11.845h20zm-20-29.613h20v3.948h-20zm20-53.303h-20v3.948h20zm-20 21.716h20v1.974h-20zm20 41.458h-20v1.974h20zm-20 3.948h20v1.974h-20zm20-41.458h-20v9.871h20zm-20 15.793h20v9.871h-20zm20-51.3287h-20v1.9742h20zm-20 117.0697h20v9.872h-20zm20 11.846h-20v3.948h20zm-20 11.845h20v3.949h-20zm20 11.845h-20v3.949h20zm-20 65.149h20v7.897h-20zm20 11.845h-20v11.845h20zm-20-29.613h20v3.949h-20zm20-53.303h-20v3.948h20zm-20 21.716h20v1.974h-20zm20 41.458h-20v1.975h20zm-20 3.948h20v1.975h-20zm20-41.458h-20v9.871h20zm-20 15.794h20v9.871h-20zm20-51.329h-20v1.974h20zm-20 117.07h20v9.871h-20zm20 11.846h-20v3.948h20zm-20 11.845h20v3.948h-20zm20 11.844h-20v3.949h20zm-20 65.149h20v7.897h-20zm20 11.845h-20v11.846h20zm-20-29.612h20v3.948h-20zm20-53.303h-20v3.948h20zm-20 21.715h20v1.975h-20zm20 41.459h-20v1.974h20zm-20 3.948h20v1.974h-20zm20-41.458h-20v9.871h20zm-20 15.794h20v9.871h-20zm20-51.33h-20v1.974h20z" fill="url(#d)" fill-rule="evenodd"/></svg>