<svg fill="none" height="13" viewBox="0 0 38 13" width="38" xmlns="http://www.w3.org/2000/svg"><g fill="#0f0f0f"><path d="m16.4278 12.2756h-3.0921l1.9327-11.877173h3.0923z"/><path d="m10.7342.398427-2.94803 8.169023-.34875-1.75914.00039.0006-1.04073-5.34072s-.12559-1.069763-1.46689-1.069763h-4.8730989l-.0570911.200913s1.49072.310014 3.23433 1.35805l2.68658 10.31821h3.22168l4.91981-11.877173z"/><path d="m31.6533 8.07413 1.625-4.44484.914 4.44484zm3.4026 4.20147h2.8393l-2.4756-11.877173h-2.486c-1.1482 0-1.4274.885083-1.4274.885083l-4.6115 10.99209h3.2228l.6449-1.7641h3.931z"/><path d="m27.1366 3.25508.4412-2.550916s-1.3618-.517887-2.7812-.517887c-1.5345 0-5.1785.671146-5.1785 3.931943 0 3.06867 4.2769 3.10689 4.2769 4.71799 0 1.61119-3.836 1.32329-5.1018.3069l-.4602 2.66619s1.3806.6712 3.4907.6712c2.1098 0 5.2937-1.093 5.2937-4.06623 0-3.0879-4.3155-3.37558-4.3155-4.71799 0-1.3428 3.0114-1.17042 4.3347-.4412z"/><path d="m7.43781 6.80963-1.04073-5.34072s-.12559-1.069764-1.46689-1.069764h-4.8730989l-.0570911.200914s2.34241.48561 4.58964 2.30432c2.14748 1.7383 2.84817 3.90525 2.84817 3.90525z"/></g></svg>